<svg width="416" height="312" viewBox="0 0 416 312" fill="none" xmlns="http://www.w3.org/2000/svg">
<g filter="url(#filter0_d_605_97)">
<path d="M28.7962 256.438C26.8349 256.438 24.8695 256.531 22.9503 256.719L22.6709 256.746C9.94029 258.041 0.62843 265.558 1.01139 274.23L1.08543 275.798C1.13425 276.789 1.18627 277.855 1.22909 279.037C1.25227 279.62 1.94342 280.068 2.80341 280.068H315.946C338.025 279.914 360.023 279.719 381.326 279.491C385.324 279.5 389.319 279.262 393.288 278.777C399.208 277.97 403.317 276.372 405.851 273.889H405.852C409.003 270.81 409.102 266.933 408.912 262.553C408.523 253.709 408.138 244.418 407.754 235.155C407.415 226.991 407.077 218.849 406.739 211.054C406.53 206.428 406.066 202.345 402.488 199.225C398.609 195.85 391.536 194.139 381.463 194.139C381.341 194.139 381.22 194.139 381.097 194.14C349.531 194.269 318.253 206.764 303.268 225.233C301.542 227.359 299.934 229.636 298.379 231.838C296.106 235.219 293.597 238.435 290.871 241.463C289.357 243.095 287.697 244.584 285.911 245.914C285.789 246.01 285.65 246.114 285.503 246.213C285.166 246.465 284.814 246.709 284.47 246.926C282.485 248.25 280.364 249.36 278.145 250.237L277.923 250.322C277.757 250.391 277.576 250.46 277.395 250.522C276.116 250.994 274.811 251.396 273.488 251.724C267.776 253.174 261.281 253.521 254.183 252.756C247.628 252.026 241.184 250.514 234.988 248.253C228.416 245.862 222.265 242.881 216.316 239.998C213.702 238.731 211 237.422 208.3 236.181C207.793 235.947 207.294 235.719 206.787 235.491C203.49 234.012 200.501 232.79 197.65 231.756C190.644 229.197 183.315 227.634 175.875 227.113C168.024 226.618 161.106 227.552 155.317 229.88C153.709 230.526 152.154 231.297 150.667 232.187C143.81 236.286 139.583 242.336 135.495 248.187C130.41 255.464 125.152 262.99 114.77 266.891C102.79 271.397 85.3026 269.525 72.9305 266.269C69.0407 265.246 65.1557 264.068 61.3984 262.929C59.8809 262.469 58.3624 262.012 56.8427 261.558C53.8565 260.67 51.4126 259.99 49.1516 259.416L48.4365 259.233C48.0387 259.134 47.6405 259.034 47.2351 258.939C44.5495 258.29 42.0487 257.78 39.586 257.378L39.0033 257.28C37.8352 257.103 36.7431 256.955 35.6714 256.831L35.2436 256.782C33.1023 256.551 30.95 256.436 28.7962 256.438Z" fill="#A8763E"/>
<path d="M65.3223 280.027C65.3217 279.855 65.3895 279.689 65.5108 279.567C65.6321 279.445 65.7969 279.376 65.9689 279.376H344.003C344.174 279.377 344.338 279.445 344.459 279.567C344.58 279.689 344.648 279.853 344.648 280.025C344.648 280.196 344.58 280.361 344.459 280.482C344.338 280.604 344.174 280.672 344.003 280.673H65.9689C65.7976 280.673 65.6334 280.604 65.5123 280.483C65.3911 280.362 65.3228 280.198 65.3223 280.027Z" fill="#CACACA"/>
<path d="M284.551 23.4504C284.56 29.3596 282.329 35.0526 278.307 39.3818C278.001 39.7141 277.68 40.0356 277.353 40.3462C265.234 31.018 252.523 22.4841 239.301 14.7982C239.464 14.3841 239.639 13.9754 239.829 13.5722C242.079 8.72852 245.915 4.79784 250.702 2.43027C255.49 0.0627106 260.942 -0.599909 266.157 0.552006C271.372 1.70392 276.038 4.60137 279.382 8.76515C282.727 12.9289 284.55 18.1096 284.551 23.4504Z" fill="#FF6584"/>
<path d="M303.571 71.1793L303.55 71.4245C288.125 70.362 272.702 69.2978 257.281 68.2317C246.139 67.4635 234.61 66.5917 224.764 61.3175C221.027 59.3179 217.387 56.6482 213.148 56.4629C207.89 56.2286 203.303 59.9064 199.696 63.7421C178.376 86.4515 172.203 121.175 148.284 141.122C163.369 103.92 181.38 67.9725 202.148 33.6174C205.983 27.2699 210.533 20.4919 217.654 18.4215C224.448 16.4437 231.401 19.3314 237.655 23.0364C238.996 23.8318 240.303 24.6655 241.568 25.4936C251.206 31.803 260.686 38.3539 270.009 45.1464C281.456 53.4771 292.644 62.1548 303.571 71.1793Z" fill="#2F2D2E"/>
<path d="M353.458 119.344C336.971 96.0726 317.816 74.8113 296.385 55.9943C290.222 50.5785 283.879 45.3625 277.353 40.3462C265.234 31.018 252.523 22.4842 239.301 14.7982C234.964 12.281 230.576 9.8637 226.137 7.54627C222.688 5.75372 219.016 4.11372 215.039 4.36979C212.256 4.60763 209.598 5.62972 207.372 7.31744C202.485 10.8862 199.249 16.46 196.584 21.7723C194.253 26.4308 192.079 31.1819 189.861 35.9057C188.918 37.9162 187.976 39.9213 187.001 41.9154C183.601 48.9004 180.121 55.8472 176.561 62.7559C171.974 71.6588 167.253 80.4944 162.401 89.2629C152.206 107.695 141.449 125.795 130.129 143.563C113.489 169.677 95.6873 195 76.7229 219.531C74.3964 222.533 73.4374 223.231 71.0782 226.211C70.5334 226.908 69.5635 225.928 70.1029 225.236C89.7775 200.369 106.908 176.875 124.179 150.275C137.201 130.219 149.508 109.718 161.098 88.7725C164.82 82.0546 168.463 75.2948 172.028 68.4932C177.798 57.4818 183.368 46.3668 188.739 35.1484C190.155 32.1953 191.557 29.2313 192.945 26.2564C197.353 16.8142 203.771 2.77338 216.166 2.96408C219.811 3.01857 223.195 4.49511 226.388 6.12966C229.641 7.80235 232.833 9.57856 236.021 11.382C237.296 12.1012 238.565 12.8313 239.829 13.5723C244.836 16.4818 249.769 19.513 254.627 22.6659C262.735 27.9236 270.628 33.4956 278.307 39.3819C281.952 42.1769 285.542 45.0356 289.078 47.9578C311.266 66.3145 331.216 87.2189 348.516 110.24C350.603 113.013 352.646 115.817 354.646 118.652C355.158 119.377 353.964 120.063 353.458 119.344Z" fill="#3F3D56"/>
<path d="M297.612 49.0596C298.332 48.2567 299.048 47.4538 299.773 46.6509C305.489 40.3288 311.623 34.0802 319.473 30.4558C323.216 28.673 327.302 27.7259 331.448 27.6801C335.733 27.6939 339.921 28.8179 343.88 30.3915C345.752 31.1394 347.583 31.9881 349.386 32.8919C351.446 33.9288 353.469 35.0345 355.483 36.1493C359.264 38.2414 362.995 40.4252 366.678 42.7008C374.004 47.229 381.102 52.1028 387.97 57.3223C391.53 60.0291 395.017 62.8247 398.43 65.7089C401.605 68.3882 404.716 71.1394 407.762 73.9625C408.413 74.5635 409.386 73.5908 408.735 72.9898C407.932 72.242 407.12 71.4988 406.308 70.7647C404.014 68.691 401.683 66.6571 399.316 64.6629C394.999 61.0201 390.57 57.518 386.029 54.1567C378.968 48.9265 371.665 44.0511 364.118 39.5306C360.346 37.2733 356.523 35.1109 352.648 33.0433C351.478 32.4194 350.294 31.8092 349.097 31.2311C346.38 29.8607 343.557 28.7115 340.655 27.7948C336.545 26.4651 332.196 26.0379 327.906 26.5423C323.763 27.1449 319.772 28.5257 316.142 30.6118C308.435 34.9198 302.457 41.5813 296.639 48.0824C296.052 48.743 297.02 49.7202 297.612 49.0596Z" fill="#3F3D56"/>
<path d="M139.687 114.573L121.218 107.818L112.048 104.464C109.061 103.372 106.082 102.128 102.995 101.346C100.312 100.579 97.463 100.616 94.8004 101.45C92.4259 102.329 90.2524 103.677 88.4091 105.412C86.5259 107.146 84.7737 109.018 83.1668 111.011C81.1703 113.41 79.2034 115.834 77.2275 118.251C69.0729 128.224 60.9717 138.24 52.9237 148.299C44.876 158.358 36.882 168.46 28.9419 178.605C20.9823 188.774 13.0775 198.986 5.2274 209.241C4.26575 210.497 3.30492 211.754 2.34492 213.011C1.81453 213.706 0.618593 213.021 1.15647 212.316C9.06447 201.959 17.0276 191.644 25.0458 181.371C33.0838 171.073 41.1773 160.82 49.3263 150.61C57.4752 140.4 65.6791 130.234 73.9381 120.113C75.9957 117.592 78.0566 115.073 80.121 112.557C81.8623 110.435 83.5841 108.289 85.4941 106.314C89 102.688 93.3801 99.4837 98.6233 99.3968C101.706 99.3457 104.689 100.324 107.553 101.36C110.641 102.477 113.721 103.615 116.805 104.743L135.403 111.545L140.053 113.246C140.878 113.548 140.522 114.878 139.687 114.573Z" fill="#2F2E41"/>
<path d="M321.903 38.4108C331.289 33.5871 343.309 34.5318 351.934 40.5584C335.482 43.3966 319.211 47.1942 303.204 51.9317C309.851 48.0362 315.051 41.9328 321.903 38.4108Z" fill="#F2F2F2"/>
<path d="M352.026 40.5419L353.833 42.0105C353.222 41.4965 352.586 41.0145 351.934 40.5585C351.964 40.5532 351.995 40.5472 352.026 40.5419Z" fill="#F2F2F2"/>
<path d="M89.1044 114.641C90.9224 112.428 92.8881 110.11 95.6074 109.211L98.1463 109.312C78.8197 143.462 52.7177 173.303 21.4424 197.002C43.9964 169.548 66.5504 142.094 89.1044 114.641Z" fill="#2F2D2E"/>
<path d="M279.532 239.158L264.158 232.375V226.544L269.637 226.514C270.487 226.509 271.315 226.238 272.003 225.739C272.691 225.24 273.206 224.538 273.475 223.731L277.324 212.184C277.528 211.572 277.584 210.921 277.486 210.283C277.389 209.646 277.142 209.041 276.765 208.517C276.388 207.994 275.892 207.568 275.318 207.274C274.744 206.981 274.108 206.827 273.463 206.827H264.158V201.401H275.84C276.761 201.401 277.654 201.089 278.375 200.515C279.095 199.942 279.6 199.141 279.806 198.243L282.457 186.713C282.594 186.116 282.594 185.497 282.459 184.9C282.324 184.303 282.055 183.745 281.674 183.266C281.293 182.787 280.809 182.401 280.258 182.135C279.706 181.869 279.102 181.731 278.49 181.731H264.158V180.375C264.158 179.655 263.872 178.965 263.363 178.456C262.855 177.948 262.164 177.662 261.445 177.662C260.725 177.662 260.035 177.948 259.526 178.456C259.018 178.965 258.732 179.655 258.732 180.375V181.731H162.644V180.375C162.644 179.655 162.358 178.965 161.849 178.456C161.34 177.948 160.65 177.662 159.93 177.662C159.211 177.662 158.521 177.948 158.012 178.456C157.503 178.965 157.217 179.655 157.217 180.375V181.731H145.824C145.212 181.731 144.608 181.869 144.057 182.135C143.506 182.401 143.022 182.787 142.64 183.266C142.259 183.745 141.991 184.303 141.856 184.9C141.72 185.497 141.721 186.116 141.858 186.713L144.509 198.243C144.715 199.141 145.22 199.942 145.94 200.515C146.66 201.089 147.554 201.401 148.475 201.401H157.217V206.827H150.851C150.21 206.827 149.578 206.979 149.006 207.27C148.434 207.561 147.939 207.982 147.562 208.501C147.184 209.019 146.934 209.62 146.833 210.253C146.731 210.886 146.781 211.535 146.978 212.145L150.906 224.337C151.172 225.161 151.692 225.878 152.393 226.385C153.094 226.893 153.938 227.164 154.803 227.159L157.217 227.145V232.375L144.783 239.158C144.248 239.158 143.719 239.263 143.225 239.468C142.731 239.672 142.283 239.972 141.905 240.35C141.527 240.728 141.227 241.177 141.023 241.67C140.818 242.164 140.713 242.693 140.713 243.228C140.713 244.307 141.142 245.342 141.905 246.105C142.668 246.869 143.703 247.297 144.783 247.297H157.217V277.141C157.217 277.861 157.503 278.551 158.012 279.06C158.521 279.569 159.211 279.854 159.931 279.854C160.65 279.854 161.34 279.569 161.849 279.06C162.358 278.551 162.644 277.861 162.644 277.141V247.297H258.732V277.141C258.732 277.861 259.018 278.551 259.526 279.06C260.035 279.569 260.725 279.854 261.445 279.854C262.164 279.854 262.855 279.569 263.363 279.06C263.872 278.551 264.158 277.861 264.158 277.141V247.297H279.532C280.611 247.297 281.647 246.869 282.41 246.105C283.173 245.342 283.602 244.307 283.602 243.228C283.602 242.693 283.496 242.164 283.292 241.67C283.087 241.177 282.788 240.728 282.41 240.35C282.032 239.972 281.583 239.672 281.089 239.468C280.596 239.263 280.067 239.158 279.532 239.158ZM162.644 201.401H258.732V206.827H162.644V201.401ZM162.644 232.375V227.115L258.732 226.575V232.375H162.644Z" fill="#CCCCCC"/>
<path d="M50.2385 227.646L54.5891 213.478C49.3545 207.717 42.7928 203.32 35.4736 200.671C42.6245 212.517 35.6953 227.972 38.5828 241.505C39.5157 245.719 41.3849 249.669 44.052 253.062C46.719 256.456 50.1154 259.205 53.9896 261.107L60.5916 269.288C64.0526 263.241 66.1616 256.515 66.7732 249.575C67.3848 242.634 66.4845 235.644 64.1343 229.085C62.7794 225.418 60.9682 221.937 58.7433 218.723C54.8201 223.335 50.2385 227.646 50.2385 227.646Z" fill="#F2F2F2"/>
<path d="M26.3166 229.456L23.8916 214.835C16.6371 212.013 8.80346 211.004 1.0708 211.897C12.7546 219.311 13.445 236.234 22.0649 247.059C24.7793 250.414 28.214 253.116 32.1144 254.964C36.0149 256.812 40.2811 257.758 44.5971 257.733L54.1543 262.11C54.5552 255.154 53.4435 248.194 50.8956 241.709C48.3477 235.225 44.4242 229.369 39.3955 224.547C36.5476 221.87 33.3739 219.561 29.9492 217.677C28.4947 223.555 26.3166 229.456 26.3166 229.456Z" fill="#F2F2F2"/>
<path d="M369.823 167.661L360.306 156.298C362.889 148.955 367.226 142.354 372.939 137.067C370.956 150.762 383.349 162.307 385.95 175.898C386.728 180.143 386.542 184.509 385.404 188.672C384.266 192.835 382.206 196.689 379.376 199.948L376.473 210.051C370.934 205.826 366.376 200.449 363.114 194.292C359.852 188.136 357.964 181.345 357.58 174.388C357.402 170.484 357.718 166.572 358.518 162.746C363.926 165.47 369.823 167.661 369.823 167.661Z" fill="#F2F2F2"/>
<path d="M392.567 160.028L389.116 145.614C394.703 140.194 401.529 136.219 409 134.036C401.118 145.409 407.061 161.269 403.327 174.593C402.131 178.74 400.017 182.565 397.142 185.783C394.266 189.002 390.704 191.533 386.717 193.187L379.614 200.936C376.54 194.683 374.859 187.838 374.685 180.873C374.511 173.908 375.85 166.988 378.608 160.59C380.191 157.016 382.218 153.655 384.64 150.588C388.266 155.438 392.567 160.028 392.567 160.028Z" fill="#F2F2F2"/>
<path d="M204.702 292.064L198.45 295.08L183.843 272.402L193.069 267.951L204.702 292.064Z" fill="#FFB6B6"/>
<path d="M205.406 200.79L199.85 209.173C199.85 209.173 166.813 231.051 168.192 239.189C168.675 242.036 170.771 248.024 173.468 254.698C174.296 256.749 178.189 260.825 179.102 262.933C183.709 273.58 186.003 282.098 188.215 283.238C190.672 284.511 190.42 283.501 191.926 285.823L200.644 282.554C200.644 282.554 202.001 279.506 202.676 277.996C203.35 276.487 202.293 275.736 202.293 275.736C202.293 275.736 201.013 276.418 201.235 274.985C201.457 273.552 201.381 273.1 200.852 272.724C200.323 272.349 198.277 268.509 198.277 268.509C196.41 265.768 194.909 262.795 193.813 259.664C193.326 258.291 193.375 254.999 192.723 253.671C191.35 250.872 190.864 248.806 188.645 247.351C188.645 247.351 216.578 233.78 219.199 227.289C221.82 220.799 219.123 199.395 219.123 199.395L205.406 200.79Z" fill="#2F2E41"/>
<path d="M208.016 295.358L186.877 303.591L186.773 303.323C185.923 301.141 185.975 298.711 186.917 296.567C187.859 294.423 189.614 292.741 191.796 291.891L191.796 291.891L194.517 287.458L202.862 287.581L204.707 286.863L208.016 295.358Z" fill="#2F2E41"/>
<path d="M257.331 259.048L267.545 258.275L266.273 285.22L259.351 285.743L257.331 259.048Z" fill="#FFB6B6"/>
<path d="M201.201 208.203C198.852 197.861 205.471 228.699 212.336 234.464C215.035 236.731 226.334 234.385 235.689 235.1C241.421 235.589 247.017 237.109 252.209 239.587C250.716 242.307 252.278 246.365 252.568 250.014C253.098 256.67 253.631 262.791 253.631 262.791C253.631 262.791 253.626 267.142 253.335 267.722C253.045 268.301 253.189 268.736 254.058 269.898C254.927 271.059 253.476 271.057 253.476 271.057C253.476 271.057 252.895 272.217 254.199 273.233C255.503 274.25 258.598 277.211 258.598 277.211L266.9 276.474C267.14 273.716 267.856 273.354 269.428 271.076C270.924 268.921 270.582 255.986 269.527 243.846C269.456 243.023 270.603 240.435 270.526 239.623C269.747 231.477 267.452 225.83 266.44 222.782C265.742 220.68 262.389 218.866 257.858 217.338C257.166 217.105 256.447 216.879 255.706 216.659C243.21 212.952 224.4 211.131 224.4 211.131L214.115 201.983L201.201 208.203Z" fill="#2F2E41"/>
<path d="M258.421 284.265L260.3 283.641L266.647 278.221L271.57 279.899L271.571 279.898C273.793 279.161 276.218 279.336 278.311 280.386C280.405 281.435 281.995 283.274 282.733 285.496L282.824 285.768L261.294 292.917L258.421 284.265Z" fill="#2F2E41"/>
<path d="M210.68 148.653L204.501 153.358L197.05 155.647C197.05 155.647 193.969 198.978 191.194 201.754C188.418 204.53 190.921 204.604 190.364 208.21C189.806 211.816 188.45 219.207 188.45 219.207C207.186 229.125 223.338 229.391 236.313 217.786C236.479 217.068 236.394 216.315 236.074 215.651C235.753 214.988 235.215 214.454 234.549 214.138C232.135 212.857 236.775 206.877 234.802 205.877C232.829 204.877 235.604 196.203 235.604 196.203L233.783 178.105L235.222 175.212L231.711 157.511L225.62 155.286L223.187 149.424L210.68 148.653Z" fill="#45ACDC"/>
<path d="M217.005 146.034C223.754 146.034 229.226 140.563 229.226 133.813C229.226 127.063 223.754 121.592 217.005 121.592C210.255 121.592 204.783 127.063 204.783 133.813C204.783 140.563 210.255 146.034 217.005 146.034Z" fill="#FFB6B6"/>
<path d="M206.809 225.667C206.837 224.884 206.692 224.105 206.386 223.384C206.08 222.664 205.62 222.019 205.038 221.495C204.456 220.971 203.766 220.582 203.017 220.354C202.268 220.126 201.478 220.064 200.702 220.175L191.995 203.25L187.144 211.869L196.156 226.62C196.428 227.91 197.163 229.056 198.222 229.84C199.282 230.624 200.593 230.992 201.906 230.875C203.219 230.757 204.443 230.162 205.347 229.202C206.25 228.243 206.771 226.985 206.809 225.667H206.809Z" fill="#FFB6B6"/>
<path d="M192.144 221.526L173.468 192.58L173.529 192.447C173.6 192.294 177.829 183.16 181.927 174.794C182.558 173.505 183.186 172.235 183.795 171.019C184.058 170.494 184.317 169.98 184.572 169.477C186.294 166.084 187.797 163.279 188.695 161.947C190.681 158.935 193.637 156.692 197.072 155.592L197.159 155.57L197.241 155.604C198.922 156.313 200.31 157.574 201.178 159.178C202.046 160.782 202.342 162.635 202.016 164.429C200.396 173.086 196.786 181.247 191.471 188.269L188.443 192.26L198.965 215.136L192.144 221.526Z" fill="#45ACDC"/>
<path d="M240.781 232.319V233.097C240.781 233.552 240.6 233.989 240.278 234.311C239.956 234.633 239.52 234.814 239.064 234.814H181.952C181.496 234.814 181.059 234.633 180.737 234.311C180.415 233.989 180.234 233.552 180.234 233.097V232.319C180.234 231.864 180.415 231.427 180.737 231.105C181.059 230.783 181.496 230.602 181.952 230.602H182.966C182.93 230.477 182.911 230.347 182.91 230.217V201.067C182.911 200.685 183.062 200.319 183.332 200.049C183.602 199.779 183.969 199.627 184.35 199.627H236.665C237.047 199.627 237.413 199.779 237.683 200.049C237.953 200.319 238.105 200.685 238.105 201.067V230.217C238.106 230.347 238.087 230.477 238.05 230.602H239.064C239.52 230.602 239.956 230.783 240.278 231.105C240.6 231.427 240.781 231.864 240.781 232.319Z" fill="#3F3D56"/>
<path d="M211.633 216.096C210.988 216.096 210.357 215.905 209.82 215.546C209.283 215.187 208.865 214.677 208.618 214.081C208.371 213.485 208.306 212.828 208.432 212.195C208.558 211.562 208.869 210.98 209.325 210.524C209.782 210.067 210.363 209.757 210.996 209.631C211.63 209.505 212.286 209.569 212.882 209.816C213.479 210.063 213.988 210.482 214.347 211.019C214.706 211.555 214.897 212.186 214.897 212.832C214.896 213.697 214.552 214.527 213.94 215.139C213.328 215.751 212.499 216.095 211.633 216.096ZM211.633 210.13C211.099 210.13 210.577 210.289 210.132 210.586C209.688 210.883 209.342 211.305 209.137 211.798C208.933 212.292 208.879 212.835 208.984 213.359C209.088 213.883 209.345 214.364 209.723 214.742C210.101 215.12 210.582 215.377 211.106 215.481C211.63 215.586 212.173 215.532 212.667 215.328C213.161 215.123 213.582 214.777 213.879 214.333C214.176 213.889 214.335 213.366 214.335 212.832C214.334 212.116 214.049 211.429 213.542 210.923C213.036 210.416 212.349 210.131 211.633 210.13Z" fill="white"/>
<path d="M210.508 214.689C212.155 214.689 213.491 213.354 213.491 211.707C213.491 210.059 212.155 208.724 210.508 208.724C208.861 208.724 207.525 210.059 207.525 211.707C207.525 213.354 208.861 214.689 210.508 214.689Z" fill="white"/>
<path d="M256.368 110.57C255.854 111.16 255.475 111.856 255.259 112.609C255.043 113.362 254.994 114.153 255.117 114.926C255.239 115.699 255.53 116.436 255.968 117.085C256.406 117.734 256.981 118.279 257.653 118.682L253.76 137.313L262.956 133.672L265.243 116.538C265.845 115.364 265.995 114.012 265.666 112.735C265.336 111.459 264.55 110.347 263.456 109.612C262.362 108.876 261.036 108.567 259.73 108.744C258.424 108.921 257.227 109.57 256.368 110.57L256.368 110.57Z" fill="#FFB6B6"/>
<path d="M265.152 123.02L261.433 157.268L261.302 157.332C261.193 157.386 256.482 159.697 250.698 162.449C249.722 162.913 249.862 164.924 248.843 165.405C248.14 165.736 246.285 164.535 245.576 164.867C239.254 167.823 232.862 170.697 230.315 171.476C226.875 172.566 223.167 172.447 219.805 171.138L219.724 171.101L219.682 171.022C218.823 169.413 218.538 167.559 218.874 165.766C219.21 163.974 220.147 162.349 221.53 161.16C228.239 155.455 236.183 151.388 244.733 149.28L249.598 148.086L255.829 123.69L265.152 123.02Z" fill="#45ACDC"/>
<path d="M244.33 110.214L245.73 122.914C245.827 123.231 246.024 123.508 246.29 123.705C246.557 123.902 246.88 124.008 247.211 124.008H253.662C253.994 124.008 254.316 123.902 254.583 123.705C254.85 123.508 255.046 123.231 255.144 122.914L256.303 113.18C256.637 113.344 257.006 113.426 257.379 113.42C257.751 113.414 258.117 113.319 258.446 113.144C258.775 112.969 259.057 112.718 259.27 112.412C259.484 112.107 259.621 111.755 259.672 111.386C259.722 111.016 259.685 110.641 259.562 110.289C259.439 109.937 259.234 109.62 258.964 109.362C258.695 109.105 258.368 108.916 258.011 108.809C257.654 108.703 257.276 108.683 256.91 108.751C256.765 108.58 256.585 108.443 256.382 108.349C256.179 108.255 255.958 108.207 255.734 108.207H245.812C245.569 108.207 245.33 108.264 245.114 108.374C244.897 108.483 244.709 108.642 244.565 108.837C244.421 109.032 244.325 109.258 244.284 109.497C244.243 109.736 244.259 109.982 244.33 110.214ZM256.505 112.521L257.215 110.214C257.298 109.947 257.306 109.664 257.239 109.393C257.269 109.391 257.298 109.384 257.328 109.384C257.774 109.384 258.202 109.561 258.517 109.876C258.832 110.192 259.009 110.619 259.009 111.065C259.009 111.511 258.832 111.938 258.517 112.254C258.202 112.569 257.774 112.746 257.328 112.746C257.039 112.744 256.756 112.667 256.505 112.521Z" fill="#3F3D56"/>
<path d="M226.959 123.314C225.954 120.39 220.95 118.362 212.839 118.08C204.728 117.798 202.671 127.356 202.671 127.356C197.256 131.749 208.453 143.508 208.995 143.085L208.751 140.875C208.348 137.216 206.634 134.36 208.814 130.546L210.906 130.57C213.609 131.09 216.312 131.61 219.015 132.129L215.815 129.312L215.905 129.172C217.266 129.881 218.747 130.331 220.273 130.499C221.993 130.6 223.873 129.915 224.697 128.402C224.917 127.986 225.051 127.531 225.092 127.062C227.411 127.988 228.472 130.848 228.472 130.848C228.472 130.848 227.964 126.238 226.959 123.314Z" fill="#2F2E41"/>
</g>
<defs>
<filter id="filter0_d_605_97" x="0" y="0" width="416" height="311.591" filterUnits="userSpaceOnUse" color-interpolation-filters="sRGB">
<feFlood flood-opacity="0" result="BackgroundImageFix"/>
<feColorMatrix in="SourceAlpha" type="matrix" values="0 0 0 0 0 0 0 0 0 0 0 0 0 0 0 0 0 0 127 0" result="hardAlpha"/>
<feOffset dx="3" dy="4"/>
<feGaussianBlur stdDeviation="2"/>
<feComposite in2="hardAlpha" operator="out"/>
<feColorMatrix type="matrix" values="0 0 0 0 0 0 0 0 0 0 0 0 0 0 0 0 0 0 0.25 0"/>
<feBlend mode="normal" in2="BackgroundImageFix" result="effect1_dropShadow_605_97"/>
<feBlend mode="normal" in="SourceGraphic" in2="effect1_dropShadow_605_97" result="shape"/>
</filter>
</defs>
</svg>
