<svg width="408" height="304" viewBox="0 0 408 304" fill="none" xmlns="http://www.w3.org/2000/svg">
<path d="M27.7962 256.438C25.8349 256.438 23.8695 256.531 21.9503 256.719L21.6709 256.746C8.94029 258.041 -0.37157 265.558 0.0113947 274.23L0.0854287 275.798C0.134253 276.789 0.186271 277.855 0.22909 279.037C0.252274 279.62 0.943416 280.068 1.80341 280.068H314.946C337.025 279.914 359.023 279.719 380.326 279.491C384.324 279.5 388.319 279.262 392.288 278.777C398.208 277.97 402.317 276.372 404.851 273.889H404.852C408.003 270.81 408.102 266.933 407.912 262.553C407.523 253.709 407.138 244.418 406.754 235.155C406.415 226.991 406.077 218.849 405.739 211.054C405.53 206.428 405.066 202.345 401.488 199.225C397.609 195.85 390.536 194.139 380.463 194.139C380.341 194.139 380.22 194.139 380.097 194.14C348.531 194.269 317.253 206.764 302.268 225.233C300.542 227.359 298.934 229.636 297.379 231.838C295.106 235.219 292.597 238.435 289.871 241.463C288.357 243.095 286.697 244.584 284.911 245.914C284.789 246.01 284.65 246.114 284.503 246.213C284.166 246.465 283.814 246.709 283.47 246.926C281.485 248.25 279.364 249.36 277.145 250.237L276.923 250.322C276.757 250.391 276.576 250.46 276.395 250.522C275.116 250.994 273.811 251.396 272.488 251.724C266.776 253.174 260.281 253.521 253.183 252.756C246.628 252.026 240.184 250.514 233.988 248.253C227.416 245.862 221.265 242.881 215.316 239.998C212.702 238.731 210 237.422 207.3 236.181C206.793 235.947 206.294 235.719 205.787 235.491C202.49 234.012 199.501 232.79 196.65 231.756C189.644 229.197 182.315 227.634 174.875 227.113C167.024 226.618 160.106 227.552 154.317 229.88C152.709 230.526 151.154 231.297 149.667 232.187C142.81 236.286 138.583 242.336 134.495 248.187C129.41 255.464 124.152 262.99 113.77 266.891C101.79 271.397 84.3026 269.525 71.9305 266.269C68.0407 265.246 64.1557 264.068 60.3984 262.929C58.8809 262.469 57.3624 262.012 55.8427 261.558C52.8565 260.67 50.4126 259.99 48.1516 259.416L47.4365 259.233C47.0387 259.134 46.6405 259.034 46.2351 258.939C43.5495 258.29 41.0487 257.78 38.586 257.378L38.0033 257.28C36.8352 257.103 35.7431 256.955 34.6714 256.831L34.2436 256.782C32.1023 256.551 29.95 256.436 27.7962 256.438Z" fill="#A8763E"/>
<path d="M64.3223 280.027C64.3217 279.855 64.3895 279.689 64.5108 279.567C64.6321 279.445 64.7969 279.376 64.9689 279.376H343.003C343.174 279.377 343.338 279.445 343.459 279.567C343.58 279.689 343.648 279.853 343.648 280.025C343.648 280.196 343.58 280.361 343.459 280.482C343.338 280.604 343.174 280.672 343.003 280.673H64.9689C64.7976 280.673 64.6334 280.604 64.5123 280.483C64.3911 280.362 64.3228 280.198 64.3223 280.027Z" fill="#CACACA"/>
<path d="M283.551 23.4504C283.56 29.3596 281.329 35.0526 277.307 39.3818C277.002 39.7141 276.68 40.0356 276.353 40.3462C264.234 31.018 251.523 22.4841 238.301 14.7982C238.464 14.3841 238.639 13.9754 238.829 13.5722C241.079 8.72852 244.915 4.79784 249.702 2.43027C254.49 0.0627106 259.942 -0.599909 265.157 0.552006C270.372 1.70392 275.038 4.60137 278.382 8.76515C281.727 12.9289 283.55 18.1096 283.551 23.4504Z" fill="#FF6584"/>
<path d="M302.571 71.1793L302.55 71.4245C287.125 70.362 271.702 69.2978 256.281 68.2317C245.139 67.4635 233.61 66.5917 223.764 61.3175C220.027 59.3179 216.387 56.6482 212.148 56.4629C206.89 56.2286 202.303 59.9064 198.696 63.7421C177.376 86.4515 171.203 121.175 147.284 141.122C162.369 103.92 180.38 67.9725 201.148 33.6174C204.983 27.2699 209.533 20.4919 216.654 18.4215C223.448 16.4437 230.401 19.3314 236.655 23.0364C237.996 23.8318 239.303 24.6655 240.567 25.4936C250.206 31.803 259.686 38.3539 269.009 45.1464C280.456 53.4771 291.644 62.1548 302.571 71.1793Z" fill="#2F2D2E"/>
<path d="M352.458 119.344C335.971 96.0726 316.816 74.8113 295.385 55.9943C289.223 50.5785 282.879 45.3625 276.353 40.3462C264.234 31.018 251.523 22.4842 238.301 14.7982C233.964 12.281 229.576 9.8637 225.137 7.54627C221.688 5.75372 218.016 4.11372 214.039 4.36979C211.256 4.60763 208.598 5.62972 206.373 7.31744C201.485 10.8862 198.249 16.46 195.585 21.7723C193.253 26.4308 191.079 31.1819 188.861 35.9057C187.919 37.9162 186.976 39.9213 186.001 41.9154C182.601 48.9004 179.121 55.8472 175.561 62.7559C170.974 71.6588 166.253 80.4944 161.401 89.2629C151.207 107.695 140.449 125.795 129.129 143.563C112.489 169.677 94.6874 195 75.723 219.531C73.3965 222.533 72.4375 223.231 70.0783 226.211C69.5335 226.908 68.5637 225.928 69.1031 225.236C88.7776 200.369 105.908 176.875 123.179 150.275C136.201 130.219 148.508 109.718 160.098 88.7725C163.82 82.0546 167.463 75.2948 171.028 68.4932C176.798 57.4818 182.368 46.3668 187.739 35.1484C189.155 32.1953 190.557 29.2313 191.945 26.2564C196.353 16.8142 202.771 2.77338 215.167 2.96408C218.812 3.01857 222.195 4.49511 225.388 6.12966C228.641 7.80235 231.833 9.57856 235.021 11.382C236.296 12.1012 237.565 12.8313 238.829 13.5723C243.837 16.4818 248.769 19.513 253.627 22.6659C261.735 27.9236 269.628 33.4956 277.307 39.3819C280.952 42.1769 284.542 45.0356 288.078 47.9578C310.266 66.3145 330.216 87.2189 347.516 110.24C349.603 113.013 351.646 115.817 353.646 118.652C354.158 119.377 352.965 120.063 352.458 119.344Z" fill="#3F3D56"/>
<path d="M296.612 49.0596C297.332 48.2567 298.048 47.4538 298.773 46.6509C304.489 40.3288 310.623 34.0802 318.473 30.4558C322.216 28.673 326.302 27.7259 330.447 27.6801C334.732 27.6939 338.921 28.8179 342.88 30.3915C344.752 31.1394 346.583 31.9881 348.386 32.8919C350.446 33.9288 352.469 35.0345 354.483 36.1493C358.264 38.2414 361.995 40.4252 365.677 42.7008C373.004 47.229 380.102 52.1028 386.97 57.3223C390.53 60.0291 394.017 62.8247 397.43 65.7089C400.605 68.3882 403.716 71.1394 406.762 73.9625C407.413 74.5635 408.386 73.5908 407.735 72.9898C406.932 72.242 406.12 71.4988 405.308 70.7647C403.014 68.691 400.683 66.6571 398.316 64.6629C393.999 61.0201 389.57 57.518 385.029 54.1567C377.968 48.9265 370.664 44.0511 363.118 39.5306C359.346 37.2733 355.523 35.1109 351.648 33.0433C350.478 32.4194 349.294 31.8092 348.097 31.2311C345.38 29.8607 342.557 28.7115 339.655 27.7948C335.545 26.4651 331.196 26.0379 326.906 26.5423C322.763 27.1449 318.772 28.5257 315.142 30.6118C307.435 34.9198 301.457 41.5813 295.639 48.0824C295.052 48.743 296.02 49.7202 296.612 49.0596Z" fill="#3F3D56"/>
<path d="M138.687 114.573L120.218 107.818L111.048 104.464C108.061 103.372 105.082 102.128 101.994 101.346C99.3115 100.579 96.4628 100.616 93.8002 101.45C91.4257 102.329 89.2522 103.677 87.4088 105.412C85.5256 107.146 83.7734 109.018 82.1666 111.011C80.1701 113.41 78.2031 115.834 76.2273 118.251C68.0727 128.224 59.9714 138.24 51.9235 148.299C43.8757 158.358 35.8818 168.46 27.9416 178.605C19.9821 188.774 12.0772 198.986 4.22715 209.241C3.2655 210.497 2.30468 211.754 1.34468 213.011C0.814286 213.706 -0.381651 213.021 0.156225 212.316C8.06422 201.959 16.0273 191.644 24.0456 181.371C32.0835 171.073 40.177 160.82 48.3261 150.61C56.4749 140.4 64.6788 130.234 72.9379 120.113C74.9954 117.592 77.0564 115.073 79.1207 112.557C80.8621 110.435 82.5838 108.289 84.4938 106.314C87.9997 102.688 92.3799 99.4837 97.623 99.3968C100.706 99.3457 103.689 100.324 106.553 101.36C109.641 102.477 112.721 103.615 115.805 104.743L134.403 111.545L139.053 113.246C139.878 113.548 139.522 114.878 138.687 114.573Z" fill="#2F2E41"/>
<path d="M320.903 38.4108C330.289 33.5871 342.309 34.5318 350.934 40.5584C334.482 43.3966 318.211 47.1942 302.204 51.9317C308.851 48.0362 314.051 41.9328 320.903 38.4108Z" fill="#F2F2F2"/>
<path d="M351.026 40.5419L352.833 42.0105C352.222 41.4965 351.586 41.0145 350.934 40.5585C350.964 40.5532 350.995 40.5472 351.026 40.5419Z" fill="#F2F2F2"/>
<path d="M88.1043 114.641C89.9224 112.428 91.888 110.11 94.6074 109.211L97.1462 109.312C77.8196 143.462 51.7176 173.303 20.4423 197.002C42.9963 169.548 65.5503 142.094 88.1043 114.641Z" fill="#2F2D2E"/>
<path d="M278.532 239.158L263.158 232.375V226.544L268.637 226.514C269.487 226.509 270.314 226.238 271.003 225.739C271.691 225.24 272.206 224.538 272.475 223.731L276.324 212.184C276.528 211.572 276.583 210.921 276.486 210.283C276.389 209.646 276.142 209.041 275.764 208.517C275.387 207.994 274.891 207.568 274.317 207.274C273.743 206.981 273.108 206.827 272.463 206.827H263.158V201.401H274.84C275.76 201.401 276.654 201.089 277.374 200.515C278.095 199.942 278.599 199.141 278.806 198.243L281.456 186.713C281.593 186.116 281.594 185.497 281.459 184.9C281.323 184.303 281.055 183.745 280.674 183.266C280.293 182.787 279.809 182.401 279.257 182.135C278.706 181.869 278.102 181.731 277.49 181.731H263.158V180.375C263.158 179.655 262.872 178.965 262.363 178.456C261.854 177.948 261.164 177.662 260.445 177.662C259.725 177.662 259.035 177.948 258.526 178.456C258.017 178.965 257.732 179.655 257.732 180.375V181.731H161.643V180.375C161.643 179.655 161.358 178.965 160.849 178.456C160.34 177.948 159.65 177.662 158.93 177.662C158.211 177.662 157.521 177.948 157.012 178.456C156.503 178.965 156.217 179.655 156.217 180.375V181.731H144.824C144.212 181.731 143.608 181.869 143.057 182.135C142.506 182.401 142.021 182.787 141.64 183.266C141.259 183.745 140.991 184.303 140.855 184.9C140.72 185.497 140.721 186.116 140.858 186.713L143.509 198.243C143.715 199.141 144.219 199.942 144.94 200.515C145.66 201.089 146.554 201.401 147.475 201.401H156.217V206.827H149.851C149.21 206.827 148.577 206.979 148.006 207.27C147.434 207.561 146.939 207.982 146.562 208.501C146.184 209.019 145.934 209.62 145.833 210.253C145.731 210.886 145.781 211.535 145.978 212.145L149.906 224.337C150.171 225.161 150.692 225.878 151.393 226.385C152.093 226.893 152.937 227.164 153.802 227.159L156.217 227.145V232.375L143.782 239.158C143.248 239.158 142.719 239.263 142.225 239.468C141.731 239.672 141.283 239.972 140.905 240.35C140.527 240.728 140.227 241.177 140.022 241.67C139.818 242.164 139.713 242.693 139.713 243.228C139.713 244.307 140.141 245.342 140.905 246.105C141.668 246.869 142.703 247.297 143.782 247.297H156.217V277.141C156.217 277.861 156.503 278.551 157.012 279.06C157.521 279.569 158.211 279.854 158.93 279.854C159.65 279.854 160.34 279.569 160.849 279.06C161.358 278.551 161.643 277.861 161.643 277.141V247.297H257.732V277.141C257.732 277.861 258.017 278.551 258.526 279.06C259.035 279.569 259.725 279.854 260.445 279.854C261.164 279.854 261.854 279.569 262.363 279.06C262.872 278.551 263.158 277.861 263.158 277.141V247.297H278.532C279.611 247.297 280.646 246.869 281.41 246.105C282.173 245.342 282.602 244.307 282.602 243.228C282.602 242.693 282.496 242.164 282.292 241.67C282.087 241.177 281.787 240.728 281.41 240.35C281.032 239.972 280.583 239.672 280.089 239.468C279.596 239.263 279.066 239.158 278.532 239.158ZM161.643 201.401H257.732V206.827H161.643V201.401ZM161.643 232.375V227.115L257.732 226.575V232.375H161.643Z" fill="#CCCCCC"/>
<path d="M49.2383 227.646L53.5889 213.478C48.3543 207.717 41.7926 203.32 34.4734 200.671C41.6242 212.517 34.695 227.972 37.5825 241.505C38.5155 245.719 40.3847 249.669 43.0517 253.062C45.7187 256.456 49.1152 259.205 52.9894 261.107L59.5914 269.288C63.0524 263.241 65.1614 256.515 65.773 249.575C66.3846 242.634 65.4843 235.644 63.1341 229.085C61.7791 225.418 59.9679 221.937 57.7431 218.723C53.8199 223.335 49.2383 227.646 49.2383 227.646Z" fill="#F2F2F2"/>
<path d="M25.3164 229.456L22.8915 214.835C15.637 212.013 7.80328 211.004 0.0706177 211.897C11.7544 219.311 12.4448 236.234 21.0648 247.059C23.7791 250.414 27.2138 253.116 31.1142 254.964C35.0147 256.812 39.281 257.758 43.5969 257.733L53.1541 262.11C53.5551 255.154 52.4433 248.194 49.8954 241.709C47.3475 235.225 43.424 229.369 38.3953 224.547C35.5474 221.87 32.3737 219.561 28.949 217.677C27.4946 223.555 25.3164 229.456 25.3164 229.456Z" fill="#F2F2F2"/>
<path d="M368.823 167.661L359.306 156.298C361.889 148.955 366.226 142.354 371.939 137.067C369.956 150.762 382.349 162.307 384.95 175.898C385.728 180.143 385.542 184.509 384.404 188.672C383.266 192.835 381.206 196.689 378.376 199.948L375.473 210.051C369.934 205.826 365.376 200.449 362.114 194.292C358.852 188.136 356.964 181.345 356.58 174.388C356.402 170.484 356.718 166.572 357.518 162.746C362.926 165.47 368.823 167.661 368.823 167.661Z" fill="#F2F2F2"/>
<path d="M391.567 160.028L388.116 145.614C393.703 140.194 400.529 136.219 408 134.036C400.118 145.409 406.061 161.269 402.327 174.593C401.131 178.74 399.017 182.565 396.142 185.783C393.266 189.002 389.704 191.533 385.717 193.187L378.614 200.936C375.54 194.683 373.859 187.838 373.685 180.873C373.511 173.908 374.85 166.988 377.608 160.59C379.191 157.016 381.218 153.655 383.64 150.588C387.266 155.438 391.567 160.028 391.567 160.028Z" fill="#F2F2F2"/>
<path d="M203.702 292.064L197.45 295.08L182.843 272.402L192.069 267.951L203.702 292.064Z" fill="#FFB6B6"/>
<path d="M204.406 200.79L198.85 209.173C198.85 209.173 165.813 231.051 167.193 239.189C167.675 242.036 169.771 248.024 172.468 254.698C173.296 256.749 177.19 260.825 178.102 262.933C182.709 273.58 185.003 282.098 187.215 283.238C189.672 284.511 189.421 283.501 190.926 285.823L199.644 282.554C199.644 282.554 201.002 279.506 201.676 277.996C202.35 276.487 201.293 275.736 201.293 275.736C201.293 275.736 200.013 276.418 200.235 274.985C200.458 273.552 200.381 273.1 199.852 272.724C199.324 272.349 197.278 268.509 197.278 268.509C195.41 265.768 193.909 262.795 192.813 259.664C192.327 258.291 192.375 254.999 191.723 253.671C190.35 250.872 189.864 248.806 187.645 247.351C187.645 247.351 215.578 233.78 218.199 227.289C220.82 220.799 218.123 199.395 218.123 199.395L204.406 200.79Z" fill="#2F2E41"/>
<path d="M207.016 295.358L185.877 303.591L185.773 303.323C184.923 301.141 184.975 298.711 185.917 296.567C186.859 294.423 188.614 292.741 190.796 291.891L190.797 291.891L193.517 287.458L201.862 287.581L203.708 286.863L207.016 295.358Z" fill="#2F2E41"/>
<path d="M256.331 259.048L266.546 258.275L265.273 285.22L258.352 285.743L256.331 259.048Z" fill="#FFB6B6"/>
<path d="M200.201 208.203C197.852 197.861 204.471 228.699 211.335 234.464C214.035 236.731 225.334 234.385 234.689 235.1C240.421 235.589 246.017 237.109 251.209 239.587C249.716 242.307 251.278 246.365 251.568 250.014C252.098 256.67 252.631 262.791 252.631 262.791C252.631 262.791 252.626 267.142 252.335 267.722C252.044 268.301 252.189 268.736 253.058 269.898C253.926 271.059 252.476 271.057 252.476 271.057C252.476 271.057 251.895 272.217 253.199 273.233C254.503 274.25 257.598 277.211 257.598 277.211L265.9 276.474C266.139 273.716 266.856 273.354 268.428 271.076C269.924 268.921 269.581 255.986 268.527 243.846C268.456 243.023 269.603 240.435 269.526 239.623C268.747 231.477 266.452 225.83 265.44 222.782C264.742 220.68 261.389 218.866 256.858 217.338C256.166 217.105 255.447 216.879 254.706 216.659C242.21 212.952 223.4 211.131 223.4 211.131L213.114 201.983L200.201 208.203Z" fill="#2F2E41"/>
<path d="M257.421 284.265L259.3 283.641L265.647 278.221L270.57 279.899L270.571 279.898C272.793 279.161 275.218 279.336 277.311 280.386C279.405 281.435 280.995 283.274 281.733 285.496L281.824 285.768L260.294 292.917L257.421 284.265Z" fill="#2F2E41"/>
<path d="M209.679 148.653L203.501 153.358L196.049 155.647C196.049 155.647 192.969 198.978 190.193 201.754C187.418 204.53 189.921 204.604 189.363 208.21C188.806 211.816 187.45 219.207 187.45 219.207C206.186 229.125 222.338 229.391 235.312 217.786C235.478 217.068 235.394 216.315 235.073 215.651C234.753 214.988 234.215 214.454 233.549 214.138C231.134 212.857 235.775 206.877 233.802 205.877C231.828 204.877 234.604 196.203 234.604 196.203L232.783 178.105L234.222 175.212L230.711 157.511L224.62 155.286L222.186 149.424L209.679 148.653Z" fill="#45ACDC"/>
<path d="M216.005 146.034C222.754 146.034 228.226 140.563 228.226 133.813C228.226 127.063 222.754 121.592 216.005 121.592C209.255 121.592 203.783 127.063 203.783 133.813C203.783 140.563 209.255 146.034 216.005 146.034Z" fill="#FFB6B6"/>
<path d="M205.809 225.667C205.837 224.884 205.692 224.105 205.386 223.384C205.08 222.664 204.62 222.019 204.038 221.495C203.456 220.971 202.766 220.582 202.017 220.354C201.268 220.126 200.478 220.064 199.702 220.175L190.995 203.25L186.144 211.869L195.156 226.62C195.428 227.91 196.163 229.056 197.222 229.84C198.282 230.624 199.593 230.992 200.906 230.875C202.219 230.757 203.443 230.162 204.347 229.202C205.25 228.243 205.771 226.985 205.809 225.667H205.809Z" fill="#FFB6B6"/>
<path d="M191.145 221.526L172.468 192.58L172.53 192.447C172.6 192.294 176.829 183.16 180.927 174.794C181.559 173.505 182.186 172.235 182.796 171.019C183.059 170.494 183.318 169.98 183.573 169.477C185.294 166.084 186.798 163.279 187.695 161.947C189.681 158.935 192.637 156.692 196.072 155.592L196.159 155.57L196.241 155.604C197.922 156.313 199.311 157.574 200.179 159.178C201.047 160.782 201.342 162.635 201.016 164.429C199.396 173.086 195.786 181.247 190.471 188.269L187.444 192.26L197.966 215.136L191.145 221.526Z" fill="#45ACDC"/>
<path d="M239.781 232.319V233.097C239.781 233.552 239.6 233.989 239.278 234.311C238.956 234.633 238.52 234.814 238.064 234.814H180.952C180.496 234.814 180.059 234.633 179.737 234.311C179.415 233.989 179.234 233.552 179.234 233.097V232.319C179.234 231.864 179.415 231.427 179.737 231.105C180.059 230.783 180.496 230.602 180.952 230.602H181.966C181.93 230.477 181.911 230.347 181.91 230.217V201.067C181.911 200.685 182.062 200.319 182.332 200.049C182.602 199.779 182.969 199.627 183.35 199.627H235.665C236.047 199.627 236.413 199.779 236.683 200.049C236.953 200.319 237.105 200.685 237.105 201.067V230.217C237.106 230.347 237.087 230.477 237.05 230.602H238.064C238.52 230.602 238.956 230.783 239.278 231.105C239.6 231.427 239.781 231.864 239.781 232.319Z" fill="#3F3D56"/>
<path d="M210.633 216.096C209.988 216.096 209.357 215.905 208.82 215.546C208.283 215.187 207.865 214.677 207.618 214.081C207.371 213.485 207.306 212.828 207.432 212.195C207.558 211.562 207.869 210.98 208.325 210.524C208.782 210.067 209.363 209.757 209.996 209.631C210.63 209.505 211.286 209.569 211.882 209.816C212.479 210.063 212.988 210.482 213.347 211.019C213.706 211.555 213.897 212.186 213.897 212.832C213.896 213.697 213.552 214.527 212.94 215.139C212.328 215.751 211.499 216.095 210.633 216.096ZM210.633 210.13C210.099 210.13 209.577 210.289 209.132 210.586C208.688 210.883 208.342 211.305 208.137 211.798C207.933 212.292 207.879 212.835 207.984 213.359C208.088 213.883 208.345 214.364 208.723 214.742C209.101 215.12 209.582 215.377 210.106 215.481C210.63 215.586 211.173 215.532 211.667 215.328C212.161 215.123 212.582 214.777 212.879 214.333C213.176 213.889 213.335 213.366 213.335 212.832C213.334 212.116 213.049 211.429 212.542 210.923C212.036 210.416 211.349 210.131 210.633 210.13Z" fill="white"/>
<path d="M209.508 214.689C211.155 214.689 212.491 213.354 212.491 211.707C212.491 210.059 211.155 208.724 209.508 208.724C207.861 208.724 206.525 210.059 206.525 211.707C206.525 213.354 207.861 214.689 209.508 214.689Z" fill="white"/>
<path d="M255.368 110.57C254.854 111.16 254.475 111.856 254.259 112.609C254.043 113.362 253.994 114.153 254.117 114.926C254.239 115.699 254.53 116.436 254.968 117.085C255.406 117.734 255.981 118.279 256.653 118.682L252.76 137.313L261.956 133.672L264.243 116.538C264.845 115.364 264.995 114.012 264.666 112.735C264.336 111.459 263.55 110.347 262.456 109.612C261.362 108.876 260.036 108.567 258.73 108.744C257.424 108.921 256.227 109.57 255.368 110.57L255.368 110.57Z" fill="#FFB6B6"/>
<path d="M264.153 123.02L260.434 157.268L260.302 157.332C260.193 157.386 255.482 159.697 249.698 162.449C248.723 162.913 248.863 164.924 247.843 165.405C247.141 165.736 245.286 164.535 244.576 164.867C238.254 167.823 231.862 170.697 229.315 171.476C225.876 172.566 222.167 172.447 218.805 171.138L218.724 171.101L218.682 171.022C217.823 169.413 217.538 167.559 217.874 165.766C218.21 163.974 219.147 162.349 220.53 161.16C227.239 155.455 235.183 151.388 243.733 149.28L248.599 148.086L254.829 123.69L264.153 123.02Z" fill="#45ACDC"/>
<path d="M243.33 110.214L244.73 122.914C244.827 123.231 245.024 123.508 245.29 123.705C245.557 123.902 245.88 124.008 246.211 124.008H252.662C252.994 124.008 253.316 123.902 253.583 123.705C253.85 123.508 254.046 123.231 254.144 122.914L255.303 113.18C255.638 113.344 256.006 113.426 256.379 113.42C256.751 113.414 257.117 113.319 257.446 113.144C257.775 112.969 258.057 112.718 258.271 112.412C258.484 112.107 258.621 111.755 258.672 111.386C258.722 111.016 258.685 110.641 258.562 110.289C258.439 109.937 258.234 109.62 257.964 109.362C257.695 109.105 257.368 108.916 257.011 108.809C256.654 108.703 256.276 108.683 255.91 108.751C255.765 108.58 255.585 108.443 255.382 108.349C255.179 108.255 254.958 108.207 254.734 108.207H244.812C244.57 108.207 244.33 108.264 244.114 108.374C243.897 108.483 243.709 108.642 243.565 108.837C243.421 109.032 243.325 109.258 243.284 109.497C243.243 109.736 243.259 109.982 243.33 110.214ZM255.506 112.521L256.215 110.214C256.298 109.947 256.306 109.664 256.239 109.393C256.269 109.391 256.298 109.384 256.329 109.384C256.774 109.384 257.202 109.561 257.517 109.876C257.832 110.192 258.01 110.619 258.01 111.065C258.01 111.511 257.832 111.938 257.517 112.254C257.202 112.569 256.774 112.746 256.329 112.746C256.039 112.744 255.756 112.667 255.506 112.521Z" fill="#3F3D56"/>
<path d="M225.959 123.314C224.954 120.39 219.951 118.362 211.84 118.08C203.729 117.798 201.671 127.356 201.671 127.356C196.257 131.749 207.453 143.508 207.995 143.085L207.751 140.875C207.348 137.216 205.634 134.36 207.814 130.546L209.907 130.57C212.609 131.09 215.312 131.61 218.015 132.129L214.815 129.312L214.905 129.172C216.267 129.881 217.748 130.331 219.273 130.499C220.993 130.6 222.873 129.915 223.697 128.402C223.917 127.986 224.051 127.531 224.092 127.062C226.412 127.988 227.472 130.848 227.472 130.848C227.472 130.848 226.964 126.238 225.959 123.314Z" fill="#2F2E41"/>
</svg>
