<svg width="564" height="269" viewBox="0 0 564 269" fill="none" xmlns="http://www.w3.org/2000/svg">
<path opacity="0.1" d="M558.903 223.081C556.205 228.286 552.408 232.842 547.775 236.435C547.117 236.962 546.445 237.47 545.763 237.968C544.843 238.613 543.902 239.247 542.937 239.87C535.443 244.626 526.666 247.877 518.098 250.247C515.763 250.893 513.42 251.499 511.068 252.067C509.085 252.547 507.099 252.996 505.113 253.412C504.358 253.576 503.603 253.731 502.848 253.895C502.094 254.06 501.228 254.22 500.429 254.379L499.283 254.597C477.114 258.685 454.656 259.464 432.033 258.438L430.959 258.385L429.241 258.298C424.648 258.059 420.05 257.755 415.448 257.384L413.706 257.243L412.937 257.18C410.356 256.964 407.776 256.727 405.196 256.469C401.796 256.147 398.392 255.79 394.982 255.4L394.542 255.352L394.184 255.308C382.016 253.939 369.819 252.294 357.608 250.605L355.88 250.364L352.779 249.933L350.167 249.57L349.393 249.464C345.27 248.886 341.148 248.315 337.026 247.751L336.359 247.659C328.618 246.599 320.833 245.579 313.073 244.65L312.062 244.529C308.885 244.151 305.709 243.792 302.535 243.45L300.116 243.193L296.899 242.869C287.982 241.984 279.07 241.278 270.178 240.837C265.901 240.624 261.614 240.463 257.318 240.353C253.77 240.273 250.222 240.226 246.674 240.213C241.862 240.191 237.04 240.218 232.208 240.295H231.115C224.308 240.407 217.486 240.6 210.659 240.832L209.43 240.871H209.024C194.51 241.384 179.995 242.066 165.519 242.555L161.983 242.671H161.47C156.438 242.832 151.411 242.956 146.389 243.043H145.059H145.015H143.4L141.155 243.072C138.823 243.095 136.496 243.108 134.173 243.111H131.324C122.799 243.087 114.308 242.898 105.87 242.458L104.932 242.405C88.5351 241.519 72.3226 239.691 56.4003 236.367C54.7521 236.022 53.1071 235.66 51.4654 235.283C40.463 232.816 29.6601 229.532 19.1467 225.457C14.1924 223.522 9.20917 221.286 5.44026 217.503C-4.11988 207.827 -0.529988 188.876 11.9088 183.365C21.6383 179.054 33.037 182.562 43.5018 180.617C44.1448 180.494 44.7798 180.333 45.4032 180.133C46.7336 179.704 48.0278 179.17 49.2737 178.537C49.6995 178.324 50.1252 178.096 50.5558 177.859C51.5234 177.332 52.4911 176.747 53.42 176.108C54.9386 175.098 56.3928 173.994 57.7743 172.803C58.3871 172.281 58.9838 171.739 59.5644 171.178C61.5736 169.29 63.3476 167.167 64.8477 164.854C65.3939 163.979 65.8788 163.068 66.2991 162.126C66.5265 161.642 66.7297 161.119 66.899 160.616C67.1519 159.888 67.3444 159.141 67.4748 158.381C68.0844 154.791 67.0974 151.288 63.6623 148.327C63.3546 148.065 63.0315 147.821 62.6947 147.597C62.0292 147.135 61.3269 146.729 60.5949 146.382C60.2998 146.242 59.995 146.107 59.6854 145.976C55.2633 144.113 49.5592 143.397 44.7501 142.106C43.2845 141.734 41.8536 141.237 40.4732 140.62C39.5975 140.214 38.7266 139.788 37.8702 139.343L37.6429 139.217C30.3305 135.447 23.8997 130.171 18.7741 123.735C17.5 122.109 16.3269 120.406 15.2617 118.636C14.9375 118.104 14.623 117.557 14.3231 117.01C5.82247 101.673 4.94677 82.0208 13.7909 66.9404C14.8653 65.1108 16.0614 63.3554 17.3711 61.6862C17.7968 61.1346 18.2371 60.5928 18.6919 60.0606C27.1102 50.1279 39.2056 43.3981 51.417 38.4148C67.8086 31.7285 84.9694 27.5048 102.459 24.7229C106.007 24.1584 109.555 23.652 113.103 23.2037C127.956 21.3072 142.983 20.3008 157.904 19.5364C171.861 18.83 185.878 18.3736 199.957 18.1672C204.728 18.1027 209.503 18.0753 214.283 18.085C225.053 18.085 235.822 18.293 246.592 18.7091C250.14 18.8445 253.688 19.0058 257.236 19.1929C266.335 19.6638 275.416 20.3089 284.479 21.1281C288.834 21.5216 293.178 21.9555 297.513 22.4296C330.529 26.0388 363.065 32.1591 394.479 41.6757C398.043 42.753 401.591 43.8819 405.123 45.0624C418.334 49.4118 431.315 54.4289 444.017 60.0944C445.217 60.6331 446.413 61.175 447.607 61.7201C455.538 65.3583 463.356 69.2788 471.062 73.4815C481.231 78.9541 491.026 85.0959 500.381 91.8664C504.032 94.5435 507.58 97.3368 511.025 100.246C517.114 105.382 522.794 110.985 528.011 117.005C528.476 117.544 528.936 118.086 529.39 118.631C531.751 121.466 533.993 124.403 536.115 127.441C546.469 142.323 553.417 159.344 558.545 176.732C563.069 191.904 566.078 208.94 558.903 223.081Z" fill="#2335DC"/>
<path opacity="0.1" d="M552.395 171.178H511.063V118.602H529.448C528.993 118.057 528.534 117.515 528.069 116.976H511.083V100.217C507.644 97.3142 504.096 94.521 500.439 91.8374V116.996H405.152V61.6862H447.635C446.439 61.1411 445.242 60.5992 444.045 60.0606H405.152V45.0285C401.604 43.8577 398.056 42.7288 394.508 41.6418V60.0267H258.518L258.194 59.7171L297.532 22.3764C293.197 21.899 288.853 21.4652 284.498 21.0749L257.255 46.9299V19.159C253.707 18.9719 250.159 18.8107 246.611 18.6752V48.7152L214.302 18.0511C209.525 18.0511 204.75 18.0785 199.976 18.1333L243.79 59.7171L243.466 60.0267H113.113V23.223C109.565 23.6714 106.017 24.1778 102.469 24.7422V60.0606H18.6917C18.2369 60.5928 17.7966 61.1346 17.3708 61.6862H102.459V116.976H14.3035C14.6034 117.523 14.9179 118.07 15.2421 118.602H102.459V171.178H59.5593C58.9788 171.739 58.3821 172.281 57.7692 172.803H102.459V226.603C106.007 227.11 109.555 227.639 113.103 228.19V172.803H246.601V240.213C250.149 240.213 253.697 240.26 257.245 240.353V172.803H394.498V255.327L394.938 255.376C398.345 255.756 401.749 256.113 405.152 256.445V172.803H500.41V254.355C501.222 254.205 502.035 254.045 502.829 253.871C503.622 253.697 504.338 253.566 505.093 253.387C507.08 252.965 509.065 252.517 511.049 252.042V172.803H552.715C552.608 172.262 552.502 171.72 552.395 171.178ZM246.601 171.178H113.113V118.602H246.601V171.178ZM246.601 116.991H113.113V61.6862H244.71L246.587 63.1666L246.601 116.991ZM394.498 171.178H257.255V118.602H394.498V171.178ZM394.498 116.991H257.255V61.6862H394.498V116.991ZM500.41 171.178H405.152V118.602H500.41V171.178Z" fill="#2335DC"/>
<path d="M143.781 245.409C143.781 245.462 143.743 245.515 143.728 245.568C143.728 245.515 143.762 245.462 143.786 245.409H143.781Z" fill="#EAECF0"/>
<path d="M146.307 243.092H144.977H144.933H143.317L141.072 243.121L140.825 240.571L140.598 238.152L139.543 227.116L139.509 226.778V226.628L139.214 223.522L143.733 221.828L144.285 226.333L144.323 226.666V226.705L145.441 235.849L145.785 238.655L145.983 240.286L146.152 241.684V241.732L146.307 243.092Z" fill="#EAECF0"/>
<path d="M162.529 245.404L162.582 245.564H162.224L162.171 245.404H162.529Z" fill="#3A3768"/>
<path d="M232.605 181.662C232.605 181.759 232.605 181.812 232.605 181.812V181.87C232.605 181.87 228.386 193.399 227.012 203.24C226.918 203.885 226.841 204.53 226.78 205.175C226.712 205.858 226.659 206.525 226.63 207.174C226.591 207.933 226.581 208.669 226.601 209.37C226.601 209.53 226.601 209.694 226.601 209.854C226.601 210.178 226.635 210.512 226.654 210.855C226.673 211.199 226.702 211.542 226.731 211.9C226.76 212.258 226.789 212.573 226.823 212.916C227.864 223.56 231.816 239.144 231.816 239.144C231.816 239.144 231.947 239.565 232.116 240.281H231.023C224.216 240.392 217.394 240.586 210.567 240.818L209.338 240.857H208.932C194.418 241.37 179.903 242.052 165.427 242.54L161.891 242.656H161.378C156.346 242.818 151.32 242.942 146.298 243.029H144.967C145.308 242.548 145.701 242.105 146.138 241.708C146.505 241.367 146.902 241.06 147.323 240.789C149.622 239.355 152.127 238.28 154.75 237.601C155.303 237.449 155.875 237.379 156.448 237.393L159.835 237.46H160.357L165.553 237.562L210.122 238.447H210.233L210.548 238.384C211.065 238.255 211.569 238.077 212.053 237.852C212.89 237.499 213.622 236.936 214.178 236.217C214.734 235.498 215.095 234.649 215.226 233.749C215.226 233.599 215.265 233.44 215.275 233.266C215.289 233.03 215.289 232.794 215.275 232.559C215.275 232.395 215.275 232.221 215.236 232.042C215.197 231.863 215.188 231.684 215.154 231.5C214.08 225.496 212.251 207.014 212.251 207.014V207.072C212.251 207.072 212.251 206.283 212.294 204.958C212.294 204.856 212.294 204.745 212.294 204.634V204.348C212.294 204.053 212.328 203.734 212.348 203.381C212.348 203.172 212.377 202.96 212.391 202.737C212.415 202.413 212.444 202.079 212.473 201.731C212.471 201.71 212.471 201.689 212.473 201.668C212.493 201.448 212.512 201.226 212.532 201C212.532 201 212.532 200.952 212.532 200.928C213.252 193.791 215.521 182.494 222.692 178.309C226.054 176.34 228.28 175.943 229.746 176.331C231.884 176.892 232.421 179.117 232.537 180.564C232.537 180.661 232.537 180.753 232.537 180.844C232.576 181.115 232.598 181.389 232.605 181.662V181.662Z" fill="#3A3768"/>
<path opacity="0.1" d="M143.781 245.409C143.781 245.462 143.743 245.515 143.728 245.568C143.728 245.515 143.762 245.462 143.786 245.409H143.781Z" fill="black"/>
<path opacity="0.1" d="M162.529 245.404L162.582 245.564H162.224L162.171 245.404H162.529Z" fill="black"/>
<path opacity="0.1" d="M232.605 181.662C232.605 181.759 232.605 181.812 232.605 181.812C232.605 181.812 229.126 191.319 227.467 200.434C227.351 201.079 227.244 201.703 227.147 202.306C227.099 202.616 227.056 202.926 227.012 203.235C226.918 203.88 226.841 204.526 226.78 205.171C226.712 205.853 226.659 206.52 226.63 207.169C226.591 207.928 226.581 208.664 226.601 209.365C226.601 209.525 226.601 209.689 226.601 209.849C226.601 210.173 226.635 210.507 226.654 210.851C226.673 211.194 226.702 211.542 226.731 211.896C226.76 212.249 226.789 212.568 226.823 212.912C226.857 213.255 226.891 213.584 226.93 213.923C227.085 215.292 227.278 216.729 227.501 218.19C229.015 228.045 231.816 239.086 231.816 239.086C231.816 239.086 231.957 239.531 232.126 240.276H231.032C224.225 240.387 217.403 240.581 210.577 240.813L209.348 240.852H208.942C194.427 241.365 179.913 242.047 165.437 242.535L161.9 242.652H161.388C156.356 242.813 151.329 242.937 146.307 243.024H144.977H144.933C145.285 242.525 145.69 242.065 146.143 241.655C146.509 241.309 146.908 240.997 147.333 240.726C149.634 239.296 152.138 238.221 154.759 237.538C155.313 237.39 155.885 237.322 156.458 237.334L159.844 237.402H160.367L165.577 237.504L210.18 238.384H210.258C210.258 238.384 210.388 238.384 210.606 238.312C211.128 238.182 211.636 237.999 212.12 237.765C212.939 237.414 213.655 236.861 214.203 236.158C214.75 235.455 215.11 234.624 215.25 233.745C215.25 233.595 215.289 233.435 215.299 233.261C215.313 233.026 215.313 232.79 215.299 232.554C215.299 232.39 215.299 232.216 215.26 232.037C215.221 231.858 215.212 231.645 215.178 231.442C214.104 225.438 212.275 206.956 212.275 206.956C212.275 206.956 212.275 206.167 212.319 204.842C212.319 204.74 212.319 204.629 212.319 204.517V204.232C212.319 203.937 212.352 203.618 212.372 203.264C212.372 203.056 212.401 202.843 212.415 202.621C212.44 202.297 212.469 201.963 212.498 201.615C212.495 201.594 212.495 201.573 212.498 201.552C212.517 201.332 212.536 201.11 212.556 200.884C212.556 200.884 212.556 200.836 212.556 200.811C212.643 199.921 212.759 198.963 212.904 197.962C213.91 190.956 216.426 181.807 222.696 178.125C225.972 176.19 228.163 175.784 229.634 176.118C231.898 176.635 232.436 178.967 232.537 180.438C232.537 180.535 232.537 180.627 232.537 180.719C232.581 181.031 232.603 181.346 232.605 181.662V181.662Z" fill="black"/>
<path d="M143.781 245.409C143.781 245.462 143.743 245.515 143.728 245.568C143.728 245.515 143.762 245.462 143.786 245.409H143.781Z" fill="#3A3768"/>
<path d="M162.529 245.404L162.582 245.564H162.224L162.171 245.404H162.529Z" fill="#3A3768"/>
<path d="M231.366 181.251C231.366 181.251 225.052 198.504 225.357 208.828C225.662 219.153 230.592 238.554 230.592 238.554C230.592 238.554 230.805 239.236 231.032 240.324C224.225 240.436 217.403 240.629 210.577 240.861L209.348 240.9H208.942C194.427 241.413 179.913 242.095 165.437 242.584L161.9 242.7H161.388C156.356 242.861 151.329 242.985 146.307 243.072H144.977H144.933H143.317C143.983 241.955 144.891 241.001 145.973 240.281L146.104 240.189C148.407 238.783 150.909 237.731 153.526 237.068C154.079 236.921 154.651 236.853 155.224 236.865L159.694 236.952H160.217L165.602 237.059L209.024 237.925C209.645 237.808 210.248 237.611 210.819 237.339C211.008 237.252 211.193 237.154 211.37 237.044V237.044C211.915 236.73 212.405 236.33 212.822 235.859C213.736 234.819 214.346 233.27 213.939 231.021C212.86 225.017 211.036 206.535 211.036 206.535C211.036 206.535 210.727 184.047 221.506 177.733C225.86 175.184 228.309 175.271 229.678 176.282C229.719 176.308 229.758 176.337 229.794 176.369C231.681 177.888 231.366 181.251 231.366 181.251Z" fill="#3A3768"/>
<path d="M57.6291 223.585L57.4549 225.389L56.4002 236.464C54.752 236.119 53.1071 235.757 51.4653 235.38L52.6991 225.312L53.1151 221.891L57.6291 223.585Z" fill="#EAECF0"/>
<path d="M26.6653 220.004L53.0137 163.925L159.148 172.203L168.93 220.004H26.6653Z" fill="#EFC6CD"/>
<path d="M26.6653 224.896V220.004H168.93V227.155L26.6653 224.896Z" fill="#D48A9B"/>
<path d="M66.783 211.813L130.433 213.11C130.574 213.113 130.714 213.082 130.841 213.02C130.967 212.958 131.077 212.867 131.161 212.754C131.245 212.64 131.301 212.508 131.323 212.369C131.345 212.23 131.334 212.087 131.29 211.954L121.367 185.189L78.4961 184.371L65.8153 210.333C65.7444 210.493 65.7148 210.669 65.7291 210.845C65.7434 211.02 65.8013 211.188 65.8974 211.336C65.9936 211.483 66.1249 211.603 66.2796 211.687C66.4342 211.77 66.6073 211.814 66.783 211.813Z" fill="#DFE6F5"/>
<path opacity="0.15" d="M66.783 211.813L130.433 213.11C130.574 213.113 130.714 213.082 130.841 213.02C130.967 212.958 131.077 212.867 131.161 212.754C131.245 212.64 131.301 212.508 131.323 212.369C131.345 212.23 131.334 212.087 131.29 211.954L121.367 185.189L78.4961 184.371L65.8153 210.333C65.7444 210.493 65.7148 210.669 65.7291 210.845C65.7434 211.02 65.8013 211.188 65.8974 211.336C65.9936 211.483 66.1249 211.603 66.2796 211.687C66.4342 211.77 66.6073 211.814 66.783 211.813Z" fill="black"/>
<path d="M66.2698 210.696L130.578 212.05L121.836 185.571C121.695 185.142 121.424 184.768 121.061 184.499C120.698 184.23 120.26 184.081 119.809 184.071L78.4812 183.288L66.2698 210.696Z" fill="#DFE6F5"/>
<path d="M71.5822 204.701L79.2894 187.744C79.4532 187.386 79.7163 187.083 80.0473 186.87C80.3783 186.657 80.7634 186.544 81.1569 186.544H100.311C100.854 186.544 101.374 186.759 101.758 187.143C102.142 187.527 102.358 188.048 102.358 188.59V206.912C102.357 207.19 102.301 207.464 102.191 207.719C102.082 207.974 101.922 208.204 101.721 208.395C101.52 208.586 101.283 208.735 101.023 208.832C100.763 208.929 100.486 208.972 100.209 208.959L73.3433 207.59C73.0103 207.573 72.6864 207.475 72.3998 207.304C72.1132 207.134 71.8727 206.896 71.6991 206.611C71.5255 206.326 71.4241 206.004 71.4037 205.671C71.3834 205.338 71.4446 205.005 71.5822 204.701V204.701Z" fill="#4C4C56"/>
<path d="M109.358 202.553L109.687 192.877C109.696 192.49 109.856 192.121 110.132 191.85C110.409 191.579 110.78 191.427 111.168 191.425H116.828C117.176 191.427 117.512 191.551 117.777 191.776C118.043 192.001 118.221 192.312 118.28 192.654L119.944 202.277C119.981 202.49 119.97 202.707 119.914 202.915C119.859 203.123 119.758 203.316 119.62 203.481C119.482 203.647 119.31 203.78 119.115 203.872C118.92 203.964 118.708 204.012 118.493 204.014L110.834 204.082C110.636 204.081 110.44 204.041 110.257 203.963C110.075 203.886 109.91 203.772 109.773 203.63C109.635 203.487 109.527 203.318 109.456 203.133C109.385 202.949 109.352 202.751 109.358 202.553Z" fill="#D1D9EC"/>
<path d="M34.3669 139.619L55.7079 137.838C56.0197 137.797 56.3365 137.858 56.6104 138.013C56.8844 138.167 57.1008 138.407 57.2271 138.695L77.4069 184.371L66.1437 209.655C66.4969 208.862 66.7582 215.035 64.2085 209.685L32.1365 142.778C31.7059 141.883 33.3654 139.744 34.3669 139.619Z" fill="#4C4C56"/>
<path opacity="0.15" d="M34.3669 139.619L55.7079 137.838C56.0197 137.797 56.3365 137.858 56.6104 138.013C56.8844 138.167 57.1008 138.407 57.2271 138.695L77.4069 184.371L66.1437 209.655C66.4969 208.862 66.7582 215.035 64.2085 209.685L32.1365 142.778C31.7059 141.883 33.3654 139.744 34.3669 139.619Z" fill="black"/>
<path d="M34.3673 139.619L56.7921 136.755C57.1039 136.713 57.4206 136.775 57.6946 136.929C57.9686 137.084 58.185 137.323 58.3112 137.611L78.4959 183.288L66.2845 210.696L33.2207 141.694C33.1194 141.485 33.0697 141.255 33.076 141.023C33.0822 140.79 33.1441 140.563 33.2564 140.359C33.3688 140.156 33.5283 139.983 33.7216 139.854C33.915 139.725 34.1364 139.644 34.3673 139.619Z" fill="#4C4C56"/>
<path d="M39.9649 142.831L56.1774 140.306C56.5016 140.255 56.8335 140.315 57.1191 140.476C57.4046 140.638 57.627 140.892 57.7498 141.196L74.7317 182.736C74.8012 182.906 74.8346 183.088 74.8296 183.271C74.8246 183.455 74.7814 183.635 74.7026 183.801L66.9278 200.047C66.8222 200.273 66.6543 200.464 66.4439 200.598C66.2336 200.732 65.9894 200.803 65.74 200.803C65.4906 200.803 65.2464 200.732 65.0361 200.598C64.8257 200.464 64.6578 200.273 64.5522 200.047L38.8666 144.892C38.7688 144.687 38.7204 144.462 38.7255 144.235C38.7305 144.008 38.7888 143.785 38.8956 143.585C39.0024 143.384 39.1549 143.212 39.3406 143.081C39.5263 142.95 39.7401 142.864 39.9649 142.831V142.831Z" fill="#2335DC"/>
<path d="M212.952 236.43C212.952 236.43 212.618 236.981 212.13 237.881L212.086 237.963C211.651 238.738 211.119 239.754 210.577 240.866L209.348 240.905H208.942C194.427 241.418 179.913 242.1 165.437 242.589L161.9 242.705H161.388C156.356 242.866 151.329 242.99 146.307 243.077H144.977H144.933H143.317L141.072 243.106C138.74 243.129 136.413 243.142 134.091 243.145H131.323C122.799 243.121 114.308 242.932 105.87 242.492L104.931 242.439C106.591 238.829 109.557 232.912 111.966 231.021C113.829 229.569 127.206 227.958 139.51 226.778L140.806 226.652H140.835L144.27 226.333C148.978 225.902 153.25 225.554 156.298 225.317L156.578 225.292L154.992 219.97L152.693 212.229L153.347 205.727L153.4 205.204H153.327C152.672 205.274 152.01 205.191 151.392 204.963L128.416 204.169H128L119.175 203.855C114.443 203.685 111.081 203.559 110.95 203.535C110.811 203.512 110.675 203.475 110.544 203.424C110.338 203.346 110.148 203.231 109.982 203.085C109.789 202.921 109.626 202.724 109.499 202.505H109.402H109.189L107.941 202.587L107.307 202.631C107.283 202.563 107.263 202.495 107.239 202.432C107.181 202.243 107.123 202.065 107.07 201.881H106.736L102.382 201.789H102.304C102.304 201.789 91.0702 202.645 85.2015 200.507C83.0485 199.723 81.6165 198.537 81.7277 196.762C81.7522 196.358 81.837 195.96 81.9793 195.581C80.0925 192.054 89.3091 185.62 96.334 187.395C98.2322 187.938 100.232 188.021 102.169 187.637C103.22 187.41 104.21 186.959 105.072 186.316C105.159 186.253 105.236 186.191 105.309 186.128C105.193 186.055 105.072 185.992 104.96 185.934C104.479 185.681 103.962 185.501 103.427 185.402L105.333 184.846H105.362C105.362 184.846 112.135 184.226 116.543 183.98H116.572C117.883 183.912 118.991 183.868 119.649 183.888C122.552 183.97 128.208 181.894 128.45 181.256C128.691 180.617 131.275 181.256 131.275 181.256L133.534 180.375C135.794 179.499 137.086 178.304 137.086 177.424C137.086 176.543 139.103 175.59 139.103 175.59C140.013 174.061 141.798 172.421 143.67 170.97C145.291 169.717 146.975 168.599 148.223 167.82C148.707 164.686 149.353 161.579 150.158 158.512C151.015 155.652 153.671 153.533 154.624 152.846L154.972 152.614C154.705 151.409 154.349 150.225 153.908 149.072C153.876 148.976 153.837 148.879 153.792 148.782C153.695 148.555 153.593 148.332 153.492 148.124L153.342 147.834C153.095 147.882 152.858 147.926 152.597 147.96C151.796 148.077 150.987 148.137 150.178 148.139C146.55 148.152 143.018 146.977 140.121 144.792C137.225 142.608 135.124 139.535 134.139 136.043C134.139 136.043 134.139 136.043 134.139 136.014C133.751 134.596 133.556 133.131 133.559 131.66C133.556 130.248 133.742 128.843 134.11 127.48C134.11 127.48 134.11 127.48 134.11 127.48C134.183 127.19 134.27 126.904 134.362 126.619C134.371 126.586 134.382 126.553 134.396 126.522C134.439 126.391 134.483 126.256 134.531 126.125C133.815 126.234 133.093 126.297 132.368 126.314H131.885C130.503 126.365 129.126 126.137 127.835 125.641V125.641C127.522 125.508 127.223 125.346 126.94 125.158C126.925 125.151 126.912 125.141 126.901 125.129C126.534 124.914 126.198 124.648 125.905 124.34C126.443 123.928 126.894 123.412 127.232 122.824C127.57 122.237 127.788 121.587 127.874 120.915C128.004 119.87 127.83 118.704 128.454 117.852C128.774 117.467 129.157 117.14 129.587 116.884C132.16 115.128 134.202 112.719 136.529 110.643C138.856 108.568 141.672 106.773 144.802 106.676C149.002 106.545 152.698 109.468 156.859 110.019C158.136 110.188 159.447 110.13 160.696 110.45C162.094 110.887 163.411 111.554 164.59 112.424C165.656 113.03 166.598 113.831 167.367 114.785C167.902 115.612 168.285 116.528 168.5 117.489C169.038 119.515 169.363 121.593 169.467 123.687C169.578 125.878 169.467 128.085 169.699 130.262C169.864 132.153 170.503 133.972 171.557 135.55H171.62C171.804 135.808 172.004 136.054 172.22 136.285C171.809 136.416 171.398 136.532 170.977 136.634C170.277 136.813 169.568 136.953 168.853 137.055C168.525 137.109 168.193 137.136 167.861 137.137C167.63 137.143 167.4 137.122 167.174 137.074L167.6 137.359L168.78 138.153L169.225 138.448L170.12 139.043C170.324 138.448 170.604 138.288 170.928 138.327C171.586 137.708 172.568 139.048 172.568 139.048C173.144 140.151 174.692 141.249 176.062 142.062C176.866 142.536 177.695 142.969 178.544 143.359C196.624 154.133 195.477 170.254 196.541 171.531C197.606 172.808 197.674 177.434 197.674 177.434C197.674 177.434 200.339 193.153 201.544 194.512C202.749 195.872 201.621 196.346 202.671 197.865C203.721 199.384 203.479 203.448 203.479 203.448C203.479 203.448 204.205 213.023 206.789 215.098C209.106 216.961 212.202 232.632 212.817 235.835L212.952 236.43Z" fill="url(#paint0_linear_302_482)"/>
<path d="M106.983 185.997C106.983 185.997 104.472 189.95 97.3598 188.131C90.2477 186.312 80.8376 193.191 83.5227 196.588C86.2079 199.984 103.524 195.62 103.524 195.62L110.166 194.275L109.731 188.745L106.983 185.997Z" fill="#D38884"/>
<path opacity="0.1" d="M106.983 185.997C106.983 185.997 104.472 189.95 97.3598 188.131C90.2477 186.312 80.8376 193.191 83.5227 196.588C86.2079 199.984 103.524 195.62 103.524 195.62L110.166 194.275L109.731 188.745L106.983 185.997Z" fill="black"/>
<path d="M109.296 185.784L106.214 185.625L104.317 186.176C104.317 186.176 110.326 187.047 108.671 195.19L115.15 194.798L109.296 185.784Z" fill="#A36468"/>
<path opacity="0.1" d="M109.296 185.784L106.214 185.625L104.317 186.176C104.317 186.176 110.326 187.047 108.671 195.19L115.15 194.798L109.296 185.784Z" fill="black"/>
<path d="M150.091 167.574C150.091 167.574 141.634 172.412 139.258 176.432C139.258 176.432 137.284 177.4 137.284 178.251C137.284 179.103 136.016 180.303 133.805 181.154L131.59 182.025C131.59 182.025 129.059 181.391 128.822 182.025C128.585 182.659 123.055 184.71 120.205 184.633C117.356 184.555 106.214 185.6 106.214 185.6C108.254 186.527 109.92 188.118 110.94 190.113C111.959 192.109 112.271 194.392 111.826 196.588L138.155 195.485L148.112 193.269L153.966 187.42L150.091 167.574Z" fill="#444053"/>
<path opacity="0.1" d="M150.091 167.574C150.091 167.574 141.634 172.412 139.258 176.432C139.258 176.432 137.284 177.4 137.284 178.251C137.284 179.103 136.016 180.303 133.805 181.154L131.59 182.025C131.59 182.025 129.059 181.391 128.822 182.025C128.585 182.659 123.055 184.71 120.205 184.633C117.356 184.555 106.214 185.6 106.214 185.6C108.254 186.527 109.92 188.118 110.94 190.113C111.959 192.109 112.271 194.392 111.826 196.588L138.155 195.485L148.112 193.269L153.966 187.42L150.091 167.574Z" fill="black"/>
<path d="M111.294 202.553L107.568 202.48L103.214 202.389C103.214 202.389 82.6518 203.971 83.0534 197.396C83.455 190.821 99.2708 188.513 101.472 190.4C103.141 191.827 107.002 192.978 108.763 193.448C109.324 193.598 109.668 193.68 109.668 193.68L111.294 202.553Z" fill="#D38884"/>
<path opacity="0.1" d="M111.293 202.553L107.568 202.481C106.083 197.376 107.805 194.565 108.782 193.462C109.344 193.612 109.687 193.695 109.687 193.695L111.293 202.553Z" fill="black"/>
<path d="M113.805 202.834L109.934 203.105L108.096 203.23C105.565 195.799 109.653 192.872 109.653 192.872H110.863L112.842 193.109L113.805 202.834Z" fill="#A36468"/>
<path d="M160.686 153.504L156.099 162.213C156.099 162.213 155.398 153.393 153.356 149.237C152.834 148.173 152.224 147.418 151.513 147.19C149.578 146.581 160.705 134.384 160.705 134.384C161.078 134.461 163.207 135.835 165.814 137.611C168.683 139.546 172.138 141.907 174.46 143.417C178.868 146.228 160.686 153.504 160.686 153.504Z" fill="#D38884"/>
<path d="M154.803 153.669C154.803 153.669 151.116 156.034 150.09 159.513C149.065 162.992 148.112 169.238 148.112 169.238C148.112 169.238 149.776 184.178 150.642 184.889C151.508 185.6 154.803 200.54 154.803 200.54L157.996 198.407L153.806 179.591C153.806 179.591 156.593 155.415 154.803 153.669Z" fill="#444053"/>
<path opacity="0.1" d="M154.803 153.669C154.803 153.669 151.116 156.034 150.09 159.513C149.065 162.992 148.112 169.238 148.112 169.238C148.112 169.238 149.776 184.178 150.642 184.889C151.508 185.6 154.803 200.54 154.803 200.54L157.996 198.407L153.806 179.591C153.806 179.591 156.593 155.415 154.803 153.669Z" fill="black"/>
<path d="M170.846 186.999H152.417L155.403 157.926H170.846V186.999Z" fill="#A36468"/>
<path d="M128.15 245.409H128.372L127.956 245.569L128.15 245.409Z" fill="#67647E"/>
<path d="M162.819 232.167L159.215 233.551L158.731 233.73L145.755 238.718L140.806 240.62L134.071 243.208H131.323C122.798 243.184 114.308 242.995 105.87 242.555C107.505 238.97 110.364 233.232 112.696 231.379C114.516 229.927 127.53 228.36 139.543 227.179C141.043 227.034 142.524 226.894 143.965 226.763L144.309 226.729C149.079 226.294 153.395 225.941 156.404 225.699L156.888 225.66L160.671 225.37L161.068 224.973L161.552 227.044L161.953 228.699L162.819 232.167Z" fill="#67647E"/>
<path opacity="0.1" d="M128.15 245.409H128.372L127.956 245.569L128.15 245.409Z" fill="black"/>
<path opacity="0.1" d="M162.819 232.167L159.215 233.551L158.731 233.73L145.755 238.718L140.806 240.62L134.071 243.208H131.323C122.798 243.184 114.308 242.995 105.87 242.555C107.505 238.97 110.364 233.232 112.696 231.379C114.516 229.927 127.53 228.36 139.543 227.179C141.043 227.034 142.524 226.894 143.965 226.763L144.309 226.729C149.079 226.294 153.395 225.941 156.404 225.699L156.888 225.66L160.671 225.37L161.068 224.973L161.552 227.044L161.953 228.699L162.819 232.167Z" fill="black"/>
<path d="M128.15 245.409H128.372L127.956 245.569L128.15 245.409Z" fill="#67647E"/>
<path d="M143.781 245.409C143.781 245.462 143.743 245.515 143.728 245.568C143.728 245.515 143.762 245.462 143.786 245.409H143.781Z" fill="#67647E"/>
<path d="M162.582 245.564H162.224L162.171 245.404H162.529L162.582 245.564Z" fill="#67647E"/>
<path d="M165.902 227.111L165.602 237.068V237.605V237.659L165.452 242.589L161.915 242.705H161.402C156.37 242.866 151.344 242.99 146.322 243.077H144.991H144.948H143.332L141.087 243.106C138.755 243.129 136.428 243.142 134.105 243.145H131.323C133.839 241.587 137.095 239.87 140.598 238.152C142.171 237.378 143.801 236.609 145.436 235.849C149.791 233.827 154.198 231.916 157.793 230.392L158.253 230.198C159.646 229.608 160.909 229.081 161.988 228.636C164.32 227.668 165.8 227.087 165.902 227.049V227.111Z" fill="#67647E"/>
<path opacity="0.1" d="M133.588 186.191C134.492 188.077 135.426 190.003 136.921 191.474C137.158 191.706 137.569 191.919 137.782 191.662C137.849 191.555 137.881 191.43 137.874 191.304C137.828 190.415 137.526 189.558 137.003 188.837C136.52 188.092 135.949 187.415 135.518 186.64C135.087 185.866 134.594 184.376 133.626 184.173C132.383 183.912 133.312 185.62 133.588 186.191Z" fill="black"/>
<path opacity="0.1" d="M165.795 137.596C165.727 137.838 165.655 138.08 165.577 138.312C164.685 141.048 163.084 143.498 160.937 145.414C158.791 147.331 156.175 148.644 153.356 149.222C152.834 148.158 152.224 147.403 151.513 147.176C149.578 146.566 160.705 134.369 160.705 134.369C161.059 134.447 163.187 135.845 165.795 137.596Z" fill="black"/>
<path d="M166.375 132.947C166.375 136.168 165.42 139.316 163.631 141.995C161.842 144.673 159.298 146.76 156.322 147.992C153.347 149.225 150.072 149.548 146.913 148.919C143.754 148.291 140.853 146.74 138.575 144.462C136.297 142.185 134.746 139.283 134.118 136.124C133.49 132.965 133.812 129.691 135.045 126.715C136.277 123.739 138.365 121.196 141.043 119.406C143.721 117.617 146.869 116.662 150.09 116.662C152.23 116.657 154.35 117.076 156.328 117.892C158.305 118.709 160.103 119.909 161.616 121.422C163.129 122.935 164.328 124.732 165.145 126.71C165.962 128.687 166.38 130.807 166.375 132.947V132.947Z" fill="#D38884"/>
<path d="M156.337 157.138C156.337 157.138 152.95 161.25 153.492 163.94H157.599L160.604 160.553L156.337 157.138Z" fill="#67647E"/>
<path opacity="0.1" d="M168.384 139.773L155.466 157.534C155.466 157.534 158.785 162.28 160.367 162.517C161.949 162.755 170.972 141.51 170.972 141.51L168.384 139.773Z" fill="black"/>
<path d="M168.548 139.454L155.625 157.239C155.625 157.239 158.944 161.981 160.526 162.218C162.108 162.455 171.131 141.215 171.131 141.215L168.548 139.454Z" fill="#A36468"/>
<path d="M153.966 162.203C153.966 162.203 153.332 172.16 152.698 174.139C152.064 176.118 152.698 194.294 152.698 194.294L158.63 191.846L157.599 163.94L153.966 162.203Z" fill="#67647E"/>
<path opacity="0.1" d="M162.529 245.404L162.582 245.564H162.224L162.171 245.404H162.529Z" fill="black"/>
<path opacity="0.1" d="M211.123 236.831C211.123 236.831 211.012 237.015 210.828 237.315C210.644 237.615 210.446 237.988 210.189 238.462C210.176 238.48 210.165 238.499 210.156 238.52C209.798 239.183 209.372 239.995 208.941 240.881C194.427 241.394 179.912 242.076 165.437 242.564L161.9 242.681H161.387L159.868 237.552V237.499L159.708 236.957L158.741 233.735L157.773 230.459L156.772 226.966L156.404 225.699L156.307 225.379L154.73 220.009L152.592 212.718L153.283 205.761L153.332 205.233L153.956 199.002L154.043 197.154L154.091 196.186V195.91L154.198 193.665L154.517 186.989L154.682 183.573L154.711 183.055L155.04 176.2L155.973 173.399L156.457 172.005L157.531 168.768L157.764 167.97C158.102 166.756 158.784 164.356 159.423 162.048L159.481 161.85L159.525 161.7L159.979 160.06L160.545 157.955C160.758 157.147 160.899 156.572 160.932 156.373C160.986 156.03 161.9 154.511 163.1 152.503C165.519 148.502 169.157 142.614 169.573 140.64C169.575 140.624 169.575 140.607 169.573 140.591C169.598 140.471 169.632 140.353 169.675 140.238C169.873 139.648 170.159 139.488 170.459 139.527C170.595 139.549 170.726 139.6 170.841 139.677C171.133 139.873 171.388 140.119 171.596 140.403C172.162 141.491 173.676 142.58 175.016 143.388L175.278 143.538L175.432 143.63C176.545 144.263 177.445 144.67 177.445 144.67C195.153 155.343 194.049 171.313 195.075 172.576C196.101 173.839 196.183 178.43 196.183 178.43C196.183 178.43 198.791 194.004 199.976 195.364C201.162 196.723 200.058 197.183 201.084 198.687C202.11 200.192 201.873 204.169 201.873 204.169C201.873 204.169 202.584 213.652 205.114 215.708C207.645 217.764 211.123 236.831 211.123 236.831Z" fill="black"/>
<path d="M211.597 236.676L211.385 237.044C211.215 237.344 210.944 237.818 210.62 238.413L210.586 238.481C210.219 239.163 209.783 239.991 209.353 240.9H208.946C194.432 241.413 179.917 242.095 165.442 242.584L161.905 242.7L160.391 237.552V237.499L160.231 236.957L159.229 233.57L158.262 230.28L157.294 226.995L156.912 225.679L155.257 220.028L153.071 212.583L153.675 206.53L153.758 205.722L154.425 198.847L154.682 193.486L154.996 187.008L155.078 185.31L155.17 183.346L155.209 182.518L155.523 176.045L156.457 173.249L156.859 172.044L157.797 169.214L157.996 168.614C157.996 168.614 158.9 165.435 159.776 162.285C159.81 162.169 159.844 162.053 159.873 161.937C159.95 161.666 160.023 161.395 160.1 161.129C160.178 160.858 160.25 160.592 160.318 160.326C160.565 159.445 160.802 158.623 160.966 157.946C161.203 157.06 161.363 156.417 161.397 156.209C161.45 155.865 162.365 154.302 163.608 152.27C165.896 148.487 169.235 143.078 169.941 140.833C169.979 140.717 170.012 140.599 170.038 140.48V140.48C170.081 140.123 170.227 139.787 170.459 139.512C171.107 138.888 172.07 140.228 172.07 140.228C172.636 141.317 174.15 142.41 175.49 143.213C176.273 143.684 177.081 144.112 177.91 144.496C195.617 155.168 194.514 171.139 195.54 172.407C196.565 173.674 196.648 178.256 196.648 178.256C196.648 178.256 199.255 193.83 200.441 195.189C201.626 196.549 200.523 197.009 201.549 198.508C202.574 200.008 202.337 204.043 202.337 204.043C202.337 204.043 203.048 213.531 205.579 215.587C208.109 217.643 211.597 236.676 211.597 236.676Z" fill="#444053"/>
<path opacity="0.1" d="M175.491 143.523C173.754 146.049 170.923 150.49 170.169 153.683C170.169 153.683 167.401 156.533 166.371 156.373C165.34 156.214 167.338 158.507 167.338 158.507L156.467 173.573L158.01 168.943C158.01 168.943 161.252 157.559 161.397 156.533C161.542 155.507 169.414 143.755 170.038 140.799C170.522 138.433 172.07 140.562 172.07 140.562C172.631 141.627 174.146 142.725 175.491 143.523Z" fill="black"/>
<path d="M175.491 143.209C173.754 145.729 170.923 150.175 170.169 153.344C170.169 153.344 167.401 156.189 166.371 156.034C165.34 155.88 167.338 158.168 167.338 158.168L156.467 173.234L158.01 168.604C158.01 168.604 161.252 157.22 161.397 156.189C161.542 155.159 169.414 143.417 170.038 140.46C170.522 138.09 172.07 140.223 172.07 140.223C172.631 141.312 174.146 142.401 175.491 143.209Z" fill="#444053"/>
<path opacity="0.1" d="M190.092 174.424C190.174 177.879 185.114 182.596 184.876 182.871C184.639 183.147 169.143 195.934 169.143 195.934L158.015 204.469C156.761 205.503 155.261 206.196 153.661 206.482L154.42 198.847L155.17 183.365C156.907 181.43 158.591 179.398 158.63 178.749C158.707 177.409 161.533 175.982 161.533 175.982C161.533 175.982 163.511 174.323 163.192 173.374C162.873 172.426 164.242 167.883 164.242 167.883C164.953 154.994 178.234 153.731 178.234 153.731C178.234 153.731 184.639 156.262 189.144 158.947C193.648 161.632 190.015 170.975 190.092 174.424Z" fill="black"/>
<path opacity="0.1" d="M113.805 202.834L109.934 203.105C108.299 200.323 110.549 192.872 110.549 192.872H110.863L112.842 193.109L113.805 202.834Z" fill="black"/>
<path d="M178.234 152.948C178.234 152.948 164.953 154.215 164.242 167.099C164.242 167.099 162.897 171.608 163.212 172.557C163.526 173.505 161.552 175.164 161.552 175.164C161.552 175.164 158.707 176.587 158.649 177.932C158.591 179.277 151.392 186.611 151.392 186.611C151.392 186.611 148.392 190.027 141.435 190.385C134.478 190.743 131.236 192.872 131.236 192.872C131.236 192.872 127.85 190.501 125.382 191.213C122.915 191.924 110.916 192.872 110.916 192.872C110.916 192.872 107.728 203.438 111.705 204.101C112.189 204.179 151.329 205.524 151.329 205.524C151.329 205.524 154.005 206.786 158.035 203.705C162.065 200.623 169.162 195.165 169.162 195.165C169.162 195.165 184.644 182.359 184.896 182.102C185.148 181.846 190.218 177.105 190.112 173.655C190.005 170.205 193.672 160.873 189.144 158.173C184.615 155.473 178.234 152.948 178.234 152.948Z" fill="#444053"/>
<path opacity="0.1" d="M166.375 132.947C166.377 134.661 166.108 136.364 165.577 137.993C165.357 137.733 165.156 137.456 164.977 137.166C164.222 136.005 163.466 134.844 162.708 133.682C162.119 132.637 161.336 131.714 160.4 130.963C159.433 130.276 158.059 129.996 157.014 130.605C156.094 131.147 155.644 132.255 155.562 133.32C155.534 134.388 155.561 135.457 155.644 136.522C155.683 136.93 155.579 137.339 155.349 137.679C155.006 137.986 154.562 138.158 154.101 138.162L152.65 138.361C152.518 138.407 152.379 138.426 152.241 138.418C152.102 138.409 151.966 138.373 151.842 138.311C151.718 138.25 151.607 138.163 151.516 138.058C151.425 137.953 151.357 137.83 151.314 137.698C150.11 135.516 149.277 132.807 147.018 131.757C145.625 131.108 143.786 131.152 142.891 129.904C142.281 129.052 142.364 127.896 142.543 126.861C142.74 125.693 143.023 124.542 143.389 123.416C143.646 122.622 144.217 121.04 142.949 120.881C142.088 120.769 140.898 121.684 140.462 122.332C140.027 122.98 139.92 123.846 139.611 124.587C139.017 125.861 137.95 126.852 136.635 127.349C135.977 127.62 135.288 127.807 134.584 127.906C135.774 124.21 138.245 121.062 141.551 119.027C144.858 116.993 148.782 116.206 152.617 116.81C156.452 117.413 159.945 119.367 162.467 122.319C164.989 125.271 166.373 129.026 166.37 132.908L166.375 132.947Z" fill="black"/>
<path d="M140.467 121.921C140.027 122.593 139.925 123.43 139.616 124.171C139.023 125.443 137.957 126.434 136.645 126.933C135.341 127.421 133.959 127.667 132.567 127.659C130.312 127.727 127.796 127.383 126.345 125.656C126.874 125.246 127.317 124.736 127.649 124.155C127.981 123.574 128.196 122.933 128.28 122.269C128.406 121.234 128.236 120.078 128.851 119.231C129.164 118.86 129.537 118.545 129.954 118.297C132.479 116.555 134.473 114.165 136.756 112.114C139.04 110.063 141.793 108.277 144.86 108.181C148.968 108.055 152.601 110.948 156.665 111.495C157.914 111.664 159.2 111.606 160.42 111.92C161.792 112.347 163.082 113.001 164.237 113.856C165.282 114.461 166.205 115.255 166.961 116.197C167.482 117.02 167.857 117.927 168.069 118.878C168.604 120.885 168.928 122.943 169.036 125.017C169.148 127.185 169.036 129.372 169.269 131.529C169.501 133.687 170.188 135.884 171.663 137.48C170.587 137.82 169.485 138.074 168.369 138.24C167.67 138.406 166.938 138.348 166.274 138.075C165.736 137.734 165.296 137.259 164.997 136.697L162.727 133.213C162.138 132.168 161.355 131.245 160.42 130.494C159.452 129.807 158.078 129.526 157.033 130.136C156.114 130.678 155.669 131.786 155.582 132.85C155.553 133.919 155.581 134.988 155.664 136.053C155.703 136.461 155.598 136.87 155.369 137.209C155.024 137.518 154.578 137.69 154.116 137.693L152.664 137.892C152.533 137.938 152.394 137.957 152.255 137.949C152.117 137.94 151.981 137.904 151.857 137.842C151.732 137.78 151.621 137.694 151.531 137.589C151.44 137.483 151.371 137.361 151.329 137.229C150.124 135.042 149.292 132.337 147.033 131.288C145.639 130.639 143.801 130.683 142.906 129.435C142.296 128.583 142.378 127.427 142.557 126.391C142.754 125.224 143.037 124.072 143.404 122.947C143.66 122.153 144.231 120.571 142.964 120.407C142.093 120.315 140.903 121.229 140.467 121.921Z" fill="#444053"/>
<path opacity="0.1" d="M177.305 160.176C178.529 160.007 179.816 159.895 180.963 160.365C177.978 159.141 173.12 159.61 170.401 161.294C170.648 161.86 176.357 160.307 177.305 160.176Z" fill="black"/>
<path opacity="0.1" d="M178.732 164.143C181.708 164.341 184.78 164.758 187.601 163.79C185.24 162.977 182.641 163.49 180.155 163.243C178.171 163.045 176.154 162.358 174.218 162.861C173.41 163.069 170.435 164.438 170.638 165.44C173.179 164.315 175.968 163.869 178.732 164.143V164.143Z" fill="black"/>
<path opacity="0.1" d="M170.851 170.646C171.474 170.58 172.104 170.646 172.699 170.839C174.931 171.364 177.219 171.616 179.511 171.589C181.263 171.589 183.15 171.323 184.427 170.138L170.851 170.646Z" fill="black"/>
<path opacity="0.1" d="M161.267 185.784C163.347 186.74 165.635 187.156 167.919 186.994C170.193 186.826 172.441 186.394 174.615 185.707C175.583 185.421 176.637 185.063 177.203 184.222L161.267 185.784Z" fill="black"/>
<path opacity="0.1" d="M182.685 187.913C187.212 190.502 192.253 192.063 197.451 192.485C194.829 191.433 192.187 190.438 189.526 189.5C186.804 188.546 184.015 187.799 181.18 187.265C181.719 187.381 182.23 187.601 182.685 187.913Z" fill="black"/>
<path opacity="0.1" d="M189.996 185.141C190.905 185.292 191.828 185.343 192.749 185.291C193.232 185.291 193.808 185.223 194.094 184.807C192.018 184.894 189.971 184.362 187.944 183.902C187.369 183.767 186.333 183.447 185.849 183.791C186.769 184.449 188.834 184.909 189.996 185.141Z" fill="black"/>
<path opacity="0.1" d="M202.473 228.36C203.561 230.227 204.664 232.114 206.169 233.682C207.038 234.537 207.965 235.332 208.941 236.062C207.146 231.485 205.322 226.87 202.448 222.869C201.723 221.862 200.639 220.42 199.318 220.237C198.941 221.354 199.894 223.333 200.353 224.383C200.984 225.747 201.692 227.075 202.473 228.36V228.36Z" fill="black"/>
<path opacity="0.1" d="M149.578 194.135C149.495 194.909 149.432 195.765 149.882 196.399C150.105 196.712 150.43 196.936 150.802 197.033C150.569 196.975 150.318 194.701 150.26 194.391C150.153 193.757 150.26 192.572 149.81 192.103C149.694 192.77 149.65 193.457 149.578 194.135Z" fill="black"/>
<path opacity="0.1" d="M152.093 193.245C152.253 193.926 152.55 194.568 152.966 195.131C153.382 195.694 153.908 196.167 154.512 196.52C153.666 195.475 153.39 194.101 152.655 192.954C152.418 192.587 152.142 192.059 151.687 191.987C151.802 192.412 151.937 192.832 152.093 193.245V193.245Z" fill="black"/>
<path opacity="0.1" d="M149.965 179.311C149.251 179.735 148.457 180.008 147.633 180.112C146.809 180.216 145.972 180.149 145.175 179.916C144.812 179.809 143.966 179.432 144.169 178.9C144.372 178.367 145.354 178.735 145.756 178.783L147.86 179.05C148.247 179.098 149.65 179.495 149.965 179.311Z" fill="black"/>
<path opacity="0.1" d="M142.843 182.756C143.835 182.63 144.725 183.317 145.654 183.689C146.682 184.032 147.765 184.176 148.847 184.115C149.389 184.115 150.003 184.072 150.337 183.631C147.816 183.056 145.46 182.422 142.843 182.756Z" fill="black"/>
<path d="M154.803 153.664H154.963L156.148 157.926L154.803 159.358V153.664Z" fill="#A36468"/>
<g opacity="0.1">
<path opacity="0.1" d="M128.59 119.87C128.443 120.561 128.37 121.267 128.372 121.974C128.432 121.752 128.476 121.526 128.503 121.297C128.561 120.832 128.556 120.344 128.59 119.87Z" fill="black"/>
<path opacity="0.1" d="M143.022 120.421C143.139 120.428 143.254 120.459 143.359 120.512C143.463 120.566 143.556 120.64 143.63 120.731C143.705 120.822 143.76 120.927 143.792 121.041C143.824 121.154 143.832 121.272 143.815 121.389C144.043 120.586 144.169 119.599 143.182 119.453C142.32 119.347 141.13 120.261 140.695 120.929C140.259 121.597 140.153 122.443 139.843 123.184C139.252 124.457 138.186 125.449 136.873 125.946C135.569 126.434 134.186 126.68 132.794 126.672C130.743 126.735 128.474 126.449 126.988 125.095C126.811 125.284 126.618 125.459 126.413 125.617C127.864 127.344 130.38 127.688 132.639 127.62C134.03 127.628 135.411 127.382 136.713 126.895C138.026 126.396 139.094 125.405 139.688 124.132C139.998 123.392 140.095 122.555 140.535 121.882C140.975 121.21 142.161 120.315 143.022 120.421Z" fill="black"/>
<path opacity="0.1" d="M168.577 137.287C167.879 137.452 167.146 137.395 166.482 137.122C165.946 136.779 165.506 136.304 165.205 135.743C164.45 134.582 163.694 133.421 162.936 132.26C162.35 131.214 161.568 130.291 160.633 129.541C159.665 128.849 158.286 128.573 157.246 129.183C156.322 129.725 155.877 130.833 155.771 131.897C155.771 131.941 155.771 131.984 155.771 132.028C155.946 131.247 156.42 130.566 157.091 130.131C158.122 129.522 159.51 129.802 160.478 130.489C161.412 131.242 162.195 132.164 162.786 133.208C163.541 134.369 164.297 135.531 165.055 136.692C165.353 137.255 165.793 137.73 166.332 138.071C166.994 138.343 167.726 138.401 168.422 138.235C169.54 138.069 170.644 137.815 171.722 137.475C171.509 137.245 171.312 137.001 171.132 136.745C170.292 136.979 169.439 137.16 168.577 137.287Z" fill="black"/>
<path opacity="0.1" d="M155.567 136.256C155.222 136.561 154.779 136.733 154.319 136.74L152.868 136.939C152.737 136.985 152.598 137.004 152.459 136.995C152.32 136.987 152.185 136.951 152.06 136.889C151.936 136.827 151.825 136.741 151.734 136.636C151.643 136.53 151.575 136.408 151.532 136.276C150.328 134.089 149.495 131.384 147.236 130.334C145.843 129.686 144.009 129.73 143.114 128.481C142.66 127.72 142.506 126.815 142.683 125.946C142.659 126.096 142.625 126.241 142.601 126.387C142.427 127.422 142.34 128.578 142.954 129.43C143.849 130.678 145.688 130.634 147.076 131.283C149.341 132.333 150.173 135.037 151.377 137.224C151.487 137.499 151.682 137.731 151.934 137.887C152.185 137.971 152.455 137.982 152.713 137.921L154.164 137.722C154.625 137.718 155.069 137.546 155.412 137.238C155.644 136.9 155.749 136.49 155.708 136.082V136.082C155.665 136.144 155.618 136.202 155.567 136.256Z" fill="black"/>
</g>
<path d="M355.813 250.339L352.711 249.909V204.126L353.345 204.319L355.28 204.914V206.438V207.585V209.322L355.305 211.31L355.348 215.403V215.815V216.361V217.522V218.224V219.922V220.987L355.58 241.602V242.153L355.663 249.411V249.522L355.813 250.339Z" fill="#EAECF0"/>
<path d="M357.554 250.581L355.827 250.339V249.512V249.401L355.745 242.144V241.592L355.513 220.977V219.912V218.214V217.513V216.352V215.805V215.394L355.469 211.301L355.445 209.312V207.575V206.429V204.905H357.307V206.588V207.74V209.065V210.822L357.346 215.244V216.211V217.222V217.929V218.795V219.922L357.525 241.558V242.115L357.583 249.309V249.425L357.554 250.581Z" fill="#D3DAE1"/>
<path d="M545.758 198.45V237.968C544.839 238.613 543.897 239.247 542.932 239.87L542.894 206.97V203.477L545.758 198.45Z" fill="#EAECF0"/>
<path d="M547.77 197.88V236.439C547.112 236.967 546.44 237.475 545.758 237.973V198.45L547.77 197.88Z" fill="#D3DAE1"/>
<path d="M502.843 253.881C501.653 254.123 500.458 254.365 499.263 254.573L499.22 218.814V217.266L502.669 215.814V219.095L502.843 253.881Z" fill="#EAECF0"/>
<path d="M505.118 214.682V253.387C504.363 253.552 503.608 253.707 502.853 253.871L502.694 219.1V215.819L502.921 215.713L505.118 214.682Z" fill="#D3DAE1"/>
<path d="M300.053 243.169L296.836 242.845L296.424 202.524V201.373V200.603H299.584V201.644V202.795L300.053 243.169Z" fill="#EAECF0"/>
<path d="M302.448 243.426L300.028 243.169L299.545 202.795V201.644V200.603H301.988V201.856V203.008L302.448 243.426Z" fill="#D3DAE1"/>
<path opacity="0.1" d="M502.896 215.718L505.108 214.678V219.559L502.955 220.28L502.896 215.718Z" fill="black"/>
<path opacity="0.1" d="M547.765 197.87V205.34L545.758 206.012L542.889 206.966L542.884 203.472L545.758 198.446L547.765 197.87Z" fill="black"/>
<path d="M547.765 183.51V204.193L502.954 219.129L502.664 197.009L547.765 183.51Z" fill="#D48A9B"/>
<path d="M295.83 182.073L354.719 170.868L547.765 183.51L502.664 197.009L295.83 182.073Z" fill="#EFC6CD"/>
<path opacity="0.1" d="M302.008 200.603L302.027 203.003L299.588 202.79L296.42 202.519L296.405 200.603H302.008Z" fill="black"/>
<path opacity="0.1" d="M357.187 207.745L355.324 207.58L352.711 207.357V204.126L355.295 204.909H357.162L357.187 207.745Z" fill="black"/>
<path d="M295.83 182.073V201.319L502.955 219.129L502.664 197.009L295.83 182.073Z" fill="#D48A9B"/>
<path d="M460.055 204.958H433V195.141L460.055 197.047V204.958Z" fill="#D48A9B"/>
<path opacity="0.1" d="M460.055 204.958H433V195.141L460.055 197.047V204.958Z" fill="black"/>
<path opacity="0.1" d="M396.661 192.988V208.499L500.512 216.4V199.882L460.007 197.584L455.981 201.174L439.464 200.028L433.576 195.717L396.661 192.988Z" fill="black"/>
<path d="M396.085 192.412V207.928L499.935 215.824V199.307L459.431 197.009L455.41 200.603L438.888 199.452L433 195.141L396.085 192.412Z" fill="white"/>
<path d="M332.023 188.247L356.587 189.974L356.301 197.778H340.263L329.537 193.564L332.023 188.247Z" fill="#D48A9B"/>
<path opacity="0.1" d="M332.023 188.247L356.587 189.974L356.301 197.778H340.263L329.537 193.564L332.023 188.247Z" fill="black"/>
<path opacity="0.1" d="M299.279 186.094V200.028L393.502 207.498V192.703L357.163 190.545L353.282 193.419L338.633 192.558L332.599 188.823L299.279 186.094Z" fill="black"/>
<path d="M298.703 185.518V199.452L392.926 206.922V192.127L356.586 189.974L352.711 192.843L338.056 191.982L332.023 188.247L298.703 185.518Z" fill="white"/>
<path opacity="0.1" d="M500.521 185.571L513.729 186.437L491.846 192.988L480.699 192.185L500.521 185.571Z" fill="black"/>
<path d="M500.521 185L513.729 185.862L491.846 192.413L480.699 191.609L500.521 185Z" fill="white"/>
<path d="M498.944 186.486C499.466 186.258 500.023 186.679 500.579 186.786C500.894 186.848 501.223 186.786 501.547 186.848C502.195 186.936 502.834 187.366 503.453 187.148L498.944 186.486Z" fill="#D3DAE1"/>
<path d="M498.261 186.878C498.779 186.655 499.336 187.076 499.892 187.182C500.211 187.24 500.54 187.182 500.86 187.24C501.503 187.328 502.147 187.763 502.766 187.545L498.261 186.878Z" fill="#D3DAE1"/>
<path d="M496.694 187.671C497.212 187.448 497.768 187.864 498.325 187.971C498.644 188.034 498.968 187.971 499.292 188.034C499.94 188.121 500.584 188.556 501.198 188.334L496.694 187.671Z" fill="#D3DAE1"/>
<path opacity="0.1" d="M411.407 178.324L440.857 180.254L434.582 189.268L402.205 185.808L411.407 178.324Z" fill="black"/>
<path d="M410.832 177.748L440.281 179.674L434.006 188.692L401.625 185.233L410.832 177.748Z" fill="#3A3768"/>
<path d="M412.129 178.411L437.814 179.983L432.342 187.328L404.102 184.507L412.129 178.411Z" fill="#D5E1F4"/>
<path d="M394.904 252.067C394.904 252.202 394.904 252.342 394.88 252.478C394.856 252.613 394.88 252.72 394.841 252.841C394.739 253.693 394.502 254.524 394.14 255.303V255.303C381.972 253.934 369.775 252.289 357.564 250.601L355.836 250.359L352.735 249.928L350.123 249.565C347.263 249.493 344.412 249.227 341.588 248.767C339.809 248.504 338.048 248.132 336.315 247.654C328.574 246.595 320.789 245.574 313.029 244.645L312.018 244.524C312.201 243.701 312.356 243.203 312.356 243.203C312.356 243.203 314.021 236.662 315.404 229.352C315.709 227.765 315.999 226.149 316.251 224.547C316.454 223.265 316.638 221.998 316.793 220.778C316.88 220.106 316.952 219.448 317.015 218.804C317.049 218.485 317.078 218.166 317.102 217.837C317.127 217.508 317.156 217.15 317.18 216.816C317.204 216.482 317.214 216.187 317.228 215.882V215.427C317.228 214.774 317.228 214.092 317.204 213.391C316.959 209.896 316.409 206.43 315.559 203.032C315.424 202.452 315.283 201.871 315.138 201.305C315.095 201.121 315.046 200.942 314.998 200.763C313.435 194.711 311.611 189.766 311.611 189.766C311.609 189.739 311.609 189.711 311.611 189.684C311.613 189.664 311.613 189.645 311.611 189.626C311.613 189.585 311.613 189.545 311.611 189.505C311.611 189.35 311.611 189.113 311.611 188.827C311.611 188.769 311.611 188.706 311.611 188.643C311.647 188.136 311.734 187.633 311.872 187.144C311.925 186.97 311.986 186.799 312.056 186.631C312.229 186.144 312.517 185.707 312.897 185.356C313.276 185.005 313.735 184.752 314.233 184.618V184.618C315.603 184.265 317.673 184.618 320.799 186.471C321.308 186.765 321.793 187.098 322.25 187.468C322.482 187.652 322.734 187.845 322.928 188.053C326.508 191.387 328.414 196.888 329.43 201.91C329.469 202.089 329.503 202.268 329.536 202.447C329.657 203.066 329.759 203.671 329.851 204.266C330.015 205.311 330.146 206.317 330.243 207.251C330.243 207.503 330.296 207.735 330.32 207.991C330.344 208.248 330.369 208.475 330.383 208.707C330.446 209.462 330.49 210.159 330.519 210.749C330.601 212.316 330.586 213.279 330.586 213.279V213.328C330.586 213.328 330.586 213.4 330.562 213.536C330.559 213.548 330.559 213.562 330.562 213.574C330.562 213.632 330.562 213.705 330.562 213.787C330.562 213.87 330.562 213.928 330.562 214.01C330.543 214.213 330.519 214.45 330.49 214.721C330.446 215.137 330.398 215.626 330.34 216.172C330.301 216.579 330.252 217.019 330.204 217.484C330.098 218.451 329.982 219.574 329.856 220.754C329.827 220.977 329.803 221.199 329.778 221.422C329.667 222.433 329.551 223.488 329.43 224.552C329.299 225.762 329.154 226.971 329.014 228.166C328.98 228.427 328.946 228.689 328.917 228.945C328.559 231.848 328.201 234.485 327.911 236.125C327.865 236.368 327.833 236.614 327.814 236.86C327.809 236.944 327.809 237.028 327.814 237.112C327.799 237.331 327.799 237.551 327.814 237.77C328.051 241.902 332.517 242.608 332.517 242.608L352.793 242.206L355.803 242.148L357.554 242.115L373.36 241.8L374.812 241.771L382.674 241.616C383.207 241.604 383.74 241.667 384.256 241.805C386.683 242.457 388.999 243.47 391.126 244.809C391.79 245.236 392.388 245.757 392.901 246.358C392.926 246.381 392.949 246.407 392.969 246.435C394.042 247.72 394.704 249.298 394.871 250.963C394.871 251.075 394.871 251.186 394.871 251.297C394.909 251.529 394.909 251.791 394.904 252.067Z" fill="#3A3768"/>
<path opacity="0.1" d="M394.905 252.066C394.905 252.202 394.905 252.342 394.881 252.478C394.856 252.613 394.881 252.72 394.842 252.841C394.727 253.694 394.482 254.524 394.116 255.303C381.948 253.934 369.751 252.289 357.54 250.601L355.813 250.359L352.711 249.928L350.099 249.565C347.239 249.493 344.388 249.227 341.564 248.767C339.786 248.504 338.024 248.132 336.291 247.654C328.55 246.595 320.765 245.574 313.005 244.645L311.994 244.524C312.178 243.672 312.342 243.155 312.342 243.155C312.342 243.155 313.702 237.833 314.993 231.383C315.085 230.938 315.172 230.493 315.26 230.043L315.39 229.361C315.69 227.779 315.98 226.153 316.237 224.557C316.44 223.275 316.624 222.007 316.779 220.788C316.866 220.115 316.938 219.457 317.001 218.814C317.035 218.495 317.064 218.175 317.088 217.846C317.113 217.517 317.142 217.159 317.166 216.826C317.19 216.492 317.2 216.197 317.214 215.892V215.437C317.214 214.784 317.214 214.102 317.19 213.4C316.952 209.906 316.407 206.44 315.56 203.042C315.424 202.455 315.284 201.879 315.139 201.314C315.09 201.131 315.047 200.952 314.998 200.773C313.431 194.701 311.612 189.727 311.612 189.727C311.613 189.716 311.613 189.705 311.612 189.693C311.614 189.674 311.614 189.655 311.612 189.635C311.614 189.595 311.614 189.555 311.612 189.514C311.612 189.359 311.612 189.122 311.612 188.837C311.612 188.779 311.612 188.716 311.612 188.653C311.642 188.146 311.725 187.643 311.858 187.153C311.912 186.984 311.97 186.81 312.037 186.64C312.211 186.127 312.513 185.666 312.914 185.301C313.316 184.937 313.803 184.68 314.331 184.555C315.7 184.236 317.746 184.633 320.804 186.423C321.334 186.734 321.839 187.087 322.314 187.477V187.477C322.541 187.666 322.759 187.855 322.972 188.058C326.523 191.411 328.414 196.902 329.421 201.91C329.459 202.089 329.493 202.272 329.527 202.451C329.648 203.066 329.75 203.676 329.842 204.266C330.006 205.311 330.132 206.312 330.229 207.241C330.253 207.498 330.282 207.749 330.301 207.991C330.321 208.233 330.35 208.475 330.364 208.707C330.427 209.462 330.471 210.159 330.5 210.749C330.582 212.316 330.567 213.279 330.567 213.279V213.444C330.567 213.473 330.567 213.502 330.567 213.536C330.565 213.548 330.565 213.562 330.567 213.574C330.567 213.632 330.567 213.705 330.567 213.787C330.567 213.869 330.567 213.928 330.567 214.01C330.548 214.213 330.524 214.45 330.495 214.721C330.451 215.137 330.403 215.626 330.345 216.172C330.296 216.574 330.253 217.014 330.205 217.484C330.098 218.451 329.982 219.574 329.856 220.754C329.827 220.977 329.803 221.199 329.779 221.422C329.667 222.433 329.547 223.497 329.43 224.562C329.29 225.771 329.15 226.981 329.005 228.171C328.971 228.432 328.942 228.693 328.908 228.95C328.555 231.853 328.202 234.451 327.911 236.081C327.863 236.342 327.831 236.605 327.814 236.87C327.81 236.954 327.81 237.038 327.814 237.121C327.8 237.341 327.8 237.56 327.814 237.779C328.09 241.863 332.517 242.545 332.517 242.545L352.794 242.148L355.798 242.085L357.554 242.052L373.39 241.742L374.87 241.713L382.703 241.558C383.237 241.541 383.77 241.604 384.285 241.747C386.731 242.381 389.065 243.384 391.208 244.722C391.884 245.154 392.491 245.686 393.008 246.299C393.033 246.323 393.056 246.349 393.076 246.377C394.148 247.668 394.802 249.254 394.953 250.925C394.953 251.036 394.953 251.147 394.953 251.259C394.91 251.529 394.91 251.791 394.905 252.066Z" fill="black"/>
<path d="M394.939 255.376L394.14 255.284C381.972 253.915 369.775 252.27 357.564 250.581L355.837 250.339L352.736 249.909L350.123 249.546C347.263 249.474 344.412 249.207 341.588 248.747C339.81 248.484 338.048 248.113 336.315 247.635C328.574 246.575 320.789 245.554 313.029 244.625C313.155 243.946 313.317 243.275 313.513 242.613C313.513 242.613 318.109 224.513 318.394 214.89C318.496 211.45 317.814 207.193 316.89 203.134C316.754 202.548 316.619 201.968 316.474 201.397L316.343 200.855C314.703 194.493 312.753 189.171 312.753 189.171C312.708 188.512 312.745 187.851 312.865 187.202C312.895 187.027 312.933 186.854 312.981 186.684C313.166 185.873 313.603 185.142 314.229 184.594C314.257 184.569 314.288 184.546 314.321 184.526C315.593 183.558 317.877 183.491 321.941 185.871C322.764 186.357 323.526 186.94 324.21 187.608C324.403 187.792 324.597 187.985 324.781 188.184C328.047 191.72 329.779 197.139 330.688 201.987L330.79 202.524C330.896 203.129 330.988 203.724 331.075 204.3C331.075 204.3 331.075 204.333 331.075 204.348C331.187 205.112 331.278 205.843 331.356 206.54C331.582 208.591 331.699 210.654 331.704 212.718C331.704 212.718 331.516 214.629 331.22 217.382C331.109 218.461 330.978 219.67 330.838 220.948C330.838 221.01 330.838 221.073 330.838 221.141L330.766 221.818C330.519 224.049 330.248 226.429 329.972 228.635C329.943 228.906 329.909 229.172 329.875 229.434C329.566 231.916 329.256 234.122 329 235.559C327.993 241.161 333.596 242.022 333.596 242.022L352.726 241.645L355.725 241.587L357.482 241.548H358.217H358.454L373.627 241.248H375.078L383.787 241.074C384.321 241.061 384.854 241.126 385.369 241.268C387.815 241.901 390.151 242.903 392.297 244.238C392.898 244.627 393.446 245.092 393.927 245.622C393.957 245.652 393.985 245.684 394.01 245.719C395.147 247.033 395.847 248.669 396.014 250.399C396.18 252.129 395.804 253.868 394.939 255.376Z" fill="#3A3768"/>
<path d="M463.33 167.922L469.247 180.598H468.255L461.318 168.072L463.33 167.922Z" fill="#4C4C56"/>
<path opacity="0.1" d="M463.33 167.922L469.247 180.598H468.255L461.318 168.072L463.33 167.922Z" fill="black"/>
<path d="M463.33 180.598H469.247V181.923L463.33 182.073V180.598Z" fill="#4C4C56"/>
<path opacity="0.1" d="M463.33 180.598H469.247V181.923L463.33 182.073V180.598Z" fill="black"/>
<path d="M417.305 121.277V165.541C417.305 166.413 417.652 167.248 418.268 167.864C418.884 168.48 419.719 168.826 420.59 168.826H494.372C494.806 168.827 495.236 168.74 495.636 168.572C496.037 168.404 496.4 168.158 496.704 167.848C497.008 167.538 497.247 167.17 497.407 166.767C497.568 166.363 497.646 165.932 497.638 165.498L496.801 121.195C496.784 120.34 496.433 119.525 495.822 118.926C495.212 118.328 494.39 117.992 493.535 117.992H420.59C420.159 117.992 419.732 118.077 419.333 118.242C418.935 118.407 418.573 118.649 418.268 118.954C417.963 119.259 417.721 119.622 417.555 120.02C417.39 120.419 417.305 120.846 417.305 121.277V121.277Z" fill="#4C4C56"/>
<path opacity="0.1" d="M417.305 121.277V165.541C417.305 166.413 417.652 167.248 418.268 167.864C418.884 168.48 419.719 168.826 420.59 168.826H494.372C494.806 168.827 495.236 168.74 495.636 168.572C496.037 168.404 496.4 168.158 496.704 167.848C497.008 167.538 497.247 167.17 497.407 166.767C497.568 166.363 497.646 165.932 497.638 165.498L496.801 121.195C496.784 120.34 496.433 119.525 495.822 118.926C495.212 118.328 494.39 117.992 493.535 117.992H420.59C420.159 117.992 419.732 118.077 419.333 118.242C418.935 118.407 418.573 118.649 418.268 118.954C417.963 119.259 417.721 119.622 417.555 120.02C417.39 120.419 417.305 120.846 417.305 121.277V121.277Z" fill="black"/>
<path d="M414.644 121.277V165.541C414.644 166.413 414.99 167.248 415.606 167.864C416.223 168.48 417.058 168.827 417.929 168.827H491.711C492.145 168.827 492.574 168.74 492.975 168.572C493.375 168.404 493.737 168.158 494.041 167.848C494.345 167.538 494.583 167.17 494.743 166.767C494.903 166.363 494.981 165.932 494.972 165.498L494.135 121.195C494.118 120.341 493.768 119.527 493.158 118.928C492.548 118.329 491.728 117.993 490.874 117.992H417.949C417.516 117.99 417.086 118.073 416.686 118.237C416.285 118.401 415.92 118.642 415.613 118.948C415.306 119.253 415.062 119.616 414.896 120.016C414.73 120.416 414.644 120.844 414.644 121.277V121.277Z" fill="#4C4C56"/>
<path d="M417.547 124.045V163.016C417.547 163.887 417.893 164.723 418.509 165.339C419.125 165.955 419.961 166.301 420.832 166.301H489.151C490.018 166.301 490.848 165.957 491.461 165.345C492.073 164.732 492.417 163.901 492.417 163.035V124.021C492.416 123.155 492.071 122.326 491.459 121.714C490.847 121.103 490.017 120.76 489.151 120.76H420.832C419.961 120.76 419.125 121.106 418.509 121.722C417.893 122.338 417.547 123.174 417.547 124.045V124.045Z" fill="#2335DC"/>
<path d="M447.108 168.101L453.596 180.598H468.256L460.926 166.301L447.108 168.101Z" fill="#4C4C56"/>
<path d="M441.941 180.598L440.857 181.923H463.33V180.598H441.941Z" fill="#4C4C56"/>
<path d="M345.661 128.382C346.057 130.524 346.454 132.669 347.181 134.713C347.186 134.727 347.191 134.741 347.196 134.756C347.203 134.776 347.212 134.799 347.22 134.829C347.129 134.796 347.045 134.745 346.973 134.679C346.831 134.527 346.726 134.343 346.669 134.142C345.93 132.082 345.527 129.926 345.125 127.776C344.634 125.152 344.145 122.536 343.05 120.112C342.732 119.485 342.456 118.839 342.222 118.176C342.178 118.036 342.141 117.894 342.111 117.751L342.222 117.683L342.343 117.634L342.464 117.601L342.585 117.572C342.611 117.999 342.686 118.423 342.808 118.834C343.04 119.496 343.313 120.142 343.625 120.77C344.698 123.177 345.179 125.777 345.661 128.382Z" fill="url(#paint1_linear_302_482)"/>
<path d="M363.36 137.258C362.598 138.116 361.972 139.085 361.502 140.132C361.43 140.291 361.357 140.446 361.289 140.615C359.151 145.454 358.425 152.299 358.425 152.299C358.425 152.299 357.099 151.704 355.222 150.775C351.724 149.043 346.325 146.16 344.143 143.862C343.175 142.822 342.827 141.902 343.63 141.259C343.804 141.119 343.983 140.959 344.162 140.775C344.781 140.157 345.346 139.487 345.851 138.772C346.547 137.804 347.234 136.726 347.883 135.618C348.265 134.969 348.628 134.316 348.967 133.682L349.102 133.431C350.553 130.678 351.613 128.327 351.613 128.327C351.613 128.327 352.097 128.481 352.881 128.757C356.495 130.049 366.447 133.973 363.36 137.258Z" fill="#EFB7B9"/>
<path d="M429.584 249.352C429.584 249.352 430.175 253.736 430.925 258.361L429.207 258.274C424.614 258.035 420.016 257.73 415.414 257.359C412.801 251.307 410.092 244.122 410.092 244.011C410.092 243.9 410.009 241.534 409.917 238.892C409.888 237.963 409.855 237.005 409.826 236.106C409.777 234.741 409.734 233.512 409.709 232.748C409.709 232.225 409.68 231.916 409.68 231.916C409.68 231.916 407.194 232.351 404.958 232.656L403.967 232.787C403.454 232.849 402.999 232.898 402.588 232.927C402.233 232.981 401.873 232.981 401.518 232.927C400.754 232.632 402.341 225.186 402.341 225.186L406.289 215.631L407.392 212.97L407.876 212.849C408.113 212.791 408.432 212.723 408.814 212.65C412.583 211.958 422.651 211.078 424.359 221.015C426.474 233.29 426.778 236.047 426.778 236.047L429.584 249.352Z" fill="#EFB7B9"/>
<path opacity="0.05" d="M429.584 249.352C429.584 249.352 430.175 253.736 430.925 258.361L429.207 258.274C424.614 258.035 420.016 257.73 415.414 257.359C412.801 251.307 410.092 244.122 410.092 244.011C410.092 243.9 410.009 241.534 409.917 238.892C409.888 237.963 409.855 237.005 409.826 236.106C409.777 234.741 409.734 233.512 409.709 232.748C409.709 232.225 409.68 231.916 409.68 231.916C409.68 231.916 407.194 232.351 404.958 232.656L403.967 232.787C403.454 232.849 402.999 232.898 402.588 232.927C402.233 232.981 401.873 232.981 401.518 232.927C400.754 232.632 402.341 225.186 402.341 225.186L406.289 215.631L407.392 212.97L407.876 212.849C408.113 212.791 408.432 212.723 408.814 212.65C412.583 211.958 422.651 211.078 424.359 221.015C426.474 233.29 426.778 236.047 426.778 236.047L429.584 249.352Z" fill="black"/>
<path d="M429.207 258.274C424.614 258.035 420.016 257.73 415.414 257.359L413.672 257.219L412.903 257.156C410.735 251.926 408.81 246.812 408.81 246.72C408.81 246.628 408.727 244.243 408.635 241.602C408.524 238.302 408.398 234.625 408.398 234.625L408.074 234.678L407.939 234.702H407.881H407.765L406.986 234.833L406.56 234.901C405.791 235.027 404.862 235.167 403.952 235.298L403.749 235.327L403.217 235.394L402.733 235.452C402.36 235.501 402.007 235.539 401.688 235.569L401.296 235.602C400.942 235.659 400.581 235.659 400.227 235.602C399.462 235.307 401.049 227.861 401.049 227.861L406.1 215.645L406.274 215.597C406.54 215.529 407.102 215.398 407.861 215.268C408.147 215.219 408.461 215.171 408.8 215.127C413.183 214.566 421.524 214.726 423.068 223.691C425.182 235.965 425.487 238.723 425.487 238.723L428.307 252.067C428.307 252.067 428.675 254.824 429.207 258.274Z" fill="#EFB7B9"/>
<path opacity="0.1" d="M408.635 241.602C408.524 238.302 408.398 234.62 408.398 234.62C408.398 234.62 403.56 235.467 401.305 235.631L401.76 234.093C401.76 234.093 410.043 231.804 410.217 233.096C410.343 234.001 409.279 238.81 408.635 241.602Z" fill="black"/>
<path opacity="0.1" d="M408.809 212.626V216.124C408.809 216.124 408.398 222.414 405.166 232.037C405.099 232.245 405.026 232.448 404.949 232.651C404.61 233.577 404.209 234.479 403.749 235.351C402.839 235.477 401.959 235.583 401.305 235.631C400.951 235.686 400.591 235.686 400.236 235.631C399.472 235.336 401.054 227.89 401.054 227.89L406.105 215.679L406.284 215.631L407.382 212.965C407.382 212.965 407.924 212.791 408.809 212.626Z" fill="black"/>
<path d="M407.871 212.075V216.124C407.871 216.124 407.459 222.414 404.228 232.042C404.145 232.293 404.053 232.525 403.962 232.782C403.87 233.038 403.749 233.343 403.628 233.614C403.362 234.257 403.062 234.881 402.747 235.481C400.217 240.276 396.361 243.706 393.913 245.593C393.555 245.869 393.221 246.111 392.945 246.314H392.921C392.437 246.643 392.089 246.88 391.866 247.02C391.644 247.161 391.624 247.17 391.624 247.17C389.331 245.762 382.814 245.525 382.814 245.525L367.603 248.288C364.278 248.861 360.923 249.242 357.554 249.43L355.827 249.512C354.83 249.551 353.795 249.575 352.735 249.58C351.879 249.58 351.008 249.58 350.123 249.546C347.263 249.474 344.412 249.207 341.588 248.748C340.035 248.493 338.498 248.152 336.982 247.727C335.902 247.427 334.838 247.072 333.794 246.662C323.15 242.482 325.923 232.569 327.717 228.277C327.814 228.05 327.906 227.842 327.993 227.649C328.39 226.773 328.685 226.26 328.685 226.26L329.391 224.552L330.548 221.751L330.804 221.136L330.877 220.957L331.733 218.882L343.828 217.314L352.716 216.163L355.421 215.814L357.254 215.577L360.752 215.123L362.068 214.953C362.88 214.827 363.7 214.763 364.521 214.76C364.965 214.739 365.409 214.805 365.827 214.953C366.795 215.394 374.168 214.189 374.168 214.189C374.168 214.189 379.921 212.428 384.972 213.013C387.47 213.186 389.976 213.202 392.476 213.062V213.062L393.095 213.033L393.898 212.999H394.072C400.614 212.694 407.871 212.075 407.871 212.075Z" fill="#444053"/>
<path opacity="0.1" d="M364.352 224.228C364.352 224.228 358.546 237.441 358.304 237.673C358.062 237.905 358.072 242.027 358.304 241.785C358.536 241.544 366.587 223.701 366.587 223.701L364.352 224.228Z" fill="black"/>
<path opacity="0.1" d="M392.481 213.052C392.481 213.052 389.544 214.948 388.664 216.477C387.783 218.006 379.737 233.212 377.744 235.443C376.089 237.438 374.596 239.562 373.279 241.795C373.046 242.197 373.046 244.722 374.454 242.313C375.862 239.903 375.514 239.497 378.272 236.507C381.029 233.517 384.077 226.758 385.258 225.408C386.438 224.059 388.078 220.004 390.135 217.595L394.073 212.994L392.481 213.052Z" fill="black"/>
<path opacity="0.1" d="M393.187 239.144C393.187 239.144 391.131 237.736 389.195 240.141C387.26 242.545 393.187 239.144 393.187 239.144Z" fill="black"/>
<path opacity="0.1" d="M395.713 239.87C395.713 239.87 394.01 242.84 393.187 243.077C392.365 243.314 395.713 239.87 395.713 239.87Z" fill="black"/>
<path opacity="0.1" d="M393.187 240.61C393.187 240.61 391.837 242.961 390.662 242.724L393.187 240.61Z" fill="black"/>
<path d="M383.68 177.129C383.68 177.129 396.129 176.601 397.362 176.19C398.596 175.779 409.516 174.371 409.516 174.371C409.516 174.371 441.873 176.66 432.657 179.422C423.44 182.185 410.929 181.004 410.929 181.004C410.929 181.004 398.712 184.178 396.835 185.842C394.958 187.507 381.097 187.545 381.097 187.545L383.68 177.129Z" fill="#EFB7B9"/>
<path opacity="0.05" d="M383.68 177.129C383.68 177.129 396.129 176.601 397.362 176.19C398.596 175.779 409.516 174.371 409.516 174.371C409.516 174.371 441.873 176.66 432.657 179.422C423.44 182.185 410.929 181.004 410.929 181.004C410.929 181.004 398.712 184.178 396.835 185.842C394.958 187.507 381.097 187.545 381.097 187.545L383.68 177.129Z" fill="black"/>
<path d="M339.397 148.768C339.397 148.768 328.003 152.638 333.523 162.508C339.044 172.378 346.151 177.022 346.151 177.022L364.473 189.708C364.473 189.708 372.166 194.111 375.688 192.291L381.44 191.808L382.408 176.713C382.408 176.713 377.57 180.472 372.306 175.261C367.042 170.051 360.559 166.509 360.032 163.693C359.504 160.877 346.03 146.358 339.397 148.768Z" fill="#A36468"/>
<path d="M375.393 180.714C375.393 180.714 381.324 182.828 381.092 182.944C380.86 183.06 375.393 185.116 375.393 185.116L375.804 193.162L383.85 192.722C383.85 192.722 386.786 178.072 384.261 176.601L375.393 176.19V180.714Z" fill="#67647E"/>
<path opacity="0.1" d="M375.393 180.714C375.393 180.714 381.324 182.828 381.092 182.944C380.86 183.06 375.393 185.116 375.393 185.116L375.804 193.162L383.85 192.722C383.85 192.722 386.786 178.072 384.261 176.601L375.393 176.19V180.714Z" fill="black"/>
<path opacity="0.1" d="M363.36 137.258C362.598 138.116 361.972 139.085 361.502 140.132C361.43 140.291 361.357 140.446 361.289 140.615C356.969 140.615 353.863 137.258 351.211 134.253C350.728 133.697 349.504 134.539 349.102 133.915C349.058 133.842 349.015 133.769 348.967 133.697L349.102 133.445C350.553 130.692 351.613 128.341 351.613 128.341C351.613 128.341 352.097 128.496 352.881 128.772C356.495 130.049 366.447 133.973 363.36 137.258Z" fill="black"/>
<path d="M375.939 125.574C375.938 129.412 374.422 133.094 371.72 135.82C369.018 138.547 365.35 140.096 361.512 140.132H361.372C359.304 140.133 357.261 139.694 355.377 138.843C353.493 137.992 351.813 136.749 350.447 135.197C349.959 134.642 349.512 134.052 349.112 133.431C347.889 131.526 347.127 129.362 346.886 127.111C346.646 124.86 346.933 122.583 347.726 120.463C348.518 118.342 349.794 116.435 351.452 114.894C353.11 113.352 355.104 112.218 357.277 111.582C359.45 110.946 361.741 110.825 363.968 111.228C366.196 111.632 368.299 112.549 370.11 113.907C371.921 115.265 373.391 117.026 374.403 119.052C375.415 121.077 375.941 123.31 375.939 125.574Z" fill="#EFB7B9"/>
<path opacity="0.1" d="M361.125 215.887C361.125 215.887 360.017 217.242 358.793 218.504C357.869 219.472 356.882 220.357 356.248 220.585C354.796 221.117 348.144 226.163 348.144 226.163C348.144 226.163 342.861 229.748 341.511 230.803C340.161 231.858 335.284 231.214 335.284 231.214C335.284 231.214 330.591 230.188 327.684 228.311C327.966 227.622 328.289 226.95 328.651 226.299L331.704 218.896L343.799 217.334L361.125 215.887Z" fill="black"/>
<path d="M360.888 214.948C360.888 214.948 359.785 216.303 358.561 217.566C357.637 218.533 356.626 219.419 356.016 219.646C354.565 220.174 347.912 225.225 347.912 225.225C347.912 225.225 342.624 228.81 341.274 229.864C339.924 230.919 335.052 230.276 335.052 230.276C335.052 230.276 328.356 228.824 326.005 226.163C324.36 224.31 326.063 220.875 327.224 218.983C327.708 218.175 328.119 217.648 328.119 217.648L360.888 214.948Z" fill="#67647E"/>
<path d="M369.582 169.436C365.586 169.083 352.431 152.986 352.431 152.986L352.731 152.575L355.488 148.758H361.938L362.649 152.28C367.555 159.16 370.443 163.945 371.227 166.683C371.793 168.677 371.256 169.586 369.582 169.436Z" fill="#67647E"/>
<path opacity="0.1" d="M369.582 169.436C365.586 169.083 352.431 152.986 352.431 152.986L352.731 152.575C355.089 154.739 357.304 157.054 359.364 159.503C368.992 170.834 370.898 167.67 371.227 166.683C371.793 168.677 371.256 169.586 369.582 169.436Z" fill="black"/>
<path opacity="0.1" d="M360.888 214.948C360.888 214.948 359.785 216.303 358.561 217.566C357.915 217.816 357.234 217.963 356.543 218.001C355.014 217.943 351.492 220.353 351.492 220.353C351.492 220.353 345.27 219.999 344.095 220.643C342.919 221.286 338.395 221.407 338.395 221.407C330.117 223.768 327.829 220.183 327.224 218.988C327.708 218.18 328.119 217.653 328.119 217.653L360.888 214.948Z" fill="black"/>
<path d="M375.267 179.978C375.267 180.206 375.223 180.433 375.194 180.651C375.165 180.869 375.136 181.091 375.102 181.299C374.946 182.494 374.588 183.654 374.043 184.729C372.988 186.491 369.756 193.361 369.756 193.361L369.539 194.628L369.427 195.291L369.311 195.944L368.522 200.574L368.169 205.921C368.169 205.921 366.234 208.62 365.412 209.791C364.589 210.962 364.705 212.67 365 213.903C365.295 215.137 362.301 215.311 362.301 215.311C362.301 215.311 358.072 217.368 356.543 217.309C355.014 217.251 351.492 219.651 351.492 219.651C351.492 219.651 345.27 219.298 344.095 219.946C342.919 220.595 338.395 220.711 338.395 220.711C329.532 223.231 327.534 218.945 327.123 218.064C326.711 217.184 328.884 213.603 328.884 213.603C328.884 213.603 329.368 209.08 330.292 208.727C331.216 208.373 332.348 202.389 332.348 202.389C332.348 202.389 331.995 200.565 332.759 199.568C333.523 198.571 333.465 195.751 334.462 194.401C335.459 193.051 333.407 188.527 333.761 187.352C334.114 186.176 332.643 181.42 332.759 180.186C332.875 178.953 332.469 177.956 331.525 175.489C330.722 173.384 330.95 164.032 331.042 161.352C331.042 160.897 331.066 160.636 331.066 160.636C331.066 160.636 331.888 157.989 334.06 152.706C335.705 148.705 339.407 147.19 341.105 146.697C341.396 146.609 341.692 146.537 341.99 146.479C342.416 146.541 342.834 146.646 343.238 146.794C344.951 147.369 348.377 149 353.263 153.567C355.425 155.593 357.466 157.745 359.374 160.011C370.39 172.958 371.29 166.916 371.29 166.916C371.29 166.916 371.774 168.019 374.043 172.421C375.257 174.763 375.48 177.559 375.267 179.978Z" fill="#A36468"/>
<path opacity="0.1" d="M357.129 148.047L346.078 139.232C346.078 139.232 342.097 139.715 340.452 146.402L351.826 156.363L357.129 148.047Z" fill="black"/>
<path d="M357.128 148.047L355.193 150.751L353.229 153.523L351.748 155.696L342.667 148.047L341.104 146.692L340.229 145.947C341.114 142.333 342.687 140.528 343.94 139.657C344.509 139.222 345.171 138.926 345.875 138.791L357.128 148.047Z" fill="#67647E"/>
<path d="M433.121 182.944C423.899 185.702 411.393 184.531 411.393 184.531C411.393 184.531 399.177 187.7 397.299 189.369C396.09 190.429 389.912 190.821 385.688 190.98C383.341 191.067 381.585 191.072 381.585 191.072L384.164 180.656L385.654 180.588C388.997 180.433 396.879 180.036 397.846 179.712C399.08 179.301 410 177.893 410 177.893C410 177.893 442.338 180.182 433.121 182.944Z" fill="#EFB7B9"/>
<path opacity="0.1" d="M375.102 181.275C374.946 182.47 374.587 183.63 374.043 184.705C372.988 186.466 369.756 193.337 369.756 193.337L369.311 195.944C367.811 195.387 366.356 194.717 364.956 193.941L346.62 181.241C346.62 181.241 339.513 176.601 333.992 166.727C328.472 156.852 339.866 152.987 339.866 152.987C346.499 150.567 359.949 165.082 360.476 167.902C361.004 170.723 367.467 174.245 372.751 179.47C373.447 180.178 374.239 180.785 375.102 181.275V181.275Z" fill="black"/>
<path opacity="0.1" d="M375.267 179.978C375.223 180.438 375.17 180.878 375.102 181.299C374.946 182.494 374.587 183.654 374.043 184.729C372.988 186.49 369.756 193.361 369.756 193.361L369.538 194.628C367.952 194.056 366.415 193.357 364.942 192.538L346.62 179.833C346.62 179.833 339.513 175.193 333.992 165.319C328.472 155.444 339.866 151.574 339.866 151.574C346.499 149.155 359.949 163.669 360.476 166.49C361.004 169.31 367.467 172.832 372.751 178.062C373.489 178.823 374.337 179.469 375.267 179.978Z" fill="black"/>
<path d="M382.853 180.245L381.914 195.335L376.157 195.819C376.031 195.885 375.9 195.941 375.765 195.988C372.098 197.333 364.942 193.235 364.942 193.235L346.62 180.535C346.62 180.535 339.513 175.895 333.992 166.021C328.472 156.146 339.866 152.28 339.866 152.28C346.499 149.861 359.949 164.376 360.476 167.196C361.004 170.017 367.467 173.539 372.751 178.764C373.525 179.543 374.416 180.196 375.392 180.699C376.559 181.312 377.871 181.594 379.186 181.514C380.501 181.433 381.769 180.995 382.853 180.245V180.245Z" fill="#A36468"/>
<path opacity="0.1" d="M382.853 180.245L381.914 195.335L376.157 195.818C376.031 195.885 375.9 195.941 375.765 195.988L375.393 188.653C375.393 188.653 380.855 186.597 381.092 186.481C381.329 186.365 375.393 184.25 375.393 184.25V180.743C376.563 181.349 377.877 181.624 379.192 181.536C380.508 181.448 381.774 181.001 382.853 180.245Z" fill="black"/>
<path opacity="0.1" d="M385.664 190.956C383.317 191.043 381.561 191.048 381.561 191.048L384.164 180.656L385.654 180.588C386.612 182.238 386.201 187.086 385.664 190.956Z" fill="black"/>
<path d="M375.862 184.236C375.862 184.236 381.793 186.35 381.561 186.466C381.329 186.583 375.862 188.639 375.862 188.639L376.273 196.685L384.319 196.244C384.319 196.244 387.255 181.594 384.73 180.124L375.862 179.712V184.236Z" fill="#67647E"/>
<path opacity="0.1" d="M340.689 193.869C340.689 193.869 338.69 195.746 337.045 196.244L340.689 193.869Z" fill="black"/>
<path opacity="0.1" d="M335.933 199.447C335.933 199.447 340.805 199.268 341.39 198.271C341.976 197.275 335.933 199.447 335.933 199.447Z" fill="black"/>
<path opacity="0.1" d="M333.523 206.433C333.819 206.433 339.687 205.611 339.924 204.846L333.523 206.433Z" fill="black"/>
<path opacity="0.1" d="M331.704 210.899C333.818 210.836 337.398 208.548 337.398 208.548L331.704 210.899Z" fill="black"/>
<path opacity="0.1" d="M345.386 212.07C345.386 212.07 358.13 212.07 358.715 209.723C359.301 207.377 345.386 212.07 345.386 212.07Z" fill="black"/>
<path opacity="0.1" d="M354.956 179.243C355.193 179.243 365 179.243 365.939 177.893C366.877 176.543 354.956 179.243 354.956 179.243Z" fill="black"/>
<path opacity="0.1" d="M344.158 140.79C344.237 141.269 344.279 141.755 344.284 142.241C344.284 142.781 344.235 143.321 344.138 143.852C343.944 144.862 343.639 145.846 343.229 146.789L343.127 147.026C342.982 147.365 342.827 147.694 342.668 148.023C341.949 149.489 341.1 150.888 340.133 152.203C337.924 155.135 335.371 157.791 332.527 160.113C332.033 160.529 331.535 160.94 331.032 161.347C331.032 160.892 331.056 160.631 331.056 160.631C331.056 160.631 331.879 157.984 334.051 152.701C335.696 148.7 339.397 147.186 341.095 146.692L340.22 145.947C341.105 142.333 342.677 140.528 343.93 139.657C344.008 140.015 344.1 140.393 344.158 140.79Z" fill="black"/>
<path opacity="0.1" d="M373.81 118.012C373.661 118.049 373.518 118.106 373.385 118.181C372.465 118.689 372.199 119.894 371.449 120.653C370.583 121.548 369.229 121.684 367.995 121.839C366.761 121.993 365.382 122.298 364.729 123.358C364.245 124.146 364.289 125.138 364.115 126.048C364.096 126.211 364.03 126.366 363.926 126.493C363.76 126.628 363.55 126.697 363.336 126.686C360.917 126.856 359.156 126.024 356.891 125.438C355.827 125.167 354.589 125.201 353.776 125.922C353.04 126.585 352.837 127.669 352.856 128.66V128.747C352.961 129.711 352.99 130.682 352.944 131.65C352.832 132.399 352.545 133.111 352.105 133.728C351.665 134.344 351.085 134.848 350.413 135.197C349.848 135.5 349.224 135.678 348.584 135.719C348.337 135.745 348.088 135.709 347.859 135.613C348.289 134.877 348.7 134.161 349.078 133.431C348.028 131.808 347.312 129.992 346.971 128.09C346.63 126.187 346.671 124.236 347.091 122.349C347.512 120.463 348.304 118.679 349.421 117.101C350.537 115.524 351.957 114.184 353.597 113.161C355.237 112.137 357.063 111.451 358.971 111.14C360.879 110.83 362.83 110.903 364.709 111.354C366.589 111.805 368.36 112.625 369.919 113.767C371.478 114.91 372.794 116.351 373.791 118.007L373.81 118.012Z" fill="black"/>
<path d="M377.797 116.154C377.62 116.55 377.341 116.892 376.989 117.146C375.886 117.862 374.304 117.073 373.152 117.712C372.228 118.22 371.967 119.424 371.217 120.184C370.356 121.079 369.001 121.215 367.763 121.369C366.524 121.524 365.155 121.829 364.497 122.889C364.013 123.677 364.062 124.664 363.883 125.579C363.866 125.742 363.8 125.898 363.694 126.024C363.527 126.157 363.317 126.226 363.104 126.217C360.685 126.386 358.924 125.549 356.659 124.969C355.6 124.698 354.361 124.732 353.548 125.453C352.736 126.174 352.61 127.204 352.624 128.196C352.725 129.186 352.756 130.182 352.716 131.176C352.549 132.243 352.029 133.223 351.24 133.961C350.451 134.698 349.438 135.15 348.362 135.245C348.205 135.269 348.045 135.261 347.891 135.222C347.738 135.183 347.593 135.113 347.467 135.018C347.327 134.867 347.226 134.684 347.172 134.486C345.561 129.957 345.575 124.93 343.621 120.537C343.305 119.911 343.032 119.264 342.803 118.602C342.764 118.466 342.725 118.326 342.696 118.186C342.639 117.907 342.6 117.624 342.58 117.339C342.38 117.368 342.191 117.446 342.029 117.567C341.971 117.615 341.919 117.671 341.874 117.731C341.597 118.194 341.456 118.725 341.468 119.265C341.106 125.313 341.694 131.381 343.209 137.248C343.672 138.713 343.953 140.229 344.046 141.762C343.992 143.42 343.597 145.049 342.885 146.547C339.852 153.543 333.756 158.666 327.693 163.297C328.316 162.629 328.797 161.842 329.106 160.982C329.416 160.123 329.547 159.21 329.493 158.299C329.389 158.647 329.19 158.959 328.92 159.202C328.649 159.444 328.317 159.607 327.96 159.673C327.243 159.795 326.51 159.783 325.797 159.639C326.726 159.334 327.089 158.241 327.321 157.292C327.795 155.357 328.235 153.404 328.642 151.433C329.075 149.552 329.359 147.64 329.493 145.715C329.566 144.08 329.44 142.439 329.372 140.799C329.229 136.302 329.39 131.8 329.856 127.325C330.214 123.455 330.862 119.27 333.702 116.628C334.928 115.592 336.297 114.738 337.766 114.093C337.766 113.609 341.313 112.641 341.782 112.574C341.977 112.536 342.174 112.513 342.372 112.506C342.626 112.469 342.884 112.513 343.111 112.632C343.338 112.751 343.521 112.939 343.635 113.169C343.809 112.854 344.003 112.545 344.206 112.249C344.485 111.843 344.793 111.457 345.125 111.093C346.969 109.061 349.359 107.629 351.492 105.907C352.275 105.204 353.124 104.579 354.027 104.039C355.208 103.445 356.504 103.115 357.825 103.072C360.009 102.948 362.195 103.291 364.236 104.078C367.177 105.21 369.746 107.242 372.79 108.064C373.541 108.227 374.282 108.432 375.01 108.679C375.708 108.955 376.341 109.374 376.867 109.91C377.394 110.445 377.802 111.085 378.066 111.787C378.331 112.49 378.445 113.24 378.402 113.99C378.359 114.739 378.159 115.471 377.816 116.139L377.797 116.154Z" fill="#444053"/>
<g opacity="0.1">
<path opacity="0.1" d="M328.801 159.489C329.154 158.581 329.304 157.607 329.241 156.635C329.136 156.983 328.936 157.295 328.665 157.537C328.393 157.78 328.061 157.943 327.703 158.009C327.519 158.053 327.331 158.08 327.142 158.091C326.9 158.865 326.518 159.61 325.777 159.852C326.49 159.998 327.223 160.011 327.94 159.891C328.251 159.815 328.543 159.678 328.801 159.489Z" fill="black"/>
<path opacity="0.1" d="M378.145 112.298C378.11 113.063 377.912 113.812 377.565 114.494C377.382 114.881 377.102 115.215 376.752 115.462C375.654 116.178 374.067 115.394 372.915 116.028C371.996 116.536 371.73 117.746 370.98 118.5C370.114 119.395 368.76 119.536 367.526 119.686C366.292 119.836 364.913 120.17 364.26 121.205C363.776 121.994 363.82 122.985 363.646 123.895C363.642 123.99 363.618 124.084 363.576 124.169C363.534 124.255 363.474 124.33 363.4 124.391C363.327 124.452 363.241 124.496 363.149 124.522C363.057 124.547 362.961 124.553 362.867 124.538C360.448 124.708 358.687 123.871 356.422 123.285C355.358 123.014 354.119 123.048 353.307 123.769C352.571 124.437 352.368 125.516 352.387 126.512C352.489 127.501 352.518 128.495 352.474 129.488C352.313 130.558 351.795 131.542 351.005 132.281C350.215 133.02 349.198 133.471 348.12 133.561C347.963 133.584 347.803 133.576 347.65 133.537C347.496 133.498 347.352 133.429 347.225 133.334C347.085 133.181 346.984 132.997 346.93 132.797C345.319 128.269 345.328 123.242 343.374 118.854C343.063 118.226 342.792 117.58 342.561 116.918C342.438 116.507 342.361 116.084 342.334 115.656C342.056 115.688 341.802 115.829 341.627 116.047C341.355 116.512 341.215 117.043 341.221 117.581C340.996 121.458 341.158 125.348 341.705 129.193C341.355 125.957 341.276 122.698 341.468 119.449C341.456 118.909 341.597 118.378 341.874 117.915C341.959 117.805 342.065 117.713 342.187 117.646C342.308 117.578 342.442 117.537 342.58 117.523C342.607 117.951 342.682 118.375 342.803 118.786C343.034 119.448 343.307 120.094 343.621 120.721C345.556 125.114 345.556 130.136 347.172 134.665C347.229 134.865 347.331 135.048 347.472 135.202C347.594 135.304 347.736 135.381 347.889 135.427C348.042 135.473 348.203 135.486 348.362 135.468C349.438 135.373 350.451 134.921 351.24 134.183C352.029 133.446 352.549 132.466 352.716 131.399C352.756 130.404 352.725 129.409 352.624 128.419C352.624 127.422 352.813 126.343 353.548 125.675C354.361 124.94 355.6 124.911 356.659 125.192C358.924 125.772 360.675 126.609 363.104 126.44C363.317 126.449 363.527 126.38 363.694 126.246C363.8 126.118 363.866 125.962 363.883 125.796C364.062 124.887 364.008 123.895 364.497 123.111C365.155 122.052 366.529 121.742 367.763 121.587C368.997 121.432 370.356 121.302 371.222 120.407C371.953 119.647 372.214 118.442 373.157 117.93C374.304 117.296 375.891 118.084 376.994 117.368C377.346 117.115 377.625 116.773 377.802 116.376C378.438 115.112 378.561 113.651 378.145 112.298V112.298Z" fill="black"/>
<path opacity="0.1" d="M343.814 140.112C343.76 141.77 343.367 143.398 342.658 144.897C339.943 151.153 334.776 155.914 329.382 160.157C329.153 161.422 328.569 162.597 327.698 163.543C333.755 158.918 339.861 153.794 342.89 146.799C343.602 145.3 343.997 143.671 344.051 142.014C344.039 141.306 343.957 140.601 343.804 139.909C343.809 139.957 343.814 140.035 343.814 140.112Z" fill="black"/>
</g>
<path opacity="0.1" d="M344.419 112.245C343.983 114.248 343.384 116.85 342.934 118.191C342.878 117.911 342.84 117.628 342.817 117.344C342.619 117.373 342.431 117.451 342.271 117.571C342.271 116.163 342.44 114.069 342.585 112.501C342.839 112.464 343.099 112.508 343.326 112.627C343.554 112.746 343.738 112.934 343.853 113.164C344.008 112.854 344.216 112.545 344.419 112.245Z" fill="black"/>
<path d="M344.187 112.245C343.751 114.248 343.151 116.85 342.701 118.191C342.644 117.911 342.605 117.628 342.585 117.344C342.385 117.373 342.196 117.451 342.034 117.571C342.034 116.163 342.203 114.069 342.353 112.501C342.607 112.464 342.865 112.508 343.092 112.628C343.319 112.747 343.502 112.934 343.616 113.164C343.79 112.854 344.008 112.545 344.187 112.245Z" fill="#67647E"/>
<g opacity="0.7">
<path opacity="0.7" d="M442.705 3.66254H522.859V81.6241H442.705V3.66254Z" fill="#2E001E"/>
<path opacity="0.7" d="M439.081 0V85.2672H526.521V0H439.081ZM442.724 3.64795H522.878V81.6241H442.705L442.724 3.64795Z" fill="#FF2BC2"/>
<path opacity="0.7" d="M502.582 35.8312C501.912 35.5564 501.191 35.4309 500.468 35.4635C495.881 35.4635 492.819 39.0002 492.819 44.864C492.819 51.5696 495.954 54.2645 500.032 54.2645C500.889 54.2902 501.742 54.154 502.548 53.8629V35.8312H502.582ZM486.248 45.1591C486.248 36.6682 491.711 30.0351 500.676 30.0351C501.307 30.0214 501.939 30.0473 502.567 30.1125V20.6395C502.567 20.5419 502.606 20.4484 502.675 20.3795C502.744 20.3105 502.838 20.2718 502.935 20.2718H508.799C509.089 20.2718 509.162 20.383 509.162 20.5669V53.8629C509.14 55.0559 509.202 56.249 509.346 57.4334C509.346 57.6898 509.346 57.7286 509.128 57.835C506.214 59.2235 503.028 59.9458 499.8 59.9493C491.895 59.9493 486.253 55.0676 486.253 45.1591H486.248ZM473.824 39.2566L484.037 59.0252C484.221 59.3155 484.11 59.6058 483.82 59.6058H477.482C477.318 59.6263 477.152 59.5893 477.013 59.5011C476.873 59.4128 476.769 59.2788 476.717 59.1219C474.385 54.3128 472.005 49.3215 469.576 44.1479H469.504C467.317 49.0296 464.912 54.3515 462.58 59.1461C462.522 59.27 462.428 59.374 462.311 59.4454C462.195 59.5167 462.059 59.5523 461.922 59.5477H455.875C455.512 59.5477 455.478 59.2526 455.657 59.0348L465.638 39.8371L455.986 20.8039C455.941 20.7567 455.911 20.6969 455.901 20.6325C455.891 20.5681 455.9 20.5021 455.928 20.443C455.955 20.384 456 20.3347 456.056 20.3015C456.112 20.2684 456.177 20.2529 456.242 20.2572H462.508C462.871 20.2572 463.055 20.3298 463.161 20.6588C465.459 25.4969 467.791 30.277 469.978 35.1732H470.05C472.16 30.3641 474.492 25.4969 476.717 20.7459C476.896 20.4508 477.008 20.2621 477.371 20.2621H483.239C483.529 20.2621 483.636 20.4798 483.457 20.8088L473.839 39.2808L473.824 39.2566Z" fill="#FF2BC2"/>
</g>
<g opacity="0.7">
<path opacity="0.7" d="M110.476 35.0571L137.869 88.6684L91.8298 35.0571H110.476Z" fill="#EA6C00"/>
<path opacity="0.7" d="M165.268 35.0571L137.875 88.6684L183.914 35.0571H165.268Z" fill="#EA6C00"/>
<path opacity="0.7" d="M110.476 35.0571H165.258L137.87 88.6684L110.476 35.0571Z" fill="#FDAD00"/>
<path opacity="0.7" d="M137.869 5.34613L111.918 8.08935L110.466 35.0571L137.869 5.34613Z" fill="#FDD231"/>
<path opacity="0.7" d="M137.869 5.34613L163.816 8.08935L165.268 35.0571L137.869 5.34613Z" fill="#FDD231"/>
<path opacity="0.7" d="M183.914 35.0571L163.826 8.08936L165.278 35.0571H183.914Z" fill="#FDAD00"/>
<path opacity="0.7" d="M91.8298 35.0571L111.918 8.08936L110.466 35.0571H91.8298Z" fill="#FDAD00"/>
<path opacity="0.7" d="M137.87 5.34613L110.476 35.0571H165.258L137.87 5.34613Z" fill="#FEEEB7"/>
</g>
<defs>
<linearGradient id="paint0_linear_302_482" x1="24598.2" y1="72931.6" x2="60201.1" y2="72931.6" gradientUnits="userSpaceOnUse">
<stop stop-color="#808080" stop-opacity="0.25"/>
<stop offset="0.54" stop-color="#808080" stop-opacity="0.12"/>
<stop offset="1" stop-color="#808080" stop-opacity="0.1"/>
</linearGradient>
<linearGradient id="paint1_linear_302_482" x1="-110037" y1="46398.3" x2="-110037" y2="25252.8" gradientUnits="userSpaceOnUse">
<stop stop-color="#808080" stop-opacity="0.25"/>
<stop offset="0.54" stop-color="#808080" stop-opacity="0.12"/>
<stop offset="1" stop-color="#808080" stop-opacity="0.1"/>
</linearGradient>
</defs>
</svg>
