<svg width="563" height="289" viewBox="0 0 563 289" fill="none" xmlns="http://www.w3.org/2000/svg">
<g clip-path="url(#clip0_301_360)">
<path d="M36.9923 274.697L36.1526 274.382C35.9681 274.313 17.6025 267.276 8.99927 251.321C0.395685 235.366 4.60845 216.155 4.652 215.963L4.85028 215.088L5.68963 215.403C5.87416 215.473 24.2394 222.509 32.843 238.464C41.4466 254.42 37.2338 273.63 37.1902 273.822L36.9923 274.697ZM10.3769 250.579C17.6507 264.068 32.1637 270.983 35.8409 272.562C36.54 268.621 38.7325 252.684 31.4653 239.207C24.1989 225.731 9.68008 218.806 6.00139 217.223C5.30187 221.167 3.11009 237.102 10.3769 250.579Z" fill="#3F3D56"/>
<path d="M15.574 245.724C31.0352 255.026 36.9898 273.503 36.9898 273.503C36.9898 273.503 17.8769 276.897 2.41573 267.595C-13.0454 258.293 -19 239.817 -19 239.817C-19 239.817 0.112904 236.422 15.574 245.724Z" fill="#D0CDE1"/>
<path d="M510.383 3.55351H337.974V0H259.796V3.55351H86.6764C85.1449 3.55351 83.6284 3.85516 82.2134 4.44124C80.7985 5.02732 79.5129 5.88636 78.4299 6.96929C77.347 8.05223 76.488 9.33786 75.9019 10.7528C75.3158 12.1677 75.0142 13.6842 75.0142 15.2157V251.297C75.0142 254.39 76.2428 257.357 78.4299 259.544C80.617 261.731 83.5833 262.959 86.6764 262.959H510.383C511.914 262.959 513.431 262.658 514.846 262.072C516.261 261.486 517.547 260.627 518.629 259.544C519.712 258.461 520.571 257.175 521.158 255.76C521.744 254.345 522.045 252.829 522.045 251.297V15.2157C522.045 13.6842 521.744 12.1677 521.158 10.7528C520.571 9.33784 519.712 8.05222 518.629 6.96928C517.547 5.88635 516.261 5.02731 514.846 4.44123C513.431 3.85515 511.914 3.5535 510.383 3.55351V3.55351Z" fill="#3F3D56"/>
<path d="M506.41 24.1638H90.6494V258.695H506.41V24.1638Z" fill="#2335DC"/>
<path d="M298.174 17.7674C300.529 17.7674 302.439 15.8583 302.439 13.5032C302.439 11.1482 300.529 9.23901 298.174 9.23901C295.819 9.23901 293.91 11.1482 293.91 13.5032C293.91 15.8583 295.819 17.7674 298.174 17.7674Z" fill="#2335DC"/>
<path d="M482.542 54.013H462.834V34.3049H482.542V54.013ZM463.691 53.1562H481.685V35.1618H463.691V53.1562Z" fill="#3F3D56"/>
<path d="M533.719 254.431H493.143V251.508C493.143 251.432 493.128 251.356 493.099 251.286C493.07 251.215 493.027 251.152 492.973 251.098C492.919 251.044 492.856 251.001 492.785 250.972C492.715 250.943 492.64 250.928 492.563 250.928H478.652C478.576 250.928 478.5 250.943 478.43 250.972C478.36 251.001 478.296 251.044 478.242 251.098C478.188 251.152 478.145 251.215 478.116 251.286C478.087 251.356 478.072 251.432 478.072 251.508V254.431H469.377V251.508C469.377 251.432 469.362 251.356 469.333 251.286C469.304 251.215 469.261 251.152 469.208 251.098C469.154 251.044 469.09 251.001 469.02 250.972C468.949 250.943 468.874 250.928 468.798 250.928H454.886C454.81 250.928 454.735 250.943 454.664 250.972C454.594 251.001 454.53 251.044 454.476 251.098C454.422 251.152 454.38 251.215 454.351 251.286C454.321 251.356 454.307 251.432 454.307 251.508V254.431H445.612V251.508C445.612 251.432 445.597 251.356 445.568 251.286C445.538 251.215 445.496 251.152 445.442 251.098C445.388 251.044 445.324 251.001 445.254 250.972C445.184 250.943 445.108 250.928 445.032 250.928H431.12C431.044 250.928 430.969 250.943 430.899 250.972C430.828 251.001 430.764 251.044 430.711 251.098C430.657 251.152 430.614 251.215 430.585 251.286C430.556 251.356 430.541 251.432 430.541 251.508V254.431H421.846V251.508C421.846 251.432 421.831 251.356 421.802 251.286C421.773 251.215 421.73 251.152 421.676 251.098C421.623 251.044 421.559 251.001 421.488 250.972C421.418 250.943 421.343 250.928 421.266 250.928H407.355C407.279 250.928 407.203 250.943 407.133 250.972C407.063 251.001 406.999 251.044 406.945 251.098C406.891 251.152 406.848 251.215 406.819 251.286C406.79 251.356 406.775 251.432 406.775 251.508V254.431H398.08V251.508C398.08 251.432 398.065 251.356 398.036 251.286C398.007 251.215 397.965 251.152 397.911 251.098C397.857 251.044 397.793 251.001 397.723 250.972C397.652 250.943 397.577 250.928 397.501 250.928H383.589C383.513 250.928 383.438 250.943 383.367 250.972C383.297 251.001 383.233 251.044 383.179 251.098C383.126 251.152 383.083 251.215 383.054 251.286C383.025 251.356 383.01 251.432 383.01 251.508V254.431H374.315V251.508C374.315 251.432 374.3 251.356 374.271 251.286C374.242 251.215 374.199 251.152 374.145 251.098C374.091 251.044 374.027 251.001 373.957 250.972C373.887 250.943 373.811 250.928 373.735 250.928H359.824C359.747 250.928 359.672 250.943 359.602 250.972C359.531 251.001 359.468 251.044 359.414 251.098C359.36 251.152 359.317 251.215 359.288 251.286C359.259 251.356 359.244 251.432 359.244 251.508V254.431H350.549V251.508C350.549 251.432 350.534 251.356 350.505 251.286C350.476 251.215 350.433 251.152 350.379 251.098C350.326 251.044 350.262 251.001 350.191 250.972C350.121 250.943 350.046 250.928 349.97 250.928H240.995C240.919 250.928 240.844 250.943 240.774 250.972C240.703 251.001 240.639 251.044 240.585 251.098C240.532 251.152 240.489 251.215 240.46 251.286C240.431 251.356 240.416 251.432 240.416 251.508V254.431H231.721V251.508C231.721 251.432 231.706 251.356 231.677 251.286C231.648 251.215 231.605 251.152 231.551 251.098C231.497 251.044 231.433 251.001 231.363 250.972C231.293 250.943 231.217 250.928 231.141 250.928H217.23C217.154 250.928 217.078 250.943 217.008 250.972C216.938 251.001 216.874 251.044 216.82 251.098C216.766 251.152 216.723 251.215 216.694 251.286C216.665 251.356 216.65 251.432 216.65 251.508V254.431H207.955V251.508C207.955 251.432 207.94 251.356 207.911 251.286C207.882 251.215 207.839 251.152 207.786 251.098C207.732 251.044 207.668 251.001 207.597 250.972C207.527 250.943 207.452 250.928 207.376 250.928H193.464C193.388 250.928 193.313 250.943 193.242 250.972C193.172 251.001 193.108 251.044 193.054 251.098C193 251.152 192.958 251.215 192.929 251.286C192.899 251.356 192.884 251.432 192.884 251.508V254.431H184.19V251.508C184.19 251.432 184.175 251.356 184.146 251.286C184.116 251.215 184.074 251.152 184.02 251.098C183.966 251.044 183.902 251.001 183.832 250.972C183.762 250.943 183.686 250.928 183.61 250.928H169.698C169.622 250.928 169.547 250.943 169.477 250.972C169.406 251.001 169.342 251.044 169.289 251.098C169.235 251.152 169.192 251.215 169.163 251.286C169.134 251.356 169.119 251.432 169.119 251.508V254.431H160.424V251.508C160.424 251.432 160.409 251.356 160.38 251.286C160.351 251.215 160.308 251.152 160.254 251.098C160.2 251.044 160.137 251.001 160.066 250.972C159.996 250.943 159.92 250.928 159.844 250.928H145.933C145.857 250.928 145.781 250.943 145.711 250.972C145.641 251.001 145.577 251.044 145.523 251.098C145.469 251.152 145.426 251.215 145.397 251.286C145.368 251.356 145.353 251.432 145.353 251.508V254.431H136.658V251.508C136.658 251.432 136.643 251.356 136.614 251.286C136.585 251.215 136.542 251.152 136.489 251.098C136.435 251.044 136.371 251.001 136.301 250.972C136.23 250.943 136.155 250.928 136.079 250.928H122.167C122.091 250.928 122.016 250.943 121.945 250.972C121.875 251.001 121.811 251.044 121.757 251.098C121.703 251.152 121.661 251.215 121.632 251.286C121.602 251.356 121.587 251.432 121.587 251.508V254.431H112.893V251.508C112.893 251.432 112.878 251.356 112.849 251.286C112.819 251.215 112.777 251.152 112.723 251.098C112.669 251.044 112.605 251.001 112.535 250.972C112.465 250.943 112.389 250.928 112.313 250.928H98.4015C98.3254 250.928 98.25 250.943 98.1796 250.972C98.1093 251.001 98.0454 251.044 97.9916 251.098C97.9378 251.152 97.8951 251.215 97.8659 251.286C97.8368 251.356 97.8218 251.432 97.8218 251.508V254.431H71.1579C67.4683 254.431 63.9299 255.897 61.321 258.506C58.712 261.115 57.2463 264.653 57.2463 268.343V274.633C57.2463 278.323 58.712 281.861 61.321 284.47C63.9299 287.079 67.4684 288.545 71.1579 288.545H533.719C537.408 288.545 540.947 287.079 543.556 284.47C546.164 281.861 547.63 278.323 547.63 274.633V268.343C547.63 264.653 546.164 261.115 543.556 258.506C540.947 255.897 537.408 254.431 533.719 254.431V254.431Z" fill="#3F3D56"/>
<path d="M604.851 274.273H0.0266113V276.118H604.851V274.273Z" fill="#3F3D56"/>
<path d="M480.709 154.849H346.847V78.6409H480.709V154.849ZM348.173 153.524H479.383V79.9662H348.173V153.524Z" fill="#3F3D56"/>
<path d="M235.517 170.091H116.234V95.8705H235.517V170.091ZM117.559 168.765H234.191V97.1958H117.559V168.765Z" fill="#3F3D56"/>
<path d="M171.962 141.595L171.848 140.113C171.506 137.036 172.532 133.674 175.381 130.255C177.946 127.234 179.37 125.012 179.37 122.447C179.37 119.541 177.547 117.603 173.956 117.546C171.903 117.538 169.895 118.154 168.2 119.313L166.833 115.722C168.713 114.354 171.962 113.443 174.982 113.443C181.536 113.443 184.499 117.489 184.499 121.82C184.499 125.696 182.334 128.488 179.598 131.736C177.091 134.699 176.179 137.207 176.35 140.113L176.407 141.595L171.962 141.595ZM170.708 149.574C170.677 149.109 170.743 148.643 170.902 148.205C171.061 147.767 171.309 147.366 171.63 147.029C171.951 146.691 172.339 146.424 172.769 146.244C173.199 146.065 173.661 145.976 174.127 145.984C176.122 145.984 177.49 147.465 177.49 149.574C177.509 150.031 177.435 150.487 177.273 150.915C177.111 151.343 176.864 151.734 176.548 152.064C176.231 152.394 175.851 152.656 175.43 152.836C175.009 153.015 174.556 153.108 174.099 153.108C173.641 153.108 173.189 153.015 172.768 152.836C172.347 152.656 171.967 152.394 171.65 152.064C171.333 151.734 171.087 151.343 170.925 150.915C170.763 150.487 170.689 150.031 170.708 149.574V149.574Z" fill="#D0CDE1"/>
<path d="M409.864 125.028L409.75 123.546C409.409 120.469 410.434 117.107 413.284 113.688C415.848 110.667 417.273 108.445 417.273 105.88C417.273 102.974 415.449 101.036 411.859 100.979C409.805 100.971 407.798 101.587 406.103 102.746L404.735 99.1554C406.616 97.7873 409.864 96.8755 412.885 96.8755C419.439 96.8755 422.402 100.922 422.402 105.253C422.402 109.129 420.236 111.921 417.501 115.169C414.993 118.132 414.082 120.64 414.252 123.546L414.309 125.028L409.864 125.028ZM408.611 133.007C408.58 132.542 408.646 132.076 408.805 131.638C408.963 131.2 409.211 130.799 409.533 130.462C409.854 130.124 410.242 129.857 410.672 129.677C411.101 129.498 411.564 129.409 412.03 129.417C414.025 129.417 415.392 130.898 415.392 133.007C415.411 133.464 415.337 133.92 415.176 134.348C415.014 134.776 414.767 135.167 414.45 135.497C414.133 135.827 413.753 136.089 413.332 136.269C412.912 136.448 412.459 136.541 412.002 136.541C411.544 136.541 411.091 136.448 410.671 136.269C410.25 136.089 409.87 135.827 409.553 135.497C409.236 135.167 408.989 134.776 408.827 134.348C408.666 133.92 408.592 133.464 408.611 133.007V133.007Z" fill="#D0CDE1"/>
<path d="M300.871 230.044C332.453 230.044 358.056 204.441 358.056 172.86C358.056 141.278 332.453 115.675 300.871 115.675C269.289 115.675 243.687 141.278 243.687 172.86C243.687 204.441 269.289 230.044 300.871 230.044Z" fill="#2F2E41"/>
<path d="M278.785 251.168L261.69 248.073L267.235 212.378L284.329 215.473L278.785 251.168Z" fill="#2F2E41"/>
<path d="M318.519 221.662L301.424 218.568L295.88 249.196L312.974 252.29L318.519 221.662Z" fill="#2F2E41"/>
<path d="M324.4 253.958C324.993 251.019 319.121 247.354 311.284 245.772C303.446 244.19 296.612 245.29 296.019 248.229C295.425 251.168 301.298 254.833 309.135 256.415C316.972 257.997 323.807 256.897 324.4 253.958Z" fill="#2F2E41"/>
<path d="M288.795 253.035C289.189 250.063 283.083 246.802 275.156 245.752C267.23 244.702 260.486 246.261 260.092 249.233C259.698 252.205 265.804 255.466 273.731 256.516C281.657 257.566 288.401 256.008 288.795 253.035Z" fill="#2F2E41"/>
<path d="M304.875 178.416C315.669 178.416 324.419 169.666 324.419 158.872C324.419 148.078 315.669 139.328 304.875 139.328C294.081 139.328 285.331 148.078 285.331 158.872C285.331 169.666 294.081 178.416 304.875 178.416Z" fill="white"/>
<path d="M312.907 158.381C316.505 158.381 319.422 155.464 319.422 151.866C319.422 148.269 316.505 145.352 312.907 145.352C309.309 145.352 306.393 148.269 306.393 151.866C306.393 155.464 309.309 158.381 312.907 158.381Z" fill="#3F3D56"/>
<path d="M255.761 110.649C254.901 89.4788 273.147 71.5473 296.514 70.5981C319.882 69.6489 339.522 86.0414 340.382 107.212C341.242 128.382 324.999 133.192 301.631 134.142C278.264 135.091 256.621 131.82 255.761 110.649Z" fill="white"/>
<path d="M355.679 171.191C371.07 167.662 382.65 160.885 381.542 156.053C380.435 151.221 367.06 150.164 351.668 153.692C336.276 157.221 324.696 163.998 325.804 168.83C326.911 173.662 340.287 174.719 355.679 171.191Z" fill="#2F2E41"/>
<path d="M243.428 189.858C258.82 186.33 270.399 179.552 269.292 174.721C268.184 169.889 254.809 168.832 239.417 172.36C224.025 175.888 212.445 182.665 213.553 187.497C214.661 192.329 228.036 193.386 243.428 189.858Z" fill="#2F2E41"/>
<path d="M285.166 195.395C284.861 197.079 284.891 198.806 285.254 200.478C285.616 202.15 286.305 203.735 287.28 205.141C288.255 206.547 289.497 207.747 290.936 208.673C292.375 209.599 293.982 210.232 295.666 210.537C297.35 210.842 299.077 210.812 300.749 210.449C302.421 210.086 304.005 209.398 305.411 208.423C306.817 207.448 308.018 206.206 308.944 204.767C309.87 203.328 310.503 201.721 310.808 200.037C312.09 192.956 306.615 190.451 299.534 189.169C292.453 187.887 286.448 188.314 285.166 195.395Z" fill="white"/>
<path d="M177.433 8.69592H83.4075V98.1362H177.433V8.69592Z" fill="#D0CDE1"/>
<path d="M166.748 19.3806H94.0918V74.9413H166.748V19.3806Z" fill="white"/>
<path d="M133.54 81.496H94.02V83.576H133.54V81.496Z" fill="#F2F2F2"/>
<path d="M133.54 87.7362H94.02V89.8162H133.54V87.7362Z" fill="#F2F2F2"/>
<path d="M107.02 55.4961C111.615 55.4961 115.34 51.7711 115.34 47.1761C115.34 42.5811 111.615 38.8561 107.02 38.8561C102.425 38.8561 98.7 42.5811 98.7 47.1761C98.7 51.7711 102.425 55.4961 107.02 55.4961Z" fill="#3F3D56"/>
<path d="M130.42 55.4961C135.015 55.4961 138.74 51.7711 138.74 47.1761C138.74 42.5811 135.015 38.8561 130.42 38.8561C125.825 38.8561 122.1 42.5811 122.1 47.1761C122.1 51.7711 125.825 55.4961 130.42 55.4961Z" fill="#2335DC"/>
<path d="M153.82 55.4961C158.415 55.4961 162.14 51.7711 162.14 47.1761C162.14 42.5811 158.415 38.8561 153.82 38.8561C149.225 38.8561 145.5 42.5811 145.5 47.1761C145.5 51.7711 149.225 55.4961 153.82 55.4961Z" fill="#E6E6E6"/>
<path d="M130.42 18.056C132.717 18.056 134.58 16.1935 134.58 13.896C134.58 11.5985 132.717 9.73596 130.42 9.73596C128.122 9.73596 126.26 11.5985 126.26 13.896C126.26 16.1935 128.122 18.056 130.42 18.056Z" fill="#3F3D56"/>
<path d="M222.156 181.879H128.13V271.319H222.156V181.879Z" fill="#D0CDE1"/>
<path d="M211.471 192.563H138.815V248.124H211.471V192.563Z" fill="white"/>
<path d="M180.274 201.694H154.802V227.166H180.274V201.694Z" fill="#2335DC"/>
<path d="M164.553 208.064V238.993H195.483V208.064H164.553ZM194.141 237.652H165.895V209.405H194.141V237.652Z" fill="#3F3D56"/>
<path d="M178.263 253.639H138.743V255.719H178.263V253.639Z" fill="#F2F2F2"/>
<path d="M175.142 191.239C177.44 191.239 179.302 189.376 179.302 187.079C179.302 184.781 177.44 182.919 175.142 182.919C172.845 182.919 170.982 184.781 170.982 187.079C170.982 189.376 172.845 191.239 175.142 191.239Z" fill="#3F3D56"/>
<path d="M466.959 155.102H372.934V244.543H466.959V155.102Z" fill="#D0CDE1"/>
<path d="M456.275 165.787H383.618V221.348H456.275V165.787Z" fill="white"/>
<path d="M427.762 209.283H412.131V213.915H427.762V209.283Z" fill="#3F3D56"/>
<path d="M446.658 173.22H393.235V175.205H446.658V173.22Z" fill="#3F3D56"/>
<path d="M446.658 179.506H393.235V181.491H446.658V179.506Z" fill="#3F3D56"/>
<path d="M446.658 185.792H393.235V187.778H446.658V185.792Z" fill="#3F3D56"/>
<path d="M446.658 192.079H393.235V194.064H446.658V192.079Z" fill="#3F3D56"/>
<path d="M446.658 198.365H393.235V200.35H446.658V198.365Z" fill="#3F3D56"/>
<path d="M423.067 226.863H383.547V228.943H423.067V226.863Z" fill="#F2F2F2"/>
<path d="M438.667 232.062H383.547V234.142H438.667V232.062Z" fill="#F2F2F2"/>
<path d="M419.947 164.462C422.244 164.462 424.107 162.6 424.107 160.302C424.107 158.005 422.244 156.142 419.947 156.142C417.649 156.142 415.787 158.005 415.787 160.302C415.787 162.6 417.649 164.462 419.947 164.462Z" fill="#3F3D56"/>
</g>
<defs>
<clipPath id="clip0_301_360">
<rect width="563" height="289" fill="white"/>
</clipPath>
</defs>
</svg>
