<svg width="509" height="337" viewBox="0 0 509 337" fill="none" xmlns="http://www.w3.org/2000/svg">
<g clip-path="url(#clip0_301_410)">
<path d="M352.662 152.61L355.827 151.37C356.13 151.251 356.429 151.122 356.746 150.998C350.888 148.841 345.939 144.755 342.711 139.413C339.484 134.07 338.171 127.788 338.988 121.599C339.804 115.411 342.703 109.685 347.206 105.362C351.709 101.039 357.549 98.3778 363.765 97.8147L361.56 108.932L369.93 97.9434H370.004C377.229 98.9367 383.763 102.759 388.171 108.57C392.578 114.38 394.497 121.704 393.506 128.929C393.437 129.448 393.327 129.953 393.23 130.463C395.807 128.428 398.224 126.182 400.034 123.573C403.709 118.271 404.954 111.739 406.222 103.741C408.734 87.9012 410.999 71.887 413.039 55.8819C406.776 53.9923 401.392 49.9306 397.855 44.4269C394.319 38.9232 392.861 32.3386 393.745 25.8565C393.86 25.0204 394.02 24.2073 394.204 23.4033C394.25 23.2012 394.296 22.9991 394.346 22.8015C394.544 22.0252 394.765 21.2626 395.022 20.5046C395.063 20.3806 395.118 20.2657 395.16 20.1463C395.389 19.5169 395.619 18.8968 395.918 18.3087C396.019 18.0791 396.12 17.8494 396.225 17.6334C396.542 16.9765 396.878 16.3334 397.245 15.7086C397.369 15.5019 397.502 15.3044 397.627 15.0976C397.911 14.6382 398.21 14.1789 398.518 13.7516C398.683 13.5219 398.844 13.2922 399.014 13.0671L399.138 12.888C403.038 7.78272 408.605 4.20578 414.869 2.779C421.133 1.35223 427.7 2.16585 433.426 5.07842L430.56 19.5445L438.829 8.6846C443.277 12.4528 446.403 17.5442 447.752 23.2155C449.101 28.8867 448.601 34.8406 446.326 40.2077H446.358C446.28 40.3914 446.184 40.566 446.106 40.7498C445.954 41.0897 445.798 41.4251 445.646 41.7604C445.435 42.1876 445.187 42.6057 444.98 43.0191C444.805 43.3315 444.636 43.6439 444.447 43.9379C444.176 44.3973 443.882 44.8107 443.588 45.238C443.414 45.486 443.253 45.7433 443.074 45.9868C442.614 46.6253 442.1 47.2363 441.576 47.8243C441.392 48.031 441.195 48.2194 441.002 48.4215C440.63 48.8166 440.258 49.2071 439.862 49.5792C439.619 49.8089 439.362 50.0386 439.109 50.2499C438.746 50.5714 438.374 50.8838 437.993 51.1686C437.722 51.3846 437.446 51.5913 437.17 51.7934C436.771 52.0828 436.367 52.3539 435.958 52.6249C435.682 52.8041 435.406 52.9832 435.126 53.1532C434.667 53.4334 434.184 53.6907 433.702 53.9433C433.459 54.0674 433.243 54.2052 432.972 54.3246C432.246 54.6784 431.502 55.0045 430.744 55.2939C430.601 55.3491 430.45 55.3904 430.307 55.4409C429.673 55.6706 429.035 55.9003 428.387 56.0611C428.107 56.1392 427.822 56.2035 427.537 56.2724C427.009 56.4011 426.476 56.5205 425.938 56.6216C425.632 56.6767 425.315 56.7272 424.988 56.7732C424.459 56.8513 423.926 56.911 423.389 56.9569C423.072 56.9845 422.76 57.012 422.438 57.0304C421.859 57.058 421.276 57.0626 420.692 57.058C420.654 57.0557 420.616 57.0557 420.577 57.058C419.714 63.7956 418.807 70.5333 417.858 77.271C420.086 74.2633 422.904 71.7425 426.141 69.8631C429.378 67.9836 432.965 66.7852 436.681 66.3413C440.397 65.8974 444.165 66.2174 447.754 67.2816C451.342 68.3458 454.675 70.1318 457.549 72.5301L450.346 84.7406L461.927 77.1194C466.306 82.9147 468.206 90.2109 467.21 97.4059C466.87 99.9321 466.174 102.397 465.143 104.728C462.932 109.776 459.255 114.042 454.59 116.973C449.924 119.905 444.485 121.367 438.978 121.168C433.472 120.97 428.152 119.122 423.709 115.863C419.266 112.603 415.906 108.084 414.063 102.891C413.958 103.571 413.857 104.269 413.751 104.94C412.63 111.991 411.238 120.77 406.295 127.909C402.946 132.76 398.334 136.343 393.85 139.495C390.935 141.547 387.952 143.502 384.902 145.361C381.7 148.33 377.837 150.494 373.633 151.673C368.733 154.181 363.727 156.449 358.615 158.477L355.423 159.726C352.552 160.847 349.611 161.996 346.694 163.218C347.154 163.259 347.613 163.296 348.073 163.355C353.853 164.149 359.231 166.76 363.431 170.81C367.631 174.86 370.434 180.14 371.437 185.888L352 196.505L371.377 195.636C370.601 199.933 368.802 203.98 366.131 207.433C361.75 213.105 355.327 216.843 348.231 217.85C341.135 218.857 333.927 217.055 328.14 212.827L329.104 214.623C329.748 215.808 330.382 216.989 330.997 218.16C339.418 234.119 340.029 247.901 332.72 256.974L326.748 252.173C333.864 243.344 328.218 229.309 324.221 221.73C323.615 220.581 322.99 219.433 322.384 218.257C316.977 208.228 310.844 196.863 313.302 184.767C316.977 166.53 336.753 158.812 352.662 152.61Z" fill="#F2F2F2"/>
<path d="M123.85 239.076L121.379 238.106C121.14 238.015 120.92 237.909 120.672 237.817C125.244 236.131 129.108 232.939 131.627 228.766C134.146 224.593 135.17 219.688 134.532 214.856C133.894 210.024 131.631 205.552 128.116 202.176C124.6 198.801 120.04 196.721 115.186 196.279L116.909 204.962L110.377 196.38H110.317C107.521 196.762 104.828 197.691 102.391 199.114C99.9543 200.537 97.8218 202.426 96.1154 204.674C94.4089 206.921 93.162 209.483 92.4458 212.212C91.7297 214.941 91.5583 217.785 91.9415 220.581C91.9966 220.99 92.0839 221.38 92.1574 221.78C90.1306 220.256 88.341 218.44 86.8469 216.391C83.9849 212.257 83.0018 207.148 82.0096 200.905C80.0664 188.534 78.3023 176.03 76.7174 163.543C81.6069 162.065 85.809 158.892 88.5683 154.593C91.3277 150.295 92.4635 145.153 91.7715 140.092C91.6797 139.439 91.5556 138.806 91.4086 138.176L91.2984 137.717C91.1422 137.11 90.9722 136.513 90.7701 135.934C90.7379 135.838 90.6966 135.746 90.6598 135.654C90.4807 135.163 90.2831 134.68 90.0718 134.207C89.9891 134.033 89.911 133.853 89.8283 133.679C89.5803 133.169 89.3184 132.668 89.0336 132.181C88.9371 132.016 88.8315 131.86 88.735 131.722C88.5099 131.363 88.2756 131.01 88.0367 130.67C87.9081 130.491 87.7841 130.307 87.6508 130.132L87.5544 129.995C84.5081 126.008 80.1625 123.213 75.2714 122.096C70.3802 120.978 65.2522 121.608 60.7767 123.875L63.0185 135.176L56.555 126.696C53.0818 129.639 50.6401 133.615 49.5865 138.044C48.5328 142.473 48.9221 147.123 50.6978 151.315H50.6748C50.7345 151.457 50.8081 151.595 50.8724 151.737C50.9918 152.004 51.1112 152.266 51.2399 152.527C51.4053 152.858 51.5798 153.184 51.7636 153.506C51.8968 153.754 52.03 153.997 52.177 154.236C52.3883 154.581 52.6364 154.916 52.8477 155.252C52.9855 155.445 53.1096 155.647 53.252 155.835C53.6195 156.331 54.01 156.809 54.4188 157.273C54.5612 157.434 54.7174 157.581 54.8782 157.732C55.1676 158.04 55.4616 158.343 55.7694 158.651C55.9578 158.835 56.1599 159.005 56.3574 159.175C56.6423 159.429 56.9317 159.672 57.2257 159.905C57.437 160.071 57.6529 160.231 57.8688 160.392C58.1812 160.617 58.4982 160.851 58.8152 161.04C59.0311 161.182 59.247 161.32 59.4675 161.453C59.8304 161.674 60.2025 161.871 60.5792 162.069C60.7721 162.17 60.9559 162.276 61.1488 162.372C61.7185 162.648 62.2973 162.9 62.8899 163.125C63.0002 163.171 63.1196 163.199 63.2299 163.24C63.7214 163.419 64.2221 163.585 64.7321 163.727C64.948 163.787 65.1914 163.837 65.3936 163.888C65.807 163.989 66.2205 164.086 66.6431 164.164L67.3827 164.283C67.7962 164.343 68.2142 164.389 68.6322 164.426C68.8803 164.448 69.1238 164.467 69.3764 164.481C69.8358 164.504 70.2952 164.508 70.7546 164.504H70.8419C71.5157 169.777 72.2231 175.047 72.9643 180.311C71.2275 177.959 69.0283 175.986 66.5017 174.515C63.9751 173.043 61.1743 172.103 58.2714 171.753C55.3684 171.403 52.4246 171.65 49.6204 172.478C46.8163 173.307 44.2112 174.7 41.9649 176.572L47.5418 186.053L38.5011 180.104C36.8053 182.344 35.5674 184.897 34.858 187.615C34.1486 190.334 33.9816 193.166 34.3666 195.949C34.6333 197.924 35.1793 199.851 35.9882 201.673C37.7151 205.614 40.5866 208.946 44.2302 211.235C47.8739 213.524 52.1214 214.666 56.4218 214.511C60.7222 214.357 64.8769 212.913 68.3468 210.368C71.8168 207.823 74.4418 204.294 75.8814 200.239C75.964 200.768 76.0421 201.305 76.1248 201.838C76.9977 207.351 78.0864 214.205 81.9453 219.791C84.5638 223.576 88.1653 226.374 91.6659 228.836C93.9444 230.441 96.2735 231.972 98.6531 233.43C101.155 235.748 104.172 237.439 107.455 238.364C111.277 240.321 115.191 242.103 119.188 243.674L121.678 244.653C123.919 245.526 126.216 246.421 128.481 247.377C128.123 247.409 127.76 247.437 127.397 247.487C122.885 248.105 118.686 250.141 115.406 253.301C112.126 256.461 109.936 260.582 109.15 265.068L124.31 273.337L109.178 272.662C109.844 276.231 111.404 279.574 113.712 282.377C116.019 285.181 119 287.354 122.375 288.693C125.75 290.033 129.41 290.495 133.012 290.038C136.614 289.58 140.042 288.217 142.975 286.076C142.722 286.535 142.474 286.994 142.221 287.477C141.721 288.395 141.224 289.314 140.742 290.233C134.168 302.696 133.691 313.464 139.401 320.553L144.054 316.804C138.496 309.913 142.906 298.948 146.03 293.026C146.489 292.13 146.99 291.225 147.481 290.316C151.703 282.506 156.49 273.608 154.583 264.158C151.731 249.945 136.272 243.936 123.85 239.076Z" fill="#F2F2F2"/>
<path d="M254.5 336.544C395.056 336.544 509 331.71 509 325.748C509 319.786 395.056 314.953 254.5 314.953C113.944 314.953 0 319.786 0 325.748C0 331.71 113.944 336.544 254.5 336.544Z" fill="#3F3D56"/>
<path opacity="0.1" d="M254.5 336.544C395.056 336.544 509 331.71 509 325.748C509 319.786 395.056 314.953 254.5 314.953C113.944 314.953 0 319.786 0 325.748C0 331.71 113.944 336.544 254.5 336.544Z" fill="black"/>
<path d="M254.5 330.572C395.056 330.572 509 325.739 509 319.776C509 313.814 395.056 308.981 254.5 308.981C113.944 308.981 0 313.814 0 319.776C0 325.739 113.944 330.572 254.5 330.572Z" fill="#3F3D56"/>
<path d="M39.0478 315.936C37.6697 313.405 39.2316 310.304 41.014 308.043C42.7964 305.783 44.9693 303.45 44.9234 300.56C44.8591 296.426 40.4674 293.986 36.9622 291.795C34.3615 290.168 31.9622 288.239 29.8142 286.048C28.9163 285.204 28.1732 284.209 27.6183 283.108C26.8925 281.491 26.9155 279.653 26.9614 277.88C27.1145 271.982 27.4055 266.089 27.8342 260.203" stroke="#3F3D56" stroke-width="1.83755" stroke-miterlimit="10"/>
<path d="M21.1824 259.877C21.232 258.798 21.5526 257.749 22.1146 256.826C22.6766 255.904 23.462 255.138 24.3981 254.599L25.8406 257.451L25.7992 253.997C26.4871 253.792 27.2047 253.705 27.9216 253.74C29.1909 253.802 30.4134 254.238 31.4347 254.995C32.456 255.751 33.2304 256.793 33.6601 257.989C34.0897 259.185 34.1555 260.481 33.849 261.714C33.5425 262.948 32.8774 264.063 31.9379 264.918C30.9983 265.774 29.8263 266.332 28.5697 266.522C27.3132 266.712 26.0285 266.526 24.8778 265.987C23.7271 265.447 22.762 264.579 22.1043 263.492C21.4466 262.404 21.1258 261.146 21.1824 259.877V259.877Z" fill="#2335DC"/>
<path d="M32.6808 303.519C33.3215 304.794 34.3681 305.82 35.6558 306.435C36.9435 307.05 38.3992 307.219 39.7937 306.916C41.1882 306.613 42.4423 305.854 43.3585 304.76C44.2747 303.666 44.801 302.299 44.8546 300.872C44.9004 299.981 44.758 299.091 44.4365 298.259C43.9744 297.027 43.1459 295.967 42.0627 295.221C40.9795 294.475 39.6936 294.08 38.3785 294.087C37.0633 294.095 35.782 294.505 34.7074 295.263C33.6328 296.022 32.8165 297.091 32.3684 298.327L36.3973 301.603L31.9688 300.574C31.9663 301.598 32.2105 302.608 32.6808 303.519V303.519Z" fill="#2335DC"/>
<path d="M35.8643 291C37.4708 291.122 39.0645 290.636 40.33 289.639C41.5955 288.642 42.4406 287.206 42.6981 285.615C42.9557 284.025 42.6069 282.396 41.7209 281.05C40.8348 279.705 39.476 278.741 37.9132 278.349L37.9453 281.009L36.4845 278.119C34.7757 278.039 33.1052 278.642 31.8405 279.793C30.5758 280.945 29.8205 282.552 29.7407 284.261C29.6609 285.97 30.2631 287.64 31.415 288.905C32.5668 290.17 34.1739 290.925 35.8827 291.005L35.8643 291Z" fill="#2335DC"/>
<path d="M20.2129 280.586C21.0575 280.626 21.9017 280.499 22.6972 280.212C23.4927 279.926 24.224 279.486 24.8494 278.917C25.4748 278.348 25.9819 277.661 26.3419 276.896C26.7019 276.131 26.9077 275.302 26.9475 274.458C26.9873 273.613 26.8604 272.769 26.574 271.974C26.2876 271.178 25.8473 270.447 25.2782 269.821C24.7091 269.196 24.0225 268.689 23.2574 268.329C22.4924 267.969 21.6639 267.763 20.8193 267.723C19.6136 267.663 18.4156 267.947 17.3647 268.541L18.504 271.665L16.1565 269.414C14.901 270.564 14.1527 272.164 14.0755 273.865C14.0444 274.46 14.1001 275.055 14.2409 275.634C14.5615 276.997 15.3183 278.218 16.3961 279.112C17.474 280.006 18.8141 280.523 20.2129 280.586V280.586Z" fill="#2335DC"/>
<path opacity="0.1" d="M22.0505 261.595C23.5389 261.76 24.986 262.224 26.479 262.316C27.972 262.408 29.612 262.05 30.5583 260.892C31.0682 260.263 31.3209 259.473 31.7481 258.793C32.1573 258.158 32.7156 257.633 33.3744 257.263C33.7634 258.076 33.9771 258.962 34.0017 259.863C34.0263 260.764 33.8612 261.66 33.5171 262.493C33.173 263.327 32.6576 264.078 32.0044 264.699C31.3512 265.32 30.5747 265.797 29.7252 266.099C28.8758 266.401 27.9725 266.52 27.0738 266.451C26.1751 266.381 25.3012 266.123 24.5086 265.693C23.7161 265.264 23.0227 264.672 22.4734 263.958C21.9241 263.243 21.5311 262.421 21.3201 261.545C21.5635 261.554 21.807 261.572 22.0505 261.595Z" fill="black"/>
<path opacity="0.1" d="M20.2129 280.586C21.3248 280.643 22.4324 280.409 23.4271 279.909C24.4219 279.409 25.2699 278.66 25.888 277.734C26.5061 276.808 26.8732 275.737 26.9535 274.626C27.0337 273.516 26.8243 272.404 26.3457 271.398C25.8339 271.744 25.394 272.185 25.0502 272.698C24.5908 273.392 24.3106 274.191 23.7731 274.83C22.7671 276.011 21.0536 276.397 19.4962 276.323C17.9389 276.25 16.4367 275.813 14.9024 275.671C14.6865 275.671 14.4706 275.634 14.2546 275.629C14.5738 276.991 15.3281 278.212 16.4032 279.106C17.4784 280.001 18.8158 280.52 20.2129 280.586V280.586Z" fill="black"/>
<path opacity="0.1" d="M35.8643 291C36.9663 291.057 38.0643 290.829 39.0527 290.339C40.0412 289.848 40.8868 289.112 41.5084 288.2C42.1299 287.288 42.5064 286.232 42.6016 285.133C42.6969 284.033 42.5077 282.928 42.0522 281.923C41.5166 282.271 41.0494 282.715 40.6741 283.232C40.1733 283.94 39.861 284.753 39.2959 285.405C38.2118 286.618 36.3834 287.045 34.7342 287.004C33.085 286.962 31.6012 286.576 30.0117 286.457C30.3997 287.725 31.1703 288.843 32.218 289.656C33.2658 290.469 34.5393 290.939 35.8643 291V291Z" fill="black"/>
<path opacity="0.1" d="M32.6807 303.519C33.3213 304.794 34.3679 305.82 35.6556 306.435C36.9433 307.05 38.399 307.219 39.7935 306.916C41.188 306.613 42.4421 305.855 43.3583 304.76C44.2746 303.666 44.8009 302.299 44.8544 300.873C44.9003 299.982 44.7578 299.091 44.4364 298.259C43.9052 298.606 43.4284 299.03 43.0214 299.517C42.4059 300.266 42.0062 301.111 41.2942 301.814C39.9757 303.11 37.8488 303.652 35.9561 303.693C34.8618 303.698 33.7682 303.639 32.6807 303.519V303.519Z" fill="black"/>
<path d="M48.7823 313.023C48.7823 313.023 43.6923 312.867 42.1625 311.774C40.6328 310.68 34.353 309.376 33.9533 311.131C33.5536 312.885 26.3045 319.859 32.0514 319.887C37.7984 319.914 45.4012 318.968 46.931 318.049C48.4607 317.13 48.7823 313.023 48.7823 313.023Z" fill="#656380"/>
<path opacity="0.2" d="M31.9456 319.276C37.6925 319.321 45.2953 318.357 46.8297 317.438C47.9919 316.731 48.4559 314.181 48.6121 313.005H48.7821C48.7821 313.005 48.4605 317.107 46.9445 318.058C45.4286 319.009 37.8073 319.932 32.065 319.896C30.4066 319.896 29.8324 319.294 29.8646 318.416C30.0805 318.936 30.7144 319.276 31.9456 319.276Z" fill="black"/>
<path d="M484.653 320.07C483.274 317.539 484.836 314.438 486.619 312.178C488.401 309.918 490.574 307.584 490.528 304.695C490.464 300.56 486.072 298.121 482.567 295.93C479.966 294.302 477.567 292.373 475.419 290.183C474.521 289.338 473.778 288.343 473.223 287.243C472.497 285.626 472.52 283.788 472.566 282.015C472.716 276.116 473.007 270.224 473.439 264.338" stroke="#3F3D56" stroke-width="1.83755" stroke-miterlimit="10"/>
<path d="M466.787 264.011C466.836 262.932 467.157 261.883 467.719 260.961C468.281 260.038 469.066 259.272 470.003 258.733L471.445 261.586L471.404 258.131C472.092 257.927 472.809 257.84 473.526 257.874C474.795 257.937 476.017 258.374 477.038 259.131C478.058 259.888 478.832 260.93 479.261 262.126C479.69 263.322 479.755 264.618 479.448 265.851C479.141 267.084 478.476 268.199 477.536 269.054C476.596 269.909 475.424 270.467 474.168 270.657C472.912 270.847 471.627 270.66 470.477 270.121C469.326 269.581 468.362 268.713 467.704 267.626C467.046 266.538 466.726 265.281 466.782 264.011H466.787Z" fill="#2335DC"/>
<path d="M478.285 307.653C478.926 308.928 479.973 309.954 481.26 310.569C482.548 311.184 484.004 311.354 485.398 311.05C486.793 310.747 488.047 309.989 488.963 308.895C489.879 307.801 490.406 306.433 490.459 305.007C490.505 304.116 490.362 303.225 490.041 302.393C489.579 301.162 488.75 300.102 487.667 299.356C486.584 298.61 485.298 298.214 483.983 298.222C482.668 298.229 481.387 298.64 480.312 299.398C479.237 300.156 478.421 301.225 477.973 302.462L482.002 305.737L477.573 304.708C477.571 305.733 477.815 306.743 478.285 307.653V307.653Z" fill="#2335DC"/>
<path d="M481.469 295.135C483.075 295.256 484.669 294.77 485.934 293.773C487.2 292.776 488.045 291.34 488.303 289.75C488.56 288.159 488.211 286.53 487.325 285.185C486.439 283.839 485.08 282.875 483.518 282.483L483.55 285.143L482.089 282.254C480.38 282.174 478.71 282.776 477.445 283.928C476.18 285.08 475.425 286.687 475.345 288.396C475.265 290.104 475.868 291.775 477.019 293.04C478.171 294.304 479.778 295.06 481.487 295.139L481.469 295.135Z" fill="#2335DC"/>
<path d="M465.818 284.721C467.524 284.801 469.191 284.2 470.454 283.051C471.717 281.902 472.472 280.298 472.553 278.592C472.633 276.887 472.032 275.219 470.883 273.956C469.734 272.693 468.13 271.938 466.424 271.858C465.219 271.798 464.021 272.081 462.97 272.675L464.109 275.799L461.762 273.548C460.506 274.698 459.758 276.299 459.68 278C459.649 278.594 459.705 279.19 459.846 279.768C460.167 281.131 460.923 282.353 462.001 283.246C463.079 284.14 464.419 284.658 465.818 284.721V284.721Z" fill="#2335DC"/>
<path opacity="0.1" d="M467.655 265.729C469.144 265.895 470.591 266.359 472.084 266.451C473.577 266.543 475.217 266.184 476.163 265.027C476.673 264.397 476.926 263.607 477.353 262.927C477.762 262.292 478.32 261.767 478.979 261.397C479.368 262.211 479.582 263.096 479.606 263.998C479.631 264.899 479.466 265.795 479.122 266.628C478.778 267.461 478.262 268.213 477.609 268.834C476.956 269.455 476.179 269.932 475.33 270.233C474.481 270.535 473.577 270.655 472.679 270.585C471.78 270.515 470.906 270.257 470.113 269.828C469.321 269.398 468.627 268.807 468.078 268.092C467.529 267.377 467.136 266.555 466.925 265.679C467.168 265.688 467.412 265.707 467.655 265.729Z" fill="black"/>
<path opacity="0.1" d="M465.818 284.721C466.93 284.777 468.037 284.544 469.032 284.044C470.027 283.544 470.875 282.794 471.493 281.868C472.111 280.942 472.478 279.871 472.558 278.761C472.638 277.65 472.429 276.538 471.95 275.533C471.439 275.878 470.999 276.32 470.655 276.833C470.196 277.527 469.915 278.326 469.378 278.964C468.372 280.145 466.658 280.531 465.101 280.457C463.544 280.384 462.041 279.948 460.507 279.805C460.291 279.805 460.075 279.768 459.859 279.764C460.178 281.125 460.933 282.346 462.008 283.24C463.083 284.135 464.421 284.655 465.818 284.721V284.721Z" fill="black"/>
<path opacity="0.1" d="M481.469 295.135C482.571 295.191 483.669 294.964 484.657 294.473C485.646 293.983 486.492 293.246 487.113 292.334C487.735 291.423 488.111 290.366 488.206 289.267C488.302 288.168 488.112 287.062 487.657 286.057C487.121 286.406 486.654 286.85 486.279 287.367C485.778 288.074 485.466 288.887 484.901 289.54C483.817 290.752 481.988 291.18 480.339 291.138C478.69 291.097 477.206 290.711 475.616 290.592C476.004 291.86 476.775 292.977 477.823 293.791C478.871 294.604 480.144 295.073 481.469 295.135V295.135Z" fill="black"/>
<path opacity="0.1" d="M478.286 307.653C478.926 308.928 479.973 309.954 481.261 310.569C482.548 311.184 484.004 311.354 485.399 311.051C486.793 310.747 488.047 309.989 488.963 308.895C489.88 307.801 490.406 306.433 490.459 305.007C490.505 304.116 490.363 303.225 490.041 302.393C489.51 302.741 489.033 303.165 488.626 303.652C488.011 304.401 487.611 305.246 486.899 305.949C485.581 307.244 483.454 307.786 481.561 307.828C480.467 307.832 479.373 307.774 478.286 307.653V307.653Z" fill="black"/>
<path d="M494.387 317.158C494.387 317.158 489.297 317.002 487.767 315.908C486.237 314.815 479.957 313.51 479.558 315.265C479.158 317.02 471.909 323.993 477.656 324.021C483.403 324.049 491.006 323.102 492.535 322.183C494.065 321.265 494.387 317.158 494.387 317.158Z" fill="#656380"/>
<path opacity="0.2" d="M477.55 323.41C483.297 323.456 490.9 322.491 492.434 321.572C493.597 320.865 494.061 318.315 494.217 317.139H494.387C494.387 317.139 494.065 321.242 492.549 322.193C491.033 323.144 483.412 324.067 477.67 324.03C476.011 324.03 475.437 323.428 475.469 322.551C475.685 323.07 476.319 323.41 477.55 323.41Z" fill="black"/>
<path d="M342.505 152.776C339.467 151.734 336.404 150.77 333.317 149.881C333.825 147.802 334.298 145.712 334.736 143.611C341.691 109.841 337.144 82.6365 321.612 73.6831C306.718 65.0926 282.362 74.0506 257.757 95.4534C255.331 97.5727 252.963 99.7471 250.65 101.977C249.098 100.491 247.52 99.0351 245.919 97.6079C220.143 74.7167 194.32 65.0742 178.784 74.0552C163.904 82.6687 159.49 108.243 165.76 140.248C166.373 143.418 167.076 146.569 167.869 149.702C164.217 150.741 160.684 151.848 157.303 153.028C127.08 163.544 107.777 180.082 107.777 197.212C107.777 214.903 128.5 232.649 159.981 243.408C162.535 244.275 165.108 245.08 167.699 245.824C166.86 249.193 166.113 252.59 165.457 256.013C159.485 287.463 164.153 312.435 178.991 320.994C194.32 329.841 220.046 320.746 245.092 298.851C247.072 297.119 249.056 295.282 251.064 293.362C253.569 295.778 256.14 298.124 258.777 300.399C283.042 321.278 307.012 329.713 321.832 321.127C337.144 312.265 342.119 285.437 335.66 252.802C335.17 250.309 334.599 247.766 333.946 245.172C335.756 244.639 337.526 244.086 339.257 243.514C371.983 232.672 393.281 215.142 393.281 197.212C393.281 180.017 373.352 163.392 342.518 152.776H342.505Z" fill="#53C1DE"/>
<path d="M335.407 231.937C333.845 232.456 332.247 232.952 330.611 233.439C326.621 221.068 321.791 208.985 316.154 197.272C321.576 185.715 326.219 173.809 330.051 161.633C332.968 162.478 335.807 163.369 338.536 164.311C364.955 173.402 381.07 186.848 381.07 197.212C381.07 208.237 363.664 222.575 335.407 231.937ZM323.684 255.173C326.541 269.602 326.945 282.649 325.062 292.843C323.362 302.007 319.944 308.117 315.718 310.566C306.719 315.77 287.479 309.004 266.729 291.147C264.349 289.099 261.956 286.916 259.549 284.601C268.2 275.023 276.195 264.872 283.478 254.217C296.489 253.115 309.408 251.12 322.145 248.245C322.727 250.597 323.243 252.894 323.693 255.136L323.684 255.173ZM205.107 309.674C196.314 312.78 189.313 312.867 185.082 310.428C176.078 305.232 172.334 285.162 177.443 258.287C178.055 255.112 178.749 251.953 179.524 248.81C192.208 251.534 205.062 253.395 217.997 254.383C225.494 265 233.681 275.113 242.506 284.656C240.732 286.374 238.919 288.045 237.066 289.668C225.991 299.352 214.887 306.206 205.107 309.674V309.674ZM163.927 231.868C150.003 227.109 138.51 220.926 130.627 214.182C123.547 208.118 119.973 202.095 119.973 197.212C119.973 186.816 135.473 173.554 161.318 164.545C164.564 163.415 167.84 162.384 171.144 161.453C174.983 173.764 179.632 185.808 185.059 197.506C179.564 209.372 174.859 221.587 170.974 234.073C168.604 233.396 166.255 232.661 163.927 231.868ZM177.732 137.905C172.366 110.485 175.927 89.7984 184.894 84.6165C194.445 79.1039 215.562 86.9686 237.824 106.736C239.248 107.999 240.677 109.322 242.106 110.687C233.344 120.171 225.222 130.226 217.791 140.786C204.977 141.935 192.251 143.913 179.694 146.707C178.962 143.792 178.308 140.859 177.732 137.91V137.905ZM300.898 168.312C298.108 163.492 295.215 158.732 292.22 154.034C301.33 155.187 310.054 156.713 318.249 158.587C315.619 166.929 312.57 175.134 309.112 183.169C306.475 178.161 303.737 173.209 300.898 168.312ZM250.66 119.401C256.596 125.874 262.204 132.642 267.459 139.679C256.217 139.149 244.969 139.149 233.717 139.679C239.262 132.365 244.945 125.566 250.66 119.406V119.401ZM200.127 168.395C197.325 173.255 194.637 178.177 192.065 183.159C188.514 174.739 185.477 166.456 182.997 158.458C191.142 156.621 199.829 155.146 208.878 154.011C205.84 158.74 202.92 163.534 200.118 168.395H200.127ZM209.136 241.276C200.302 240.317 191.524 238.905 182.836 237.045C185.358 228.91 188.463 220.448 192.092 211.844C194.674 216.832 197.371 221.757 200.182 226.617C203.043 231.576 206.024 236.462 209.126 241.276H209.136ZM251.004 275.882C245.216 269.662 239.451 262.771 233.828 255.324C239.294 255.542 244.862 255.651 250.531 255.651C256.35 255.651 262.094 255.522 267.763 255.265C262.53 262.419 256.933 269.301 250.995 275.882H251.004ZM309.204 211.407C312.841 219.605 316.048 227.986 318.814 236.517C310.018 238.496 301.125 240.013 292.17 241.061C295.186 236.274 298.108 231.43 300.935 226.53C303.808 221.55 306.564 216.509 309.204 211.407ZM290.369 220.439C286.045 227.948 281.48 235.314 276.675 242.535C268.204 243.142 259.452 243.454 250.531 243.454C241.61 243.454 233.005 243.178 224.681 242.636C219.754 235.439 215.1 228.063 210.721 220.508C206.341 212.952 202.282 205.283 198.542 197.501C202.3 189.683 206.347 182.011 210.684 174.486C215.014 166.965 219.628 159.614 224.525 152.436C233.019 151.793 241.72 151.457 250.522 151.457C259.324 151.457 268.08 151.797 276.564 152.44C281.406 159.598 286 166.919 290.346 174.404C294.692 181.888 298.794 189.525 302.653 197.313C298.84 205.159 294.75 212.862 290.383 220.42L290.369 220.439ZM315.53 84.249C325.089 89.7616 328.806 111.996 322.802 141.153C322.407 143.049 321.978 144.94 321.515 146.827C308.939 143.976 296.188 141.961 283.345 140.795C275.985 130.226 267.923 120.164 259.213 110.677C261.357 108.613 263.545 106.606 265.778 104.655C286.855 86.3116 306.553 79.0717 315.53 84.249Z" fill="white"/>
<path d="M250.522 171.716C255.564 171.716 260.494 173.211 264.687 176.013C268.879 178.814 272.147 182.796 274.077 187.455C276.007 192.114 276.512 197.24 275.528 202.186C274.544 207.132 272.116 211.675 268.55 215.24C264.984 218.806 260.442 221.234 255.496 222.218C250.55 223.202 245.424 222.697 240.765 220.767C236.106 218.837 232.124 215.57 229.323 211.377C226.521 207.184 225.026 202.255 225.026 197.212C225.025 193.864 225.684 190.548 226.965 187.454C228.246 184.361 230.124 181.55 232.492 179.182C234.86 176.815 237.671 174.937 240.764 173.656C243.858 172.375 247.173 171.715 250.522 171.716" fill="#53C1DE"/>
<path d="M256.916 10.0213C256.916 11.5295 256.469 13.0039 255.631 14.258C254.793 15.512 253.602 16.4894 252.209 17.0666C250.815 17.6438 249.282 17.7948 247.803 17.5006C246.323 17.2063 244.965 16.48 243.898 15.4136C242.832 14.3471 242.105 12.9883 241.811 11.509C241.517 10.0297 241.668 8.49645 242.245 7.10302C242.822 5.70958 243.8 4.51859 245.054 3.68066C246.308 2.84272 247.782 2.39548 249.29 2.39548C250.293 2.39061 251.287 2.58453 252.214 2.96604C253.142 3.34755 253.984 3.90908 254.693 4.61817C255.403 5.32726 255.964 6.16986 256.346 7.09727C256.727 8.02467 256.921 9.01849 256.916 10.0213V10.0213Z" fill="#3F3D56"/>
<path d="M243.199 11.9461C242.594 10.8538 242.267 9.62983 242.245 8.38157C242.224 7.13331 242.509 5.89879 243.075 4.78616C243.641 3.67353 244.472 2.71674 245.494 1.99961C246.516 1.28249 247.698 0.826898 248.937 0.672763C247.886 0.63597 246.839 0.816801 245.862 1.2039C244.884 1.591 243.998 2.17601 243.257 2.92218C242.517 3.66836 241.938 4.55959 241.559 5.5399C241.179 6.52022 241.006 7.56844 241.051 8.61875C241.096 9.66906 241.357 10.6988 241.819 11.6432C242.281 12.5876 242.933 13.4264 243.734 14.1069C244.535 14.7873 245.469 15.2947 246.475 15.5972C247.482 15.8997 248.541 15.9908 249.584 15.8647C248.273 15.8162 246.996 15.4301 245.877 14.7436C244.759 14.0571 243.836 13.0936 243.199 11.9461V11.9461Z" fill="#3F3D56"/>
<path d="M260.187 20.6423H239.758V52.51H260.187V20.6423Z" fill="#3F3D56"/>
<path opacity="0.1" d="M260.187 20.6423H239.758V52.51H260.187V20.6423Z" fill="black"/>
<path d="M207.487 136.261C207.487 136.261 205.304 142.256 200.136 143.073C194.968 143.891 191.964 145.251 191.964 145.251L204.22 153.148L210.757 152.33C210.757 152.33 211.575 143.886 214.299 141.98C217.023 140.074 207.487 136.261 207.487 136.261Z" fill="#A0616A"/>
<path d="M296.001 136.261C296.001 136.261 298.183 142.256 303.351 143.073C308.519 143.891 311.524 145.251 311.524 145.251L299.267 153.148L292.73 152.33C292.73 152.33 291.913 143.886 289.188 141.98C286.464 140.074 296.001 136.261 296.001 136.261Z" fill="#A0616A"/>
<path d="M236.354 83.422C236.354 83.422 233.088 85.0574 231.999 88.3282C231.999 88.3282 226.027 90.2347 222.738 95.4074C222.738 95.4074 218.649 99.767 218.107 101.944C217.565 104.122 211.318 117.196 211.318 117.196C211.318 117.196 205.052 137.625 201.785 139.802C201.785 139.802 212.135 137.625 214.042 147.975C214.042 147.975 216.49 147.975 219.215 138.443C221.939 128.91 228.476 117.196 228.476 117.196C228.476 117.196 230.653 109.028 232.56 107.664C234.466 106.299 237.461 100.038 240.186 101.692C242.91 103.346 260.885 101.416 260.885 101.416C260.885 101.416 271.497 106.304 271.764 109.57C272.03 112.837 273.941 113.112 274.212 115.836C274.483 118.56 284.562 140.074 284.562 140.074C284.562 140.074 286.469 146.046 287.015 147.424C287.015 147.424 292.987 132.99 300.907 141.162C300.907 141.162 300.632 135.714 298.183 132.434C295.735 129.154 285.109 103.566 285.109 103.566C285.109 103.566 284.02 99.7532 282.931 98.6644C281.843 97.5757 273.395 88.8565 270.399 88.8565C270.399 88.8565 268.769 84.7726 266.862 84.2259L236.354 83.422Z" fill="#3F3D56"/>
<path d="M211.841 150.424C209.714 151.278 207.402 151.566 205.13 151.261C202.858 150.956 200.704 150.068 198.878 148.683C197.103 147.319 195.159 146.192 193.094 145.329C190.204 144.162 186.75 143.299 185.698 145.251C183.791 148.793 208.846 157.507 208.846 157.507C208.846 157.507 212.117 155.601 211.841 150.424Z" fill="#3F3D56"/>
<path d="M291.646 150.424C293.773 151.278 296.085 151.566 298.357 151.261C300.629 150.956 302.783 150.068 304.61 148.683C306.385 147.319 308.329 146.192 310.393 145.329C313.283 144.162 316.738 143.299 317.79 145.251C319.696 148.793 294.641 157.507 294.641 157.507C294.641 157.507 291.37 155.601 291.646 150.424Z" fill="#3F3D56"/>
<path d="M245.257 38.6272C245.156 39.5735 244.844 40.598 244.035 41.0987C243.373 41.5121 242.537 41.48 241.775 41.6362C240.974 41.8367 240.232 42.2226 239.608 42.7628C238.984 43.3031 238.496 43.9825 238.182 44.7462C237.571 46.2876 237.45 47.9803 237.838 49.5927C238.018 50.3824 238.251 51.159 238.536 51.9172C239.336 54.1774 240.3 56.4192 241.793 58.2981C243.067 59.7918 244.5 61.1427 246.066 62.3269C247.035 63.1171 248.036 63.921 249.231 64.2931C250.04 64.5069 250.874 64.618 251.711 64.6239C252.745 64.6698 253.848 64.702 254.743 64.1874C256.121 63.3927 256.53 61.6379 257.279 60.2275C257.913 59.0331 258.859 58.0179 259.452 56.8005C259.873 55.841 260.181 54.8359 260.371 53.8053L261.643 48.1549C262.103 46.1014 262.525 43.7861 261.372 42.0266C261.289 41.8835 261.172 41.7623 261.032 41.6729C260.81 41.5854 260.569 41.5616 260.334 41.604C258.869 41.6992 257.409 41.3656 256.131 40.6439C255.93 40.5403 255.751 40.4001 255.602 40.2305C255.419 39.9362 255.309 39.6022 255.281 39.2565C255.157 38.5565 254.96 37.8713 254.693 37.2123C254.618 36.9747 254.48 36.762 254.293 36.5967C254.098 36.4741 253.875 36.4001 253.645 36.3808C251.679 36.0617 249.696 35.8547 247.706 35.7606C247.053 35.7285 246.07 35.4666 245.62 36.0454C245.17 36.6243 245.312 37.9381 245.257 38.6272Z" fill="#A0616A"/>
<path opacity="0.1" d="M245.257 38.6272C245.156 39.5735 244.844 40.598 244.035 41.0987C243.373 41.5121 242.537 41.48 241.775 41.6362C240.974 41.8367 240.232 42.2226 239.608 42.7628C238.984 43.3031 238.496 43.9825 238.182 44.7462C237.571 46.2876 237.45 47.9803 237.838 49.5927C238.018 50.3824 238.251 51.159 238.536 51.9172C239.336 54.1774 240.3 56.4192 241.793 58.2981C243.067 59.7918 244.5 61.1427 246.066 62.3269C247.035 63.1171 248.036 63.921 249.231 64.2931C250.04 64.5069 250.874 64.618 251.711 64.6239C252.745 64.6698 253.848 64.702 254.743 64.1874C256.121 63.3927 256.53 61.6379 257.279 60.2275C257.913 59.0331 258.859 58.0179 259.452 56.8005C259.873 55.841 260.181 54.8359 260.371 53.8053L261.643 48.1549C262.103 46.1014 262.525 43.7861 261.372 42.0266C261.289 41.8835 261.172 41.7623 261.032 41.6729C260.81 41.5854 260.569 41.5616 260.334 41.604C258.869 41.6992 257.409 41.3656 256.131 40.6439C255.93 40.5403 255.751 40.4001 255.602 40.2305C255.419 39.9362 255.309 39.6022 255.281 39.2565C255.157 38.5565 254.96 37.8713 254.693 37.2123C254.618 36.9747 254.48 36.762 254.293 36.5967C254.098 36.4741 253.875 36.4001 253.645 36.3808C251.679 36.0617 249.696 35.8547 247.706 35.7606C247.053 35.7285 246.07 35.4666 245.62 36.0454C245.17 36.6243 245.312 37.9381 245.257 38.6272Z" fill="black"/>
<path d="M241.568 41.8751C240.505 41.5574 239.403 41.3843 238.293 41.3606C235.665 41.2963 232.854 42.2012 231.338 44.3466C230.305 45.8951 229.927 47.7894 230.286 49.6157C230.652 51.425 231.474 53.1108 232.675 54.5128C233.368 55.2498 233.984 56.0565 234.512 56.92C235.238 58.2981 235.261 59.9473 235.459 61.5138C235.918 65.2441 237.507 68.7492 238.137 72.4564C238.766 76.1637 238.224 80.4589 235.298 82.8156C234.806 83.2107 234.209 83.6287 234.168 84.2581C234.103 85.2641 235.413 85.6913 236.419 85.7878C239.428 86.0726 242.515 86.3529 245.436 85.5765C246.645 85.2549 247.811 84.7542 249.043 84.5245C252.166 83.9411 255.309 85.1401 258.437 85.7143C260.701 86.0881 262.992 86.274 265.287 86.2702C265.821 86.3179 266.359 86.2473 266.862 86.0634C267.112 85.9656 267.324 85.7909 267.467 85.5646C267.611 85.3383 267.679 85.0722 267.662 84.8047C267.56 84.4584 267.373 84.1428 267.119 83.886C265.539 81.9336 265.057 79.338 264.625 76.8619L263.178 68.5425C262.402 64.0956 261.68 59.2629 263.784 55.2708C265.296 52.3996 268.084 50.3783 269.678 47.5531C270.234 46.6992 270.485 45.6826 270.39 44.6682C270.151 43.2486 268.87 42.2334 267.556 41.6408C265.028 40.5068 262.158 40.4013 259.553 41.3468C259.599 43.3359 259.094 45.348 258.768 47.3188L258.212 50.5345C257.929 52.4296 257.513 54.3024 256.967 56.139C256.769 56.8738 256.43 57.5633 255.97 58.1695C255.48 58.715 254.88 59.1516 254.211 59.4512C252.761 60.1602 251.167 60.5249 249.553 60.517C248.854 60.5277 248.158 60.4206 247.495 60.2C246.426 59.7315 245.462 59.0536 244.66 58.2063C244.379 57.966 244.128 57.693 243.911 57.3932C243.682 57.0114 243.511 56.5981 243.401 56.1666C243.029 55.043 242.736 53.8948 242.524 52.7304C242.386 51.8392 242.34 50.9342 242.276 50.0338C242.097 47.3739 242.097 44.4339 241.568 41.8751Z" fill="#2335DC"/>
<path d="M238.807 94.5897C238.807 94.5897 237.719 109.028 244.527 111.477C251.335 113.925 245.344 99.4914 245.344 99.4914L243.162 95.1364L238.807 94.5897Z" fill="#A0616A"/>
<path d="M261.956 94.5897C261.956 94.5897 263.045 109.028 256.237 111.477C249.428 113.925 255.419 99.4914 255.419 99.4914L257.601 95.1364L261.956 94.5897Z" fill="#A0616A"/>
<path opacity="0.1" d="M232.812 46.4001L230.635 49.9419C230.635 49.9419 232.541 62.1984 232.812 64.3759C233.047 65.9471 233.413 67.496 233.906 69.0065C233.906 69.0065 234.177 75.5435 234.177 77.9967C234.177 80.4498 235.555 84.5337 235.555 84.5337C235.747 86.8491 236.21 89.134 236.933 91.3418C238.022 94.337 239.11 97.8789 239.11 97.8789C239.11 97.8789 240.489 94.066 245.919 99.7853C246.527 99.1682 246.868 98.3365 246.868 97.4701C246.868 96.6036 246.527 95.7719 245.919 95.1547C245.919 95.1547 244.288 87.8046 244.288 83.9871C244.288 80.1696 241.288 61.9365 241.288 61.9365C241.288 61.9365 239.34 41.209 232.812 46.4001Z" fill="black"/>
<path d="M232.27 46.1108L230.093 49.6527C230.093 49.6527 231.999 61.9091 232.27 64.0866C232.506 65.6581 232.873 67.2071 233.368 68.7172C233.368 68.7172 233.639 75.2543 233.639 77.7028C233.639 80.1513 235.017 84.2399 235.017 84.2399C235.208 86.5554 235.671 88.8404 236.396 91.048C237.484 94.0478 238.578 97.585 238.578 97.585C238.578 97.585 239.956 93.7721 245.386 99.4915C245.993 98.8746 246.333 98.0438 246.333 97.1785C246.333 96.3131 245.993 95.4824 245.386 94.8655C245.386 94.8655 243.75 87.5153 243.75 83.6978C243.75 79.8803 240.755 61.6472 240.755 61.6472C240.755 61.6472 238.807 40.9335 232.27 46.1108Z" fill="#2335DC"/>
<path opacity="0.1" d="M268.222 44.2042L269.6 45.8259C269.6 45.8259 271.203 55.0963 267.662 66.8106L266.573 77.4316C266.573 77.4316 264.666 86.4218 264.395 88.5993C264.124 90.7768 264.124 91.0479 263.578 91.8656C263.412 92.0568 263.321 92.3015 263.321 92.5546C263.321 92.8078 263.412 93.0524 263.578 93.2437L261.942 99.2157C261.942 99.2157 259.494 96.2205 254.592 100.033C254.592 100.033 253.214 97.856 254.316 95.9495C255.419 94.043 255.405 93.2253 255.134 92.6787C254.863 92.132 256.223 89.4124 256.223 88.8658C256.223 88.3191 258.143 75.8008 258.143 75.8008C258.143 75.8008 258.961 63.5444 259.779 59.4605C260.279 56.9476 260.27 51.3477 260.183 47.4062C260.096 43.2992 265.066 41.0758 267.992 43.9608C268.061 44.0343 268.144 44.1032 268.222 44.2042Z" fill="black"/>
<path d="M269.04 43.6437L270.418 45.2654C270.418 45.2654 272.021 54.5404 268.479 66.2501L267.39 76.8711C267.39 76.8711 265.484 85.8613 265.213 88.0388C264.942 90.2163 264.937 90.4919 264.395 91.3096C264.228 91.5005 264.137 91.7453 264.137 91.9987C264.137 92.2521 264.228 92.497 264.395 92.6878L262.769 98.6782C262.769 98.6782 260.32 95.6784 255.419 99.4913C255.419 99.4913 254.041 97.3138 255.148 95.4074C256.255 93.5009 256.236 92.6832 255.965 92.1411C255.694 91.5991 257.054 88.8703 257.054 88.3282C257.054 87.7861 258.961 75.2541 258.961 75.2541C258.961 75.2541 259.778 62.9977 260.596 58.9091C261.414 54.8206 260.867 42.5688 260.867 42.5688C260.867 42.5688 265.227 39.5736 269.04 43.6437Z" fill="#2335DC"/>
<path d="M250.788 39.8492C256.806 39.8492 261.685 34.9706 261.685 28.9526C261.685 22.9345 256.806 18.0559 250.788 18.0559C244.77 18.0559 239.892 22.9345 239.892 28.9526C239.892 34.9706 244.77 39.8492 250.788 39.8492Z" fill="#A0616A"/>
<path opacity="0.1" d="M256.471 12.5938C255.947 14.0559 254.989 15.3233 253.725 16.2263C252.462 17.1293 250.952 17.6249 249.399 17.6469C247.847 17.6689 246.324 17.2161 245.035 16.3493C243.746 15.4824 242.753 14.2427 242.188 12.796C246.442 11.0824 250.788 12.6076 250.788 12.6076C252.961 11.845 254.844 11.9139 256.471 12.5938Z" fill="black"/>
<path d="M250.788 13.1543C250.788 13.1543 229.817 5.80415 234.994 41.4801C234.994 41.4801 239.625 44.4753 243.162 42.5688C243.162 42.5688 240.714 17.785 250.246 18.8737C259.778 19.9624 258.143 42.0268 258.143 42.0268C258.143 42.0268 263.591 43.6576 265.227 40.6486C266.862 37.6396 264.68 8.27106 250.788 13.1543Z" fill="#3F3D56"/>
<path opacity="0.1" d="M250.246 17.2383C243.704 16.4941 242.804 27.9282 242.896 35.1774C242.974 27.9696 244.187 18.1801 250.246 18.8737C257.05 19.6501 258.166 31.121 258.244 37.6167C258.322 31.6539 257.67 18.0882 250.246 17.2383Z" fill="black"/>
<path opacity="0.1" d="M234.995 39.8447C234.52 36.7217 234.249 33.5714 234.181 30.4135C234.159 34.118 234.431 37.8186 234.995 41.4801C234.995 41.4801 239.625 44.4753 243.162 42.5688C243.162 42.5688 243.107 41.9808 243.043 40.9931C239.52 42.7709 234.995 39.8447 234.995 39.8447Z" fill="black"/>
<path opacity="0.1" d="M265.227 39.05C263.701 41.8431 258.873 40.6165 258.221 40.4282C258.189 41.4388 258.143 42.0452 258.143 42.0452C258.143 42.0452 263.591 43.676 265.227 40.6671C265.562 40.0515 265.736 38.3104 265.686 35.9813C265.64 37.4743 265.479 38.5906 265.227 39.05Z" fill="black"/>
<path d="M379.788 309.798C381.966 305.765 379.494 300.822 376.655 297.225C373.816 293.628 370.348 289.875 370.422 285.281C370.527 278.689 377.519 274.802 383.11 271.307C387.254 268.715 391.077 265.642 394.498 262.151C395.876 260.75 397.195 259.252 397.999 257.461C399.156 254.888 399.124 251.948 399.05 249.137C398.809 239.731 398.349 230.338 397.672 220.958" stroke="#3F3D56" stroke-width="1.83755" stroke-miterlimit="10"/>
<path d="M408.275 220.462C408.196 218.741 407.685 217.068 406.789 215.597C405.893 214.126 404.641 212.905 403.148 212.046L400.851 216.593L400.92 211.081C398.831 210.463 396.599 210.525 394.547 211.258C392.495 211.991 390.729 213.358 389.505 215.16C388.28 216.962 387.66 219.107 387.734 221.285C387.809 223.463 388.573 225.56 389.917 227.275C391.262 228.99 393.116 230.233 395.213 230.825C397.31 231.417 399.541 231.327 401.584 230.568C403.626 229.809 405.375 228.421 406.577 226.604C407.779 224.786 408.372 222.634 408.27 220.457L408.275 220.462Z" fill="#2335DC"/>
<path d="M389.955 290.008C388.877 292.104 387.111 293.765 384.954 294.714C382.796 295.662 380.378 295.84 378.105 295.217C375.832 294.594 373.843 293.209 372.47 291.293C371.097 289.377 370.425 287.048 370.567 284.695C370.708 282.343 371.654 280.11 373.245 278.372C374.837 276.634 376.978 275.497 379.309 275.15C381.641 274.804 384.02 275.269 386.049 276.469C388.077 277.669 389.632 279.529 390.451 281.739L384.02 286.962L391.08 285.322C391.084 286.951 390.698 288.558 389.955 290.008V290.008Z" fill="#2335DC"/>
<path d="M384.878 270.057C382.364 270.164 379.899 269.344 377.949 267.754C375.999 266.164 374.7 263.914 374.298 261.43C373.897 258.946 374.421 256.401 375.77 254.277C377.12 252.154 379.202 250.599 381.621 249.908L381.566 254.144L383.891 249.55H383.918C385.272 249.477 386.627 249.672 387.905 250.125C389.183 250.578 390.358 251.279 391.364 252.189C392.37 253.098 393.185 254.197 393.764 255.423C394.343 256.649 394.674 257.977 394.737 259.331C394.801 260.686 394.595 262.039 394.133 263.314C393.671 264.588 392.962 265.759 392.045 266.758C391.129 267.757 390.024 268.565 388.794 269.135C387.564 269.705 386.233 270.026 384.878 270.08V270.057Z" fill="#2335DC"/>
<path d="M409.823 253.459C408.234 253.534 406.649 253.238 405.193 252.596C403.738 251.953 402.451 250.982 401.435 249.757C400.419 248.533 399.701 247.09 399.337 245.541C398.974 243.992 398.975 242.38 399.341 240.831C399.707 239.283 400.427 237.84 401.446 236.618C402.464 235.395 403.752 234.426 405.209 233.786C406.665 233.146 408.25 232.853 409.84 232.93C411.429 233.007 412.978 233.452 414.366 234.229L412.529 239.205L416.264 235.621C417.759 236.993 418.815 238.776 419.298 240.747C419.781 242.718 419.67 244.787 418.979 246.695C418.287 248.603 417.047 250.263 415.413 251.467C413.78 252.671 411.827 253.364 409.8 253.459H409.823Z" fill="#2335DC"/>
<path opacity="0.1" d="M406.897 223.199C404.522 223.461 402.215 224.201 399.836 224.348C397.456 224.495 394.842 223.925 393.34 222.051C392.527 221.054 392.123 219.795 391.438 218.707C390.788 217.696 389.9 216.86 388.852 216.272C388.189 217.575 387.812 219.004 387.746 220.464C387.679 221.924 387.925 223.381 388.467 224.739C389.008 226.096 389.833 227.323 390.886 228.336C391.94 229.35 393.197 230.127 394.574 230.615C395.952 231.104 397.417 231.294 398.874 231.171C400.33 231.049 401.744 230.617 403.02 229.904C404.296 229.192 405.406 228.216 406.275 227.04C407.144 225.865 407.752 224.518 408.059 223.089C407.668 223.131 407.282 223.158 406.897 223.199Z" fill="black"/>
<path opacity="0.1" d="M409.823 253.459C408.052 253.541 406.29 253.163 404.708 252.362C403.126 251.562 401.778 250.366 400.794 248.891C399.811 247.416 399.225 245.712 399.094 243.944C398.963 242.176 399.292 240.404 400.047 238.8C400.865 239.349 401.568 240.053 402.115 240.872C402.845 241.975 403.291 243.252 404.15 244.267C405.748 246.146 408.486 246.761 410.967 246.651C413.448 246.541 415.836 245.833 418.317 245.604C418.662 245.576 419.006 245.553 419.355 245.544C418.844 247.721 417.636 249.671 415.916 251.1C414.196 252.528 412.057 253.357 409.823 253.459Z" fill="black"/>
<path opacity="0.1" d="M384.878 270.057C383.125 270.139 381.38 269.77 379.809 268.986C378.239 268.202 376.895 267.029 375.907 265.579C374.918 264.128 374.318 262.449 374.162 260.7C374.007 258.952 374.302 257.193 375.02 255.591C375.867 256.147 376.604 256.856 377.193 257.681C377.992 258.807 378.488 260.102 379.425 261.145C381.157 263.074 384.07 263.754 386.698 263.69C389.243 263.635 391.691 263.01 394.222 262.817C393.6 264.839 392.369 266.62 390.696 267.916C389.024 269.212 386.992 269.959 384.878 270.057V270.057Z" fill="black"/>
<path opacity="0.1" d="M389.955 290.008C388.764 292.369 386.709 294.181 384.216 295.065C381.724 295.95 378.987 295.84 376.573 294.757C374.16 293.675 372.258 291.704 371.261 289.255C370.264 286.805 370.249 284.066 371.221 281.606C372.068 282.161 372.828 282.839 373.476 283.618C374.455 284.808 375.098 286.158 376.233 287.266C378.332 289.328 381.722 290.178 384.741 290.256C386.482 290.275 388.223 290.193 389.955 290.008V290.008Z" fill="black"/>
<path d="M364.293 305.154C364.293 305.154 372.401 304.906 374.859 303.165C377.317 301.424 387.336 299.347 387.942 302.136C388.549 304.924 400.13 316.018 390.974 316.092C381.819 316.165 369.7 314.668 367.261 313.179C364.822 311.691 364.293 305.154 364.293 305.154Z" fill="#656380"/>
<path opacity="0.2" d="M391.121 315.141C381.966 315.215 369.847 313.712 367.408 312.229C365.57 311.094 364.812 307.038 364.564 305.163H364.293C364.293 305.163 364.808 311.705 367.247 313.189C369.686 314.672 381.805 316.175 390.961 316.101C393.602 316.101 394.516 315.141 394.466 313.749C394.098 314.581 393.092 315.104 391.121 315.141Z" fill="black"/>
<path d="M148.382 20.3392L139.998 25.6543L145.088 16.3976C143.652 15.2492 141.873 14.6123 140.035 14.5877H139.897C139.315 14.5958 138.734 14.5527 138.16 14.459L135.317 16.2598L136.534 14.0456C134.522 13.3424 132.783 12.0227 131.564 10.274L126.478 13.4897L129.694 7.64632C126.717 4.07689 122.711 1.88562 118.296 1.88562C113.009 1.88562 108.3 5.03242 105.259 9.93407C104.36 11.3997 103.089 12.6015 101.575 13.4179C100.062 14.2343 98.3597 14.6363 96.641 14.5831H96.3562C90.5174 14.5831 85.7903 21.2028 85.7903 29.3707C85.7903 37.5386 90.522 44.1538 96.3562 44.1538C97.6376 44.15 98.8989 43.8347 100.031 43.235C103.84 41.255 108.838 41.2183 112.825 42.9869C114.535 43.7559 116.387 44.1554 118.262 44.1593C120.136 44.1633 121.991 43.7716 123.703 43.0099C127.663 41.278 132.602 41.3147 136.387 43.258C137.51 43.8521 138.76 44.1673 140.03 44.1767C145.869 44.1767 150.596 37.557 150.596 29.3937C150.631 26.2373 149.869 23.1231 148.382 20.3392V20.3392Z" fill="#F2F2F2"/>
<path opacity="0.03" d="M132.574 41.9717C129.524 41.3917 126.37 41.7339 123.515 42.9548C121.803 43.7158 119.949 44.1071 118.076 44.1032C116.202 44.0992 114.35 43.7001 112.641 42.9318C108.649 41.1632 103.651 41.1999 99.8429 43.1799C98.7105 43.7796 97.4492 44.0949 96.1678 44.0986C90.9814 44.0986 86.6677 38.8708 85.7673 31.98C86.8034 31.2253 87.6833 30.2767 88.3583 29.187C91.4178 24.2899 96.1081 21.1339 101.396 21.1339C106.683 21.1339 111.337 24.244 114.378 29.0905C115.285 30.5548 116.555 31.7601 118.065 32.5898C119.575 33.4196 121.273 33.8456 122.996 33.8268H123.115C127.25 33.8314 130.833 37.1435 132.574 41.9717Z" fill="black"/>
<path d="M367.541 31.1624L363.374 33.813L365.915 29.2192C365.197 28.639 364.306 28.3156 363.384 28.3004H363.319C363.029 28.3045 362.738 28.2829 362.451 28.2361L361.032 29.1549L361.629 28.0248C360.625 27.675 359.757 27.0175 359.148 26.1459L356.612 27.7537L358.216 24.8412C357.541 23.9705 356.681 23.2608 355.698 22.7634C354.715 22.2661 353.634 21.9935 352.533 21.9655C349.891 21.9655 347.544 23.5366 346.028 25.9805C345.577 26.7084 344.942 27.3043 344.187 27.7077C343.432 28.111 342.584 28.3076 341.728 28.2774H341.586C338.673 28.2774 336.312 31.5804 336.312 35.6276C336.312 39.6748 338.673 43.0008 341.586 43.0008C342.226 42.9985 342.857 42.8409 343.423 42.5414C344.414 42.0598 345.498 41.7993 346.6 41.7779C347.702 41.7565 348.795 41.9746 349.804 42.4173C350.658 42.7974 351.582 42.9938 352.517 42.9938C353.451 42.9938 354.376 42.7974 355.23 42.4173C356.231 41.9835 357.314 41.77 358.406 41.7914C359.497 41.8128 360.571 42.0686 361.555 42.5414C362.122 42.8411 362.752 42.9987 363.393 43.0008C366.305 43.0008 368.667 39.7024 368.667 35.6276C368.671 34.0685 368.284 32.5332 367.541 31.1624V31.1624Z" fill="#F2F2F2"/>
<path opacity="0.03" d="M359.663 41.9532C358.142 41.666 356.57 41.8371 355.147 42.4447C354.293 42.8248 353.369 43.0213 352.434 43.0213C351.499 43.0213 350.575 42.8248 349.721 42.4447C348.712 42.002 347.618 41.7837 346.515 41.8052C345.413 41.8266 344.328 42.0871 343.336 42.5688C342.77 42.8695 342.139 43.0272 341.498 43.0282C338.907 43.0282 336.758 40.4234 336.307 36.9872C336.823 36.6141 337.262 36.1464 337.603 35.6091C339.119 33.1651 341.471 31.5986 344.108 31.5986C346.745 31.5986 349.065 33.1468 350.581 35.5631C351.033 36.2941 351.666 36.8956 352.42 37.3094C353.173 37.7231 354.021 37.935 354.88 37.9244H354.949C357.012 37.8922 358.781 39.546 359.663 41.9532Z" fill="black"/>
<path d="M93.8712 99.8129L100.606 104.076L96.5264 96.6569C97.6831 95.7362 99.1136 95.227 100.592 95.2099H100.698C101.159 95.2168 101.62 95.1829 102.076 95.1088L104.35 96.5513L103.362 94.778C104.973 94.2116 106.366 93.1544 107.345 91.7553L111.42 94.337L108.875 89.6559C111.259 86.7985 114.47 85.062 118.003 85.062C122.243 85.062 126.014 87.5794 128.454 91.4934C129.172 92.6663 130.188 93.6285 131.398 94.2827C132.608 94.9369 133.97 95.2599 135.345 95.219H135.574C140.251 95.219 144.041 100.52 144.041 107.062C144.041 113.604 140.251 118.91 135.574 118.91C134.544 118.906 133.531 118.652 132.62 118.17C131.028 117.396 129.287 116.978 127.518 116.944C125.748 116.91 123.992 117.261 122.371 117.972C120.998 118.586 119.511 118.903 118.007 118.903C116.503 118.903 115.016 118.586 113.643 117.972C112.034 117.275 110.294 116.932 108.541 116.966C106.788 117.001 105.062 117.411 103.482 118.17C102.58 118.639 101.58 118.886 100.564 118.891C95.8833 118.891 92.0933 113.59 92.0933 107.044C92.0713 104.523 92.6826 102.036 93.8712 99.8129V99.8129Z" fill="#F2F2F2"/>
<path opacity="0.03" d="M106.527 117.146C108.971 116.685 111.497 116.96 113.785 117.936C115.158 118.549 116.646 118.867 118.15 118.867C119.654 118.867 121.141 118.549 122.514 117.936C124.135 117.224 125.892 116.873 127.662 116.907C129.433 116.941 131.174 117.36 132.767 118.133C133.676 118.615 134.688 118.869 135.716 118.873C139.874 118.873 143.329 114.688 144.05 109.166C143.22 108.559 142.515 107.798 141.973 106.924C139.534 103.001 135.762 100.493 131.522 100.493C127.282 100.493 123.561 102.983 121.122 106.869C120.396 108.04 119.38 109.004 118.173 109.668C116.966 110.332 115.609 110.673 114.231 110.659H114.125C110.79 110.627 107.924 113.282 106.527 117.146Z" fill="black"/>
</g>
<defs>
<clipPath id="clip0_301_410">
<rect width="509" height="335.894" fill="white" transform="translate(0 0.64978)"/>
</clipPath>
</defs>
</svg>
